<?xml version="1.0" encoding="utf-8"?>
<!-- Generator: Adobe Illustrator 23.0.3, SVG Export Plug-In . SVG Version: 6.00 Build 0)  -->
<svg version="1.1" id="Ebene_1" xmlns="http://www.w3.org/2000/svg" xmlns:xlink="http://www.w3.org/1999/xlink" x="0px" y="0px"
	 viewBox="0 0 250 250" style="enable-background:new 0 0 250 250;" xml:space="preserve">
<style type="text/css">
	.st0{fill:#FFFFFF;}
	.st1{fill:#D39E01;}
</style>
<g>
	<g>
		<g>
			<g>
				<g>
					<g>
						<g>
							<path class="st0" d="M125.57,234.43c-16.72,0-30.04-2.53-39.58-7.51c-11.14-5.82-16.78-14.84-16.78-26.8
								c0-0.64,0.51-1.15,1.15-1.15c0.63,0,1.15,0.51,1.15,1.15c0,11.03,5.23,19.36,15.55,24.76c9.2,4.81,22.16,7.25,38.51,7.25
								s29.31-2.44,38.51-7.25c10.32-5.4,15.55-13.73,15.55-24.76c0-0.64,0.52-1.15,1.15-1.15s1.15,0.51,1.15,1.15
								c0,11.96-5.65,20.97-16.79,26.8C155.61,231.9,142.29,234.43,125.57,234.43z"/>
						</g>
					</g>
				</g>
			</g>
		</g>
		<g>
			<g>
				<g>
					<g>
						<g>
							<path class="st0" d="M173.28,141.73c-1.89,1.89-4.87,1.95-6.68,0.15l-0.38-0.38c-1.8-1.8-1.74-4.79,0.15-6.68l28.57-28.57
								c-3.62-4.55-8.18-8.37-13.43-11.51l-42.32,42.32c-2.76,2.77-7.15,2.87-9.79,0.22l-0.56-0.56c-2.65-2.64-2.54-7.03,0.22-9.79
								l38.56-38.55c-12.8-4.42-27.67-6.27-42.41-6.27c-38.98,0-78.91,12.98-78.91,51.95s39.93,65.8,78.91,65.8
								c38.98,0,78.91-26.82,78.91-65.8c0-7.3-1.4-13.69-3.93-19.25L173.28,141.73z"/>
						</g>
					</g>
				</g>
			</g>
		</g>
		<g>
			<g>
				<g>
					<g>
						<g>
							<path class="st0" d="M125.22,218.2c-12,0-23.65-2.35-34.61-6.99c-10.59-4.48-20.1-10.89-28.26-19.05
								c-8.16-8.16-14.57-17.67-19.06-28.26c-4.63-10.96-6.99-22.61-6.99-34.61c0-18.83,5.81-36.83,16.81-52.04
								c5.3-7.32,11.65-13.78,18.89-19.19C79.33,52.58,87.4,48.28,96,45.29l1.04-0.36l0.41,1.01c1.55,3.81,5.13,7.28,10.09,9.77
								c5.21,2.62,11.5,4,18.17,4c13.14,0,24.7-5.55,28.13-13.5l0.43-0.99l1.01,0.36c8.5,3.05,16.46,7.38,23.67,12.86
								c7.14,5.42,13.4,11.87,18.62,19.16c10.84,15.14,16.56,33.01,16.56,51.69c0,12-2.35,23.65-6.99,34.61
								c-4.48,10.59-10.9,20.1-19.06,28.26c-8.16,8.17-17.67,14.58-28.26,19.05C148.87,215.85,137.23,218.2,125.22,218.2z
								 M95.77,47.82c-8,2.89-15.52,6.95-22.37,12.08c-7.05,5.27-13.24,11.57-18.4,18.7C44.27,93.41,38.6,110.94,38.6,129.29
								c0,11.69,2.29,23.03,6.82,33.71c4.36,10.31,10.6,19.58,18.56,27.53c7.95,7.95,17.22,14.2,27.53,18.56
								c10.68,4.51,22.02,6.81,33.71,6.81c11.69,0,23.03-2.29,33.72-6.81c10.31-4.36,19.58-10.61,27.53-18.56
								c7.96-7.95,14.2-17.22,18.57-27.53c4.51-10.68,6.8-22.02,6.8-33.71c0-18.2-5.58-35.6-16.14-50.35
								c-10.12-14.15-24.01-24.79-40.22-30.83c-1.99,3.85-5.78,7.29-10.78,9.75c-5.5,2.71-12.07,4.15-19,4.15
								C111.97,62.01,99.89,56.22,95.77,47.82z"/>
						</g>
					</g>
				</g>
			</g>
		</g>
		<g>
			<g>
				<g>
					<g>
						<g>
							<path class="st0" d="M125.7,62.01c-14.27,0-26.76-6.25-30.39-15.2l-0.45-1.12l1.14-0.4c9.39-3.26,19.22-4.92,29.22-4.92
								c10.31,0,20.42,1.75,30.06,5.21l1.15,0.42l-0.48,1.12c-1.84,4.25-5.83,8.07-11.24,10.74
								C139.21,60.58,132.64,62.01,125.7,62.01z M97.96,47.06c1.75,3.37,5.1,6.41,9.58,8.66c5.21,2.62,11.5,4,18.17,4
								c12.51,0,23.61-5.04,27.59-12.38c-9.02-3.09-18.46-4.65-28.07-4.65C115.9,42.67,106.74,44.15,97.96,47.06z"/>
						</g>
					</g>
				</g>
			</g>
		</g>
	</g>
	<g>
		<g>
			<g>
				<g>
					<path class="st1" d="M241.92,124.75h-4.06c-0.66,0-1.27,0.12-1.82,0.33V113.7c0-3.42-2.74-6.21-6.14-6.31
						c-4.4-22.35-17.47-43-36.93-58.27c-19.63-15.39-43.78-23.87-68.01-23.87c-23.96,0-47.94,8.43-67.54,23.74
						c-19.59,15.3-32.85,36.02-37.4,58.4c-3.36,0.14-6.05,2.91-6.05,6.3v11.38c-0.55-0.21-1.16-0.33-1.82-0.33H8.08
						c-2.31,0-4.12,1.42-4.12,3.23v19.24c0,1.81,1.81,3.23,4.12,3.23h4.06c0.66,0,1.27-0.12,1.82-0.33v11.38
						c0,3.48,2.83,6.31,6.31,6.31h7.07c3.48,0,6.31-2.83,6.31-6.31V113.7c0-2.35-1.29-4.4-3.2-5.49C32.98,98,37.13,88.31,42.82,79.4
						c5.76-9.04,12.93-17.02,21.32-23.73C72.58,48.9,82.01,43.63,92.17,40c10.5-3.76,21.54-5.66,32.8-5.66
						c11.3,0,22.37,1.92,32.91,5.7c10.18,3.65,19.64,8.96,28.1,15.78c16.58,13.34,28.43,31.92,33.52,52.43
						c-1.88,1.1-3.14,3.13-3.14,5.45v47.81c0,3.48,2.83,6.31,6.31,6.31h7.07c3.48,0,6.31-2.83,6.31-6.31v-11.38
						c0.55,0.21,1.16,0.32,1.82,0.32h4.06c2.31,0,4.12-1.42,4.12-3.23v-19.24C246.03,126.17,244.23,124.75,241.92,124.75z"/>
				</g>
			</g>
		</g>
	</g>
</g>
</svg>
