<?xml version="1.0" encoding="utf-8"?>
<!-- Generator: Adobe Illustrator 23.0.3, SVG Export Plug-In . SVG Version: 6.00 Build 0)  -->
<svg version="1.1" id="Ebene_1" xmlns="http://www.w3.org/2000/svg" xmlns:xlink="http://www.w3.org/1999/xlink" x="0px" y="0px"
	 viewBox="0 0 250 250" style="enable-background:new 0 0 250 250;" xml:space="preserve">
<style type="text/css">
	.st0{fill:#FFFFFF;}
	.st1{fill:#D39E01;}
</style>
<g>
	<path class="st0" d="M235.55,73.67h-4.41c3.41-6.98,5.22-14.82,5.22-22.95c0-10.28-2.89-20.12-8.36-28.45
		c-5.15-7.84-12.17-13.77-20.37-17.22l0.01-0.01l-0.98-0.38l-0.87-0.34l0,0.01c-4.6-1.69-9.41-2.54-14.3-2.54
		c-4.74,0-9.4,0.8-13.87,2.39l0-0.01l-0.88,0.33c0,0-0.01,0-0.01,0.01l-0.97,0.36l0.01,0.01c-17.48,7.13-29.15,25.41-29.15,45.85
		c0,13.07,4.67,25.36,13.14,34.61c2.84,3.1,6,5.73,9.39,7.86v22.79l-16.9,5.7l-7.95,2.68c-0.26,0.09-0.47,0.29-0.59,0.55
		c-0.12,0.27-0.13,0.57-0.03,0.85l0.25,0.73c-0.25-0.06-0.49-0.09-0.75-0.09c-0.43,0-0.84,0.08-1.24,0.25l-16.93,7l-16.93-7
		c-0.4-0.16-0.82-0.25-1.24-0.25c-0.25,0-0.5,0.03-0.75,0.09l0.25-0.73c0.1-0.28,0.08-0.58-0.03-0.85
		c-0.12-0.26-0.33-0.46-0.59-0.55l-7.95-2.68l-16.9-5.7V93.18c3.39-2.13,6.55-4.76,9.39-7.86c8.48-9.24,13.14-21.53,13.14-34.61
		c0-20.44-11.67-38.72-29.15-45.85l0.01-0.01l-0.97-0.36c0,0-0.01,0-0.01-0.01l-0.88-0.33l-0.01,0.01
		c-4.47-1.58-9.12-2.39-13.86-2.39c-4.9,0-9.7,0.85-14.3,2.54l0-0.01l-0.87,0.34l-0.98,0.38l0.01,0.01
		C34.18,8.49,27.15,14.42,22,22.26c-5.47,8.33-8.36,18.17-8.36,28.45c0,8.14,1.81,15.97,5.22,22.95h-4.41
		c-1.05,0-1.83,1.19-1.83,2.77v58.71c0,1.58,0.79,2.78,1.83,2.78h21.73v14.94c0,2.26,1.69,4.11,3.77,4.11h2.17v63.96
		c0,0.8,0.27,1.55,0.72,2.17c-0.69,0.33-1.32,0.88-1.84,1.63c-0.82,1.18-1.28,2.72-1.3,4.35l-0.86,5.13l-0.02,0.12l-0.34,2.02
		l-0.49,2.91v0.1c0,3.55,2.26,6.45,5.04,6.45h35.12c2.78,0,5.04-2.89,5.04-6.45v-0.1l-0.52-3.15l-1.18-7.04
		c-0.02-1.63-0.47-3.17-1.29-4.35c-0.9-1.29-2.11-2-3.43-2h-3.05c0.31-0.54,0.49-1.16,0.49-1.81v-63.96h2.88
		c2.08,0,3.77-1.84,3.77-4.11v-14.2l9.37,4.62l7.6,3.74c0.13,0.06,0.27,0.1,0.41,0.1c0.13,0,0.25-0.03,0.37-0.08
		c0.25-0.11,0.44-0.34,0.54-0.61l0.23-0.68c0.44,0.63,1.02,1.08,1.7,1.28c1.38,0.41,6.35,1.76,12.17,1.76l0,0
		c4.85,0,8.81-0.95,11.74-2.79c2.93,1.84,6.88,2.79,11.74,2.79c5.82,0,10.79-1.35,12.17-1.76c0.68-0.2,1.26-0.65,1.7-1.28l0.24,0.68
		c0.09,0.27,0.29,0.5,0.54,0.61c0.12,0.05,0.25,0.08,0.37,0.08c0.14,0,0.27-0.03,0.4-0.1l7.6-3.74l9.38-4.62v14.2
		c0,2.26,1.69,4.11,3.77,4.11h2.88v63.96c0,0.65,0.17,1.27,0.49,1.81h-3.05c-1.31,0-2.53,0.71-3.43,2
		c-0.82,1.18-1.27,2.72-1.29,4.35l-1.18,7.04l-0.53,3.15v0.1c0,3.55,2.26,6.45,5.04,6.45h35.12c2.78,0,5.04-2.89,5.04-6.45v-0.1
		l-0.49-2.91l-1.21-7.28c-0.02-1.63-0.48-3.17-1.3-4.35c-0.52-0.75-1.15-1.3-1.84-1.63c0.45-0.62,0.72-1.37,0.72-2.17v-63.96h2.17
		c2.08,0,3.77-1.84,3.77-4.11v-14.94h21.73c1.04,0,1.83-1.19,1.83-2.78V76.44C237.38,74.86,236.59,73.67,235.55,73.67z M191.48,3.92
		c4.59,0,9.11,0.79,13.43,2.34c-0.01,0.02-0.02,0.04-0.03,0.06c-0.03,0.05-0.06,0.1-0.09,0.15c-0.05,0.07-0.09,0.14-0.13,0.2
		c-0.03,0.05-0.07,0.1-0.1,0.15c-0.05,0.07-0.09,0.13-0.14,0.2c-0.03,0.05-0.07,0.1-0.11,0.15c-0.05,0.06-0.1,0.13-0.15,0.19
		c-0.04,0.05-0.07,0.1-0.12,0.14c-0.05,0.06-0.1,0.12-0.16,0.19c-0.04,0.05-0.08,0.09-0.13,0.14c-0.06,0.06-0.11,0.12-0.17,0.18
		c-0.04,0.04-0.08,0.09-0.13,0.13c-0.07,0.07-0.13,0.13-0.2,0.19c-0.04,0.04-0.08,0.08-0.13,0.12c-0.08,0.07-0.16,0.15-0.25,0.22
		c-0.03,0.02-0.05,0.05-0.09,0.07c-0.11,0.1-0.23,0.19-0.35,0.28c-0.04,0.03-0.08,0.06-0.12,0.1c-0.08,0.06-0.16,0.12-0.24,0.18
		c-0.05,0.04-0.11,0.07-0.16,0.11c-0.07,0.05-0.15,0.1-0.22,0.15c-0.06,0.04-0.12,0.08-0.18,0.11c-0.07,0.05-0.15,0.1-0.22,0.14
		c-0.06,0.04-0.13,0.08-0.19,0.11c-0.07,0.05-0.15,0.09-0.22,0.13c-0.07,0.04-0.13,0.08-0.19,0.11c-0.08,0.04-0.15,0.09-0.23,0.13
		c-0.07,0.04-0.13,0.07-0.2,0.1c-0.08,0.04-0.16,0.08-0.24,0.12c-0.07,0.03-0.14,0.07-0.21,0.1c-0.08,0.04-0.17,0.08-0.25,0.11
		c-0.07,0.03-0.14,0.06-0.21,0.09c-0.09,0.04-0.17,0.07-0.26,0.11c-0.07,0.03-0.14,0.05-0.21,0.08c-0.09,0.04-0.19,0.08-0.29,0.11
		c-0.06,0.02-0.12,0.05-0.19,0.07c-0.13,0.05-0.26,0.09-0.39,0.13c-0.03,0.01-0.07,0.02-0.1,0.03c-0.16,0.06-0.33,0.11-0.49,0.16
		c-0.06,0.02-0.12,0.03-0.18,0.05c-0.11,0.03-0.22,0.06-0.33,0.09c-0.07,0.02-0.14,0.04-0.21,0.06c-0.1,0.02-0.2,0.05-0.31,0.07
		c-0.07,0.02-0.15,0.04-0.23,0.05c-0.1,0.02-0.2,0.05-0.3,0.06c-0.08,0.02-0.16,0.03-0.23,0.05c-0.1,0.02-0.2,0.04-0.3,0.06
		c-0.08,0.01-0.16,0.03-0.24,0.04c-0.1,0.02-0.2,0.03-0.3,0.05c-0.08,0.01-0.16,0.02-0.24,0.04c-0.1,0.01-0.21,0.03-0.31,0.04
		c-0.08,0.01-0.16,0.02-0.24,0.03c-0.11,0.01-0.21,0.02-0.32,0.03c-0.08,0.01-0.16,0.02-0.24,0.02c-0.11,0.01-0.23,0.02-0.34,0.02
		c-0.08,0-0.15,0.01-0.23,0.01c-0.13,0.01-0.25,0.01-0.38,0.02c-0.06,0-0.13,0-0.19,0.01c-0.19,0-0.38,0.01-0.58,0.01
		c-0.19,0-0.39,0-0.58-0.01c-0.07,0-0.13,0-0.19-0.01c-0.13,0-0.26-0.01-0.39-0.02c-0.07,0-0.15-0.01-0.23-0.01
		c-0.12-0.01-0.23-0.02-0.35-0.02c-0.08-0.01-0.16-0.01-0.24-0.02c-0.11-0.01-0.22-0.02-0.33-0.03c-0.08-0.01-0.16-0.02-0.24-0.03
		c-0.11-0.01-0.21-0.03-0.32-0.04c-0.08-0.01-0.16-0.02-0.24-0.03c-0.11-0.02-0.21-0.03-0.31-0.05c-0.08-0.01-0.16-0.03-0.24-0.04
		c-0.11-0.02-0.21-0.04-0.31-0.06c-0.08-0.02-0.16-0.03-0.23-0.05c-0.11-0.02-0.21-0.04-0.31-0.07c-0.07-0.02-0.15-0.03-0.22-0.05
		c-0.11-0.02-0.21-0.05-0.32-0.08c-0.07-0.02-0.13-0.03-0.2-0.05c-0.12-0.03-0.23-0.06-0.34-0.1c-0.06-0.02-0.11-0.03-0.17-0.05
		c-0.16-0.05-0.31-0.1-0.46-0.15c-0.01,0-0.03-0.01-0.04-0.01c-0.17-0.06-0.33-0.11-0.49-0.17c-0.05-0.02-0.1-0.04-0.15-0.06
		c-0.11-0.04-0.22-0.08-0.33-0.13c-0.06-0.03-0.12-0.05-0.18-0.08c-0.1-0.04-0.19-0.08-0.29-0.12c-0.06-0.03-0.13-0.06-0.19-0.09
		c-0.09-0.04-0.18-0.08-0.27-0.12c-0.06-0.03-0.13-0.06-0.19-0.1c-0.09-0.04-0.17-0.09-0.25-0.13c-0.06-0.03-0.13-0.07-0.19-0.1
		c-0.08-0.05-0.16-0.09-0.24-0.13c-0.06-0.04-0.13-0.07-0.19-0.11c-0.08-0.05-0.16-0.09-0.24-0.14c-0.06-0.04-0.12-0.07-0.18-0.11
		c-0.08-0.05-0.15-0.1-0.23-0.15c-0.05-0.04-0.11-0.07-0.17-0.11c-0.08-0.05-0.15-0.11-0.23-0.16c-0.05-0.04-0.11-0.08-0.16-0.11
		c-0.08-0.06-0.16-0.12-0.23-0.18c-0.05-0.03-0.09-0.07-0.13-0.1c-0.1-0.08-0.19-0.16-0.29-0.24c-0.02-0.02-0.04-0.03-0.07-0.05
		c-0.11-0.1-0.22-0.2-0.33-0.3c-0.03-0.03-0.07-0.07-0.1-0.1c-0.07-0.07-0.14-0.14-0.21-0.21c-0.04-0.04-0.08-0.09-0.12-0.13
		c-0.06-0.06-0.12-0.13-0.18-0.19c-0.04-0.05-0.08-0.1-0.12-0.14c-0.05-0.06-0.11-0.12-0.16-0.19c-0.04-0.05-0.08-0.1-0.12-0.15
		c-0.05-0.06-0.1-0.12-0.14-0.19c-0.04-0.05-0.07-0.1-0.11-0.16c-0.05-0.06-0.09-0.13-0.13-0.19c-0.04-0.05-0.07-0.11-0.11-0.16
		c-0.04-0.07-0.08-0.13-0.12-0.19c-0.03-0.05-0.07-0.11-0.1-0.16c-0.01-0.02-0.03-0.05-0.04-0.07
		C182.65,4.66,187.03,3.92,191.48,3.92z M126.91,136.73c0.98,0.4,1.4,1.8,0.96,3.14c-0.7,1.49-1.69,2.66-2.87,3.59
		c-1.18-0.93-2.17-2.1-2.87-3.59c-0.44-1.34-0.02-2.73,0.95-3.14l1.92-0.79L126.91,136.73z M58.52,3.92c4.45,0,8.83,0.74,13.04,2.2
		c-0.01,0.02-0.02,0.05-0.04,0.07c-0.03,0.05-0.06,0.11-0.09,0.16c-0.04,0.07-0.08,0.13-0.12,0.19c-0.03,0.05-0.07,0.11-0.11,0.16
		c-0.04,0.07-0.09,0.13-0.13,0.19c-0.04,0.05-0.07,0.1-0.11,0.16c-0.05,0.06-0.1,0.12-0.15,0.19c-0.04,0.05-0.08,0.1-0.12,0.15
		c-0.05,0.06-0.1,0.12-0.16,0.19c-0.04,0.05-0.08,0.09-0.12,0.14c-0.06,0.06-0.12,0.13-0.18,0.19C70.19,7.96,70.15,8,70.11,8.04
		c-0.07,0.07-0.14,0.14-0.21,0.21c-0.03,0.04-0.07,0.07-0.11,0.1c-0.11,0.1-0.22,0.2-0.33,0.3c-0.02,0.02-0.05,0.04-0.07,0.06
		c-0.09,0.08-0.19,0.16-0.28,0.24c-0.04,0.03-0.09,0.07-0.13,0.1c-0.08,0.06-0.15,0.12-0.23,0.18c-0.05,0.04-0.11,0.08-0.16,0.11
		c-0.07,0.05-0.15,0.1-0.23,0.16c-0.05,0.04-0.11,0.07-0.17,0.11c-0.08,0.05-0.15,0.1-0.23,0.15c-0.06,0.04-0.12,0.07-0.18,0.11
		c-0.07,0.05-0.15,0.09-0.23,0.14c-0.06,0.04-0.12,0.07-0.19,0.11c-0.08,0.05-0.16,0.09-0.24,0.13c-0.06,0.03-0.13,0.07-0.19,0.1
		c-0.08,0.04-0.16,0.08-0.25,0.12c-0.07,0.03-0.13,0.06-0.2,0.1c-0.09,0.04-0.17,0.08-0.26,0.12c-0.06,0.03-0.13,0.06-0.19,0.09
		c-0.09,0.04-0.19,0.08-0.28,0.12c-0.06,0.02-0.12,0.05-0.19,0.08c-0.1,0.04-0.21,0.08-0.32,0.12c-0.05,0.02-0.1,0.04-0.16,0.06
		c-0.16,0.06-0.33,0.12-0.5,0.17c-0.02,0-0.04,0.01-0.06,0.02c-0.15,0.05-0.29,0.1-0.45,0.14c-0.06,0.02-0.12,0.03-0.18,0.05
		c-0.11,0.03-0.22,0.07-0.33,0.1c-0.07,0.02-0.14,0.03-0.21,0.05c-0.11,0.03-0.21,0.05-0.32,0.08c-0.07,0.02-0.15,0.03-0.22,0.05
		c-0.1,0.02-0.21,0.05-0.31,0.07c-0.08,0.02-0.16,0.03-0.23,0.05c-0.1,0.02-0.21,0.04-0.31,0.06c-0.08,0.02-0.16,0.03-0.24,0.04
		c-0.1,0.02-0.21,0.03-0.31,0.05c-0.08,0.01-0.16,0.02-0.24,0.03c-0.1,0.01-0.21,0.03-0.32,0.04c-0.08,0.01-0.16,0.02-0.24,0.03
		c-0.11,0.01-0.22,0.02-0.33,0.03c-0.08,0.01-0.16,0.02-0.24,0.02c-0.12,0.01-0.23,0.02-0.35,0.02c-0.07,0-0.15,0.01-0.23,0.01
		c-0.13,0.01-0.25,0.01-0.39,0.02c-0.06,0-0.13,0.01-0.19,0.01c-0.19,0.01-0.39,0.01-0.59,0.01c-0.19,0-0.38,0-0.57-0.01
		c-0.07,0-0.13,0-0.19-0.01c-0.13,0-0.25-0.01-0.38-0.02c-0.07,0-0.15-0.01-0.23-0.01c-0.11-0.01-0.23-0.01-0.34-0.02
		c-0.08-0.01-0.16-0.01-0.23-0.02c-0.11-0.01-0.21-0.02-0.32-0.03c-0.08-0.01-0.16-0.02-0.24-0.03c-0.1-0.01-0.21-0.02-0.31-0.04
		c-0.08-0.01-0.16-0.02-0.24-0.04c-0.1-0.02-0.21-0.03-0.3-0.05c-0.08-0.01-0.16-0.03-0.24-0.04c-0.1-0.02-0.2-0.04-0.3-0.06
		c-0.08-0.02-0.16-0.03-0.24-0.05c-0.1-0.02-0.2-0.04-0.3-0.06c-0.07-0.02-0.15-0.03-0.23-0.05c-0.1-0.02-0.2-0.05-0.3-0.07
		c-0.07-0.02-0.14-0.04-0.21-0.06c-0.11-0.03-0.22-0.06-0.33-0.09c-0.06-0.02-0.12-0.03-0.18-0.05c-0.17-0.05-0.33-0.1-0.49-0.16
		c-0.04-0.01-0.07-0.02-0.11-0.03c-0.13-0.04-0.26-0.09-0.38-0.13c-0.07-0.03-0.13-0.05-0.19-0.07c-0.1-0.03-0.19-0.07-0.29-0.11
		c-0.07-0.03-0.13-0.06-0.2-0.08c-0.09-0.04-0.18-0.07-0.26-0.11c-0.07-0.03-0.14-0.06-0.21-0.09c-0.08-0.04-0.17-0.07-0.25-0.11
		c-0.07-0.03-0.14-0.07-0.21-0.1c-0.08-0.04-0.16-0.08-0.24-0.12c-0.07-0.03-0.13-0.07-0.2-0.1c-0.08-0.04-0.16-0.08-0.23-0.13
		c-0.07-0.03-0.13-0.07-0.19-0.11c-0.07-0.04-0.15-0.09-0.23-0.13c-0.06-0.04-0.12-0.07-0.19-0.11c-0.07-0.05-0.15-0.09-0.22-0.14
		c-0.06-0.04-0.12-0.07-0.17-0.11c-0.08-0.05-0.15-0.1-0.22-0.15c-0.05-0.04-0.11-0.07-0.16-0.11c-0.08-0.06-0.16-0.12-0.24-0.18
		c-0.04-0.03-0.09-0.06-0.13-0.09c-0.12-0.09-0.23-0.19-0.35-0.28c-0.03-0.02-0.06-0.05-0.09-0.08c-0.08-0.07-0.17-0.15-0.25-0.22
		c-0.04-0.04-0.08-0.08-0.12-0.12c-0.07-0.06-0.13-0.12-0.2-0.19C46.51,8.09,46.47,8.04,46.42,8c-0.06-0.06-0.12-0.12-0.17-0.18
		c-0.04-0.05-0.08-0.09-0.12-0.14c-0.05-0.06-0.11-0.12-0.16-0.19c-0.04-0.05-0.08-0.1-0.12-0.14c-0.05-0.06-0.1-0.13-0.15-0.19
		c-0.04-0.05-0.07-0.1-0.11-0.15c-0.05-0.07-0.09-0.13-0.14-0.2c-0.03-0.05-0.07-0.1-0.1-0.15c-0.05-0.07-0.09-0.13-0.13-0.2
		c-0.03-0.05-0.06-0.1-0.09-0.15c-0.01-0.02-0.02-0.04-0.03-0.06C49.41,4.7,53.92,3.92,58.52,3.92z M36.18,102.7v32.45
		c0,0.29-0.05,0.51-0.1,0.63H14.69c-0.05-0.13-0.1-0.35-0.1-0.63V76.44c0-0.29,0.05-0.51,0.1-0.63h5.29
		c1.88,3.42,4.16,6.62,6.82,9.51c0.98,1.07,2,2.08,3.05,3.03h-9.17c-0.54,0-0.98,0.48-0.98,1.07c0,0.59,0.44,1.07,0.98,1.07h9.43
		c0.54,0,0.98-0.47,0.98-1.05c1.63,1.38,3.34,2.62,5.1,3.74V102.7z M28.18,83.8c-8.11-8.84-12.57-20.59-12.57-33.09
		c0-9.83,2.76-19.24,7.99-27.2c4.95-7.54,11.71-13.24,19.6-16.52c0.07,0.14,0.15,0.29,0.24,0.43c0.02,0.04,0.05,0.08,0.07,0.12
		c0.06,0.1,0.13,0.2,0.19,0.3c0.03,0.05,0.07,0.1,0.11,0.15c0.06,0.09,0.12,0.17,0.18,0.26c0.04,0.05,0.08,0.11,0.12,0.16
		c0.06,0.08,0.12,0.16,0.18,0.24c0.04,0.05,0.09,0.11,0.13,0.17c0.07,0.07,0.13,0.15,0.19,0.22c0.05,0.05,0.1,0.11,0.15,0.16
		c0.07,0.07,0.13,0.14,0.2,0.21c0.05,0.05,0.1,0.11,0.16,0.16c0.07,0.07,0.14,0.14,0.21,0.21c0.06,0.05,0.11,0.1,0.17,0.16
		c0.07,0.07,0.14,0.13,0.22,0.2c0.06,0.05,0.12,0.1,0.17,0.15c0.07,0.07,0.15,0.13,0.23,0.19c0.06,0.05,0.12,0.1,0.18,0.15
		c0.08,0.06,0.16,0.13,0.24,0.19c0.06,0.05,0.13,0.09,0.19,0.14c0.08,0.06,0.17,0.12,0.25,0.18c0.06,0.04,0.13,0.09,0.19,0.13
		c0.09,0.06,0.18,0.12,0.27,0.18c0.06,0.04,0.12,0.08,0.19,0.12c0.1,0.06,0.2,0.12,0.3,0.18c0.06,0.03,0.12,0.07,0.18,0.11
		c0.11,0.07,0.23,0.13,0.34,0.19c0.05,0.03,0.1,0.06,0.15,0.08c0.33,0.18,0.68,0.35,1.03,0.51c0.05,0.02,0.1,0.04,0.15,0.07
		c0.13,0.06,0.25,0.11,0.38,0.17c0.07,0.03,0.13,0.05,0.2,0.08c0.11,0.05,0.23,0.09,0.34,0.14c0.07,0.03,0.15,0.05,0.23,0.08
		c0.11,0.04,0.22,0.08,0.33,0.12c0.08,0.03,0.16,0.05,0.24,0.08c0.11,0.04,0.22,0.07,0.33,0.11c0.08,0.03,0.17,0.05,0.25,0.08
		c0.11,0.03,0.22,0.07,0.33,0.1c0.09,0.02,0.17,0.05,0.26,0.07c0.11,0.03,0.22,0.06,0.33,0.09c0.09,0.02,0.18,0.05,0.27,0.06
		c0.11,0.03,0.22,0.05,0.33,0.08c0.09,0.02,0.18,0.04,0.27,0.06c0.11,0.02,0.23,0.05,0.34,0.07c0.09,0.02,0.18,0.03,0.27,0.05
		c0.11,0.02,0.23,0.04,0.35,0.06c0.09,0.01,0.18,0.03,0.27,0.04c0.12,0.02,0.23,0.03,0.35,0.05c0.09,0.01,0.18,0.02,0.27,0.04
		c0.12,0.01,0.24,0.03,0.36,0.04c0.09,0.01,0.18,0.02,0.27,0.03c0.13,0.01,0.26,0.02,0.39,0.03c0.09,0.01,0.17,0.01,0.25,0.02
		c0.14,0.01,0.28,0.01,0.43,0.02c0.07,0,0.14,0.01,0.21,0.01c0.21,0.01,0.43,0.01,0.65,0.01c0.22,0,0.44,0,0.66-0.01
		c0.07,0,0.15,0,0.22-0.01c0.15,0,0.29-0.01,0.44-0.02c0.09-0.01,0.17-0.01,0.26-0.02c0.13-0.01,0.26-0.02,0.39-0.03
		c0.09-0.01,0.19-0.02,0.27-0.03c0.12-0.01,0.25-0.02,0.37-0.04c0.09-0.01,0.19-0.02,0.28-0.03c0.12-0.02,0.24-0.03,0.35-0.05
		c0.1-0.01,0.19-0.03,0.29-0.04c0.12-0.02,0.23-0.04,0.34-0.06c0.09-0.02,0.19-0.04,0.28-0.05c0.11-0.02,0.22-0.04,0.33-0.07
		c0.09-0.02,0.19-0.04,0.28-0.06c0.11-0.02,0.22-0.05,0.33-0.08c0.09-0.02,0.19-0.05,0.28-0.07c0.11-0.03,0.22-0.05,0.32-0.08
		c0.09-0.02,0.19-0.05,0.28-0.08c0.11-0.03,0.21-0.06,0.31-0.09c0.09-0.03,0.18-0.05,0.27-0.08c0.11-0.03,0.21-0.07,0.31-0.1
		c0.09-0.03,0.17-0.06,0.26-0.09c0.1-0.04,0.21-0.07,0.31-0.11c0.09-0.03,0.17-0.06,0.25-0.09c0.1-0.04,0.21-0.08,0.31-0.13
		c0.08-0.03,0.15-0.06,0.23-0.1c0.11-0.05,0.22-0.1,0.33-0.15c0.07-0.03,0.14-0.06,0.21-0.09c0.15-0.08,0.31-0.15,0.46-0.23
		c0.06-0.03,0.12-0.06,0.18-0.09c0.13-0.07,0.25-0.13,0.38-0.2c0.07-0.04,0.13-0.08,0.2-0.12c0.1-0.05,0.19-0.11,0.29-0.17
		c0.07-0.04,0.14-0.09,0.21-0.13c0.09-0.05,0.17-0.11,0.26-0.17c0.07-0.05,0.14-0.09,0.21-0.14c0.08-0.05,0.17-0.11,0.25-0.17
		c0.07-0.05,0.14-0.1,0.21-0.15c0.08-0.06,0.16-0.11,0.24-0.17c0.07-0.05,0.13-0.1,0.2-0.16c0.07-0.06,0.15-0.12,0.22-0.18
		c0.07-0.05,0.13-0.11,0.19-0.16c0.07-0.06,0.14-0.12,0.21-0.18c0.06-0.06,0.12-0.11,0.19-0.17c0.07-0.06,0.14-0.13,0.21-0.19
		c0.06-0.06,0.12-0.11,0.18-0.17c0.07-0.07,0.13-0.13,0.19-0.2c0.06-0.06,0.11-0.12,0.17-0.18c0.06-0.07,0.12-0.14,0.18-0.21
		c0.05-0.06,0.11-0.12,0.16-0.18c0.06-0.07,0.12-0.14,0.17-0.22c0.05-0.06,0.1-0.12,0.15-0.18c0.06-0.08,0.11-0.15,0.17-0.23
		c0.04-0.06,0.09-0.12,0.13-0.18c0.06-0.08,0.11-0.17,0.17-0.25c0.04-0.06,0.07-0.11,0.11-0.17c0.06-0.1,0.12-0.19,0.17-0.29
		c0.03-0.05,0.05-0.09,0.08-0.14c0.08-0.14,0.16-0.29,0.23-0.43c8.83,3.57,16.12,10.12,21.04,18.38
		c-4.24,0.94-20.54,4.83-33.65,11.5l12.69,13.84c1.14,1.24,1.18,3.21,0.09,4.39l-0.23,0.25c-1.08,1.19-2.89,1.14-4.03-0.1
		L55.35,39.81c-2.25,1.42-4.31,2.95-6.07,4.57l8.9,9.71c0.77,0.85,0.8,2.19,0.06,2.99l-0.16,0.17c-0.74,0.81-1.97,0.78-2.75-0.07
		l-8.92-9.72c-1.36,1.76-2.35,3.62-2.85,5.58c-1.18-1.96-3.21-3.25-5.51-3.25c-3.64,0-6.6,3.23-6.6,7.19c0,3.97,2.96,7.2,6.6,7.2
		c2.56,0,4.79-1.61,5.88-3.94c2.84,8.16,14.16,17.68,39.58,28.5c-7.24,5.69-15.91,8.76-25.01,8.76
		C47.06,97.51,36.28,92.64,28.18,83.8z M42.7,56.99c0,2.79-2.08,5.05-4.63,5.05c-2.56,0-4.63-2.27-4.63-5.05
		c0-2.79,2.08-5.05,4.63-5.05C40.62,51.94,42.7,54.2,42.7,56.99z M70.6,97.87c-0.5,3.93-4.03,5.49-12.08,5.49
		c-8.24,0-11.95-1.64-12.43-5.6c3.99,1.25,8.17,1.9,12.43,1.9C62.66,99.65,66.71,99.04,70.6,97.87z M80.45,236.5
		c0.09,0.02,0.18,0.05,0.27,0.08c0.01,0,0.02,0,0.03,0.01l0.48,2.86c-0.04,2.33-1.4,4.21-3.08,4.21h-4.98v-4.17
		c0-0.45-0.54-0.81-1.22-0.81c-0.68,0-1.22,0.37-1.22,0.81v4.17h-8.93v-4.17c0-0.45-0.54-0.81-1.22-0.81
		c-0.67,0-1.22,0.37-1.22,0.81v4.17h-8.93v-4.17c0-0.45-0.54-0.82-1.22-0.82c-0.67,0-1.22,0.37-1.22,0.82v4.17h-4.98
		c-1.67,0-3.04-1.88-3.08-4.21l0.52-3.1H79.3c0.11,0,0.23,0,0.34,0.01c0.03,0,0.06,0.01,0.09,0.01c0.1,0.01,0.2,0.02,0.3,0.04
		c0.01,0,0.02,0,0.03,0c0.11,0.02,0.21,0.04,0.32,0.06C80.4,236.49,80.42,236.5,80.45,236.5z M76.77,224.87
		c1.49,0,2.76,1.97,2.76,4.31v0.1l0.84,5.03c-0.01,0-0.01,0-0.01,0c-0.15-0.03-0.3-0.04-0.46-0.06c-0.04,0-0.08-0.01-0.12-0.01
		c-0.16-0.01-0.32-0.02-0.48-0.02H40.83l0.83-4.94v-0.1c0-2.34,1.26-4.31,2.76-4.31h2.06h23.37H76.77z M60.67,199.93H44.07v-5.14
		h13.69c0.54,0,0.98-0.48,0.98-1.07c0-0.59-0.44-1.07-0.98-1.07H44.07v-5.14h10.78c0.54,0,0.98-0.48,0.98-1.07
		c0-0.59-0.44-1.07-0.98-1.07H44.07v-5.14h7.88c0.54,0,0.98-0.48,0.98-1.07c0-0.59-0.44-1.07-0.98-1.07h-7.88V162.4h0.2v-2.14h-0.2
		v-3.29h4.79h19.31h4.07v3.29h-0.18v2.14h0.18v58.52c0,0.98-1.1,1.81-2.4,1.81H46.48c-1.3,0-2.4-0.83-2.4-1.81v-18.85h16.59
		c0.54,0,0.98-0.48,0.98-1.07C61.65,200.41,61.21,199.93,60.67,199.93z M78.89,137.7v15.16c0,1.08-0.81,1.96-1.8,1.96h-3.86h-5.06
		H48.86h-5.77h-3.15c-0.99,0-1.8-0.88-1.8-1.96v-17.71V102.7v-8.36c1.92,1.07,3.9,1.98,5.93,2.73c0.08,3.29,1.62,5.63,4.58,6.96
		c2.27,1.02,5.31,1.47,9.87,1.47c6.86,0,13.86-1,14.1-8.3c2.16-0.78,4.25-1.73,6.28-2.86v20.96l-23.11-7.8
		c-0.49-0.17-1.02,0.12-1.21,0.64l-4.88,14.06c-0.18,0.53,0.04,1.12,0.52,1.35L78.89,137.7C78.89,137.7,78.89,137.7,78.89,137.7z
		 M79.86,135.82l-28-13.79l4.23-12.18l29.35,9.91L79.86,135.82z M98.92,141.05C98.92,141.05,98.92,141.05,98.92,141.05l-1.23,3.55
		l-6.65-3.27l-9.39-4.63l5.66-16.31l9.86,3.33l6.95,2.35l-1.95,5.61L98.92,141.05z M113.26,146.65c-5.57,0-10.33-1.29-11.65-1.68
		c-0.42-0.12-0.67-0.49-0.8-0.77c-0.31-0.66-0.33-1.58-0.05-2.39l1.64-4.72l9.85,4.07c0.11,0.05,0.23,0.07,0.35,0.07
		c0.39,0,0.77-0.26,0.92-0.69c0.19-0.55-0.06-1.17-0.57-1.38l-9.85-4.07l1.64-4.72c0.37-1.07,1.23-1.82,2.1-1.82
		c0.19,0,0.37,0.04,0.54,0.11l14.87,6.14c-1.9,0.9-2.76,3.49-1.93,5.88l0.04,0.1c0.69,1.48,1.64,2.76,2.82,3.85
		C120.14,146.21,116.42,146.65,113.26,146.65z M149.19,144.19c-0.13,0.28-0.38,0.65-0.8,0.77c-1.32,0.39-6.07,1.68-11.65,1.68
		c-3.16,0-6.88-0.44-9.91-2.02c1.19-1.08,2.14-2.37,2.82-3.85l0.04-0.1c0.83-2.4-0.04-4.99-1.93-5.88l14.86-6.14
		c0.17-0.07,0.36-0.11,0.55-0.11c0.86,0,1.72,0.75,2.09,1.82l1.64,4.72l-9.85,4.07c-0.51,0.21-0.76,0.83-0.57,1.38
		c0.15,0.43,0.52,0.69,0.92,0.69c0.12,0,0.23-0.02,0.35-0.07l9.85-4.07l1.64,4.72C149.52,142.61,149.5,143.53,149.19,144.19z
		 M158.96,141.33l-6.65,3.27l-6.44-18.54l6.95-2.35l9.86-3.33l5.67,16.31L158.96,141.33z M170.14,135.82l-5.58-16.06l29.35-9.91
		l4.23,12.18L170.14,135.82z M210.04,239.46c-0.03,2.33-1.4,4.21-3.07,4.21h-4.98v-4.17c0-0.45-0.54-0.82-1.22-0.82
		c-0.67,0-1.22,0.37-1.22,0.82v4.17h-8.93v-4.17c0-0.45-0.55-0.81-1.22-0.81c-0.67,0-1.22,0.37-1.22,0.81v4.17h-8.93v-4.17
		c0-0.45-0.55-0.81-1.22-0.81c-0.67,0-1.22,0.37-1.22,0.81v4.17h-4.98c-1.67,0-3.04-1.88-3.07-4.21l0.48-2.86
		c0.01,0,0.02-0.01,0.03-0.01c0.09-0.03,0.18-0.06,0.27-0.08c0.03-0.01,0.05-0.01,0.08-0.02c0.1-0.02,0.21-0.05,0.31-0.06
		c0.01,0,0.02,0,0.03,0c0.1-0.02,0.2-0.03,0.3-0.04c0.03,0,0.06-0.01,0.09-0.01c0.11-0.01,0.23-0.01,0.34-0.01h38.83L210.04,239.46z
		 M208.34,229.18v0.1l0.82,4.94H170.7c-0.16,0-0.32,0.01-0.48,0.02c-0.04,0-0.08,0-0.12,0.01c-0.16,0.01-0.31,0.03-0.46,0.06
		c0,0-0.01,0-0.01,0l0.84-5.03v-0.1c0-2.34,1.26-4.31,2.76-4.31h6.93h23.37h2.06C207.08,224.87,208.34,226.85,208.34,229.18z
		 M177.75,160.25v-3.29h4.07h19.31h4.79v3.29h-0.2v2.14h0.2v15.69h-7.88c-0.54,0-0.98,0.48-0.98,1.07c0,0.59,0.44,1.07,0.98,1.07
		h7.88v5.14h-10.78c-0.54,0-0.98,0.48-0.98,1.07c0,0.59,0.44,1.07,0.98,1.07h10.78v5.14h-13.69c-0.54,0-0.98,0.48-0.98,1.07
		c0,0.59,0.44,1.07,0.98,1.07h13.69v5.14h-16.59c-0.54,0-0.98,0.48-0.98,1.07c0,0.59,0.44,1.07,0.98,1.07h16.59v18.85
		c0,0.98-1.1,1.81-2.4,1.81h-23.37c-1.3,0-2.4-0.83-2.4-1.81V162.4h0.18v-2.14H177.75z M211.86,102.7v32.45v17.71
		c0,1.08-0.81,1.96-1.8,1.96h-3.15h-5.77h-19.31h-5.06h-3.86c-1,0-1.81-0.88-1.81-1.96v-15.17l28.69-14.13
		c0.47-0.23,0.7-0.82,0.52-1.35l-4.88-14.06c-0.19-0.53-0.72-0.81-1.21-0.64l-23.11,7.8V94.34c2.03,1.12,4.12,2.08,6.28,2.86
		c0.24,7.3,7.24,8.3,14.1,8.3c4.55,0,7.59-0.45,9.87-1.47c2.96-1.33,4.5-3.67,4.58-6.96c2.04-0.75,4.02-1.66,5.93-2.73V102.7z
		 M179.4,97.87c3.89,1.18,7.94,1.79,12.08,1.79c4.26,0,8.44-0.65,12.43-1.9c-0.48,3.97-4.18,5.61-12.43,5.61
		C183.43,103.36,179.9,101.8,179.4,97.87z M191.48,97.51c-9.1,0-17.77-3.07-25.01-8.76c25.43-10.82,36.74-20.34,39.58-28.5
		c1.09,2.33,3.32,3.94,5.88,3.94c3.64,0,6.6-3.23,6.6-7.2c0-3.97-2.96-7.19-6.6-7.19c-2.3,0-4.33,1.3-5.51,3.25
		c-0.5-1.96-1.49-3.82-2.85-5.58l-8.92,9.72c-0.78,0.85-2,0.88-2.74,0.07l-0.15-0.17c-0.74-0.81-0.72-2.15,0.06-2.99l8.9-9.71
		c-1.75-1.62-3.81-3.15-6.07-4.57l-14.01,15.28c-1.14,1.24-2.94,1.29-4.03,0.1l-0.23-0.25c-1.09-1.19-1.05-3.15,0.09-4.39
		l12.69-13.84c-13.11-6.67-29.42-10.55-33.65-11.5c4.92-8.26,12.21-14.8,21.04-18.38c0.07,0.15,0.15,0.29,0.23,0.43
		c0.02,0.05,0.05,0.09,0.08,0.14c0.06,0.1,0.12,0.2,0.18,0.29c0.03,0.06,0.07,0.11,0.11,0.17c0.06,0.08,0.11,0.17,0.17,0.25
		c0.04,0.06,0.09,0.12,0.13,0.18c0.05,0.08,0.11,0.15,0.17,0.23c0.05,0.06,0.09,0.12,0.14,0.18c0.06,0.08,0.12,0.15,0.18,0.22
		c0.05,0.06,0.1,0.12,0.15,0.18c0.06,0.07,0.12,0.14,0.19,0.21c0.05,0.06,0.11,0.12,0.17,0.17c0.06,0.07,0.13,0.13,0.19,0.2
		c0.06,0.06,0.12,0.11,0.17,0.17c0.07,0.07,0.14,0.13,0.21,0.19c0.06,0.06,0.13,0.11,0.19,0.17c0.07,0.06,0.14,0.12,0.21,0.18
		c0.07,0.05,0.13,0.11,0.19,0.16c0.07,0.06,0.15,0.12,0.23,0.18c0.07,0.05,0.13,0.1,0.2,0.15c0.08,0.06,0.16,0.12,0.24,0.17
		c0.07,0.05,0.14,0.1,0.21,0.15c0.08,0.06,0.17,0.11,0.25,0.17c0.07,0.05,0.14,0.1,0.21,0.14c0.09,0.06,0.17,0.11,0.26,0.17
		c0.07,0.04,0.14,0.09,0.21,0.13c0.09,0.06,0.19,0.11,0.29,0.17c0.07,0.04,0.13,0.08,0.2,0.11c0.13,0.07,0.25,0.13,0.38,0.2
		c0.06,0.03,0.12,0.06,0.18,0.09c0.15,0.07,0.3,0.15,0.46,0.22c0.07,0.03,0.14,0.06,0.21,0.09c0.11,0.05,0.22,0.1,0.33,0.15
		c0.08,0.03,0.16,0.07,0.24,0.1c0.1,0.04,0.21,0.08,0.31,0.12c0.08,0.03,0.17,0.06,0.25,0.1c0.1,0.04,0.21,0.08,0.31,0.11
		c0.09,0.03,0.17,0.06,0.26,0.09c0.1,0.03,0.21,0.07,0.31,0.1c0.09,0.03,0.18,0.06,0.27,0.08c0.11,0.03,0.21,0.06,0.32,0.09
		c0.09,0.03,0.18,0.05,0.27,0.08c0.11,0.03,0.21,0.06,0.32,0.08c0.09,0.02,0.19,0.05,0.28,0.07c0.11,0.02,0.22,0.05,0.33,0.08
		c0.09,0.02,0.19,0.04,0.28,0.06c0.11,0.02,0.22,0.04,0.33,0.07c0.1,0.02,0.19,0.04,0.29,0.05c0.11,0.02,0.23,0.04,0.34,0.06
		c0.1,0.01,0.19,0.03,0.29,0.04c0.12,0.02,0.24,0.03,0.35,0.05c0.1,0.01,0.19,0.02,0.28,0.03c0.12,0.02,0.24,0.03,0.37,0.04
		c0.09,0.01,0.19,0.02,0.27,0.03c0.13,0.01,0.26,0.02,0.39,0.03c0.09,0.01,0.17,0.01,0.26,0.02c0.15,0.01,0.29,0.01,0.44,0.02
		c0.07,0,0.15,0.01,0.22,0.01c0.22,0.01,0.44,0.01,0.66,0.01c0.22,0,0.43,0,0.65-0.01c0.07,0,0.15,0,0.22-0.01
		c0.14-0.01,0.29-0.01,0.43-0.02c0.09,0,0.17-0.01,0.26-0.02c0.13-0.01,0.25-0.02,0.38-0.03c0.09-0.01,0.18-0.02,0.27-0.02
		c0.13-0.01,0.25-0.03,0.37-0.04c0.09-0.01,0.18-0.02,0.27-0.04c0.12-0.01,0.24-0.03,0.35-0.05c0.09-0.01,0.18-0.03,0.27-0.04
		c0.12-0.02,0.23-0.04,0.35-0.06c0.09-0.02,0.18-0.03,0.27-0.05c0.11-0.02,0.23-0.04,0.34-0.07c0.09-0.02,0.18-0.04,0.27-0.06
		c0.11-0.02,0.22-0.05,0.33-0.08c0.09-0.02,0.18-0.04,0.27-0.06c0.11-0.03,0.22-0.06,0.33-0.09c0.09-0.02,0.17-0.05,0.26-0.07
		c0.11-0.03,0.22-0.06,0.33-0.1c0.08-0.02,0.17-0.05,0.25-0.07c0.11-0.04,0.22-0.07,0.33-0.11c0.08-0.03,0.15-0.05,0.23-0.08
		c0.11-0.04,0.22-0.08,0.34-0.12c0.07-0.03,0.14-0.06,0.22-0.08c0.12-0.05,0.23-0.09,0.35-0.14c0.06-0.03,0.13-0.05,0.19-0.08
		c0.13-0.06,0.26-0.11,0.39-0.17c0.05-0.02,0.1-0.04,0.14-0.06c0.35-0.16,0.7-0.33,1.03-0.51c0.05-0.02,0.09-0.05,0.14-0.08
		c0.12-0.07,0.24-0.13,0.35-0.2c0.06-0.03,0.12-0.07,0.17-0.1c0.1-0.06,0.21-0.12,0.3-0.18c0.06-0.04,0.12-0.08,0.18-0.12
		c0.1-0.06,0.19-0.12,0.28-0.18c0.06-0.04,0.12-0.09,0.18-0.13c0.09-0.06,0.18-0.12,0.26-0.19c0.06-0.05,0.12-0.09,0.18-0.14
		c0.08-0.06,0.17-0.12,0.24-0.19c0.06-0.05,0.12-0.09,0.18-0.14c0.08-0.06,0.15-0.13,0.23-0.19c0.06-0.05,0.12-0.1,0.17-0.15
		c0.07-0.07,0.15-0.13,0.22-0.2c0.06-0.05,0.11-0.1,0.16-0.16c0.07-0.07,0.14-0.14,0.21-0.21c0.05-0.05,0.11-0.11,0.15-0.16
		c0.07-0.07,0.13-0.15,0.2-0.22c0.05-0.05,0.1-0.11,0.15-0.16c0.07-0.07,0.13-0.15,0.19-0.22c0.04-0.05,0.09-0.11,0.13-0.16
		c0.06-0.08,0.12-0.16,0.18-0.24c0.04-0.05,0.08-0.11,0.12-0.16c0.06-0.09,0.12-0.17,0.18-0.26c0.03-0.05,0.07-0.1,0.1-0.15
		c0.07-0.1,0.13-0.2,0.19-0.3c0.03-0.04,0.05-0.08,0.07-0.12c0.09-0.14,0.17-0.28,0.24-0.43c7.89,3.28,14.65,8.98,19.6,16.52
		c5.23,7.97,7.99,17.37,7.99,27.2c0,12.5-4.46,24.25-12.57,33.09C213.72,92.64,202.94,97.51,191.48,97.51z M207.3,56.99
		c0-2.79,2.08-5.05,4.63-5.05c2.56,0,4.64,2.27,4.64,5.05c0,2.79-2.08,5.05-4.64,5.05C209.38,62.04,207.3,59.78,207.3,56.99z
		 M235.42,135.15c0,0.29-0.05,0.51-0.1,0.63h-21.39c-0.05-0.13-0.11-0.35-0.11-0.63V102.7v-9.52c1.77-1.11,3.47-2.36,5.1-3.74
		c0.01,0.58,0.45,1.05,0.98,1.05h9.43c0.54,0,0.98-0.48,0.98-1.07c0-0.59-0.44-1.07-0.98-1.07h-9.17c1.05-0.96,2.07-1.97,3.05-3.03
		c2.66-2.9,4.93-6.09,6.82-9.51h5.29c0.05,0.13,0.1,0.35,0.1,0.63V135.15z"/>
</g>
<g>
	<g>
		<path class="st1" d="M38.07,64.19c2.56,0,4.79-1.61,5.88-3.94c2.84,8.16,14.16,17.68,39.58,28.5c1,0.53,1.36,0.63,2,1.02
			c1.82-1.46,3.09-2.68,4.72-4.45c8.48-9.24,13.14-21.53,13.14-34.61c0-9.17-2.36-17.9-6.53-25.39c-0.42-0.11-0.84-0.11-1.34-0.11
			c-0.53,0-1.04-0.01-1.47,0.09c-4.82,1.09-20.52,4.94-33.22,11.4l12.69,13.84c1.14,1.24,1.18,3.21,0.09,4.39l-0.23,0.25
			c-1.08,1.19-2.89,1.14-4.03-0.1L55.35,39.81c-2.25,1.42-4.31,2.95-6.07,4.57l8.9,9.71c0.77,0.85,0.8,2.19,0.06,2.99l-0.16,0.17
			c-0.74,0.81-1.97,0.78-2.75-0.07l-8.92-9.72c-1.36,1.76-2.35,3.62-2.85,5.58c-1.18-1.96-3.21-3.25-5.51-3.25
			c-3.64,0-6.6,3.23-6.6,7.19C31.47,60.96,34.43,64.19,38.07,64.19z M38.07,51.94c2.55,0,4.63,2.27,4.63,5.05
			c0,2.79-2.08,5.05-4.63,5.05c-2.56,0-4.63-2.27-4.63-5.05C33.43,54.2,35.51,51.94,38.07,51.94z"/>
		<path class="st1" d="M164.21,89.59c0.81-0.25,1.92-0.6,1.84-0.66c25.43-10.82,37.16-20.52,40-28.68c1.09,2.33,3.32,3.94,5.88,3.94
			c3.64,0,6.6-3.23,6.6-7.2c0-3.97-2.96-7.19-6.6-7.19c-2.3,0-4.33,1.3-5.51,3.25c-0.5-1.96-1.49-3.82-2.85-5.58l-8.92,9.72
			c-0.78,0.85-2,0.88-2.74,0.07l-0.15-0.17c-0.74-0.81-0.72-2.15,0.06-2.99l8.9-9.71c-1.75-1.62-3.81-3.15-6.07-4.57l-14.02,15.28
			c-1.14,1.24-2.94,1.29-4.03,0.1l-0.23-0.25c-1.09-1.19-1.05-3.15,0.09-4.39l12.69-13.84c-11.91-6.06-26.47-9.82-32.2-11.17
			c-1.69-0.4-2.43-0.56-3.47-0.85c-4.39,7.63-6.88,16.59-6.88,26.02c0,13.07,4.67,25.36,13.14,34.61
			C161.16,86.86,162.65,88.28,164.21,89.59z M211.93,51.94c2.56,0,4.64,2.27,4.64,5.05c0,2.79-2.08,5.05-4.64,5.05
			c-2.55,0-4.63-2.27-4.63-5.05C207.3,54.2,209.38,51.94,211.93,51.94z"/>
	</g>
</g>
<path class="st1" d="M166.69,88.93"/>
</svg>
