<?xml version="1.0" encoding="utf-8"?>
<!-- Generator: Adobe Illustrator 23.0.3, SVG Export Plug-In . SVG Version: 6.00 Build 0)  -->
<svg version="1.1" id="Ebene_1" xmlns="http://www.w3.org/2000/svg" xmlns:xlink="http://www.w3.org/1999/xlink" x="0px" y="0px"
	 viewBox="0 0 250 250" style="enable-background:new 0 0 250 250;" xml:space="preserve">
<style type="text/css">
	.st0{fill:#FFFFFF;}
	.st1{fill:#D49F00;}
</style>
<g>
	<path class="st0" d="M190.48,90.15c-2.15-0.73-4.42-0.71-6.52,0.04l-0.29-0.58c-0.87-1.76-2.75-2.85-4.93-2.85
		c-1.03,0-2.08,0.25-3.04,0.72l-2.25,1.11c-1.45,0.72-2.59,1.88-3.2,3.27c-0.65,1.46-0.63,3.01,0.03,4.34l0.77,1.56
		c-1.02-0.43-2.11-0.67-3.2-0.67c-1.12,0-2.19,0.25-3.18,0.74l-81.07,39.93c-1.99,0.98-3.4,2.81-3.97,5.15
		c-0.16,0.64-0.24,1.31-0.26,1.97c-0.64-0.34-1.32-0.54-2-0.54c-0.52,0-1.01,0.11-1.46,0.34l-10.6,5.22
		c-1.59,0.78-2.29,2.71-1.93,4.86c-0.42,0.01-0.81,0.11-1.17,0.29l-7.24,3.56c-1.61,0.79-2.16,2.97-1.23,4.86l1.52,3.09
		c0.68,1.39,1.99,2.28,3.33,2.28c0.45,0,0.88-0.1,1.27-0.29l7.23-3.57c0.37-0.18,0.68-0.44,0.95-0.75c1.04,1.11,2.31,1.76,3.57,1.76
		c0.52,0,1.01-0.11,1.46-0.34l10.6-5.22c1.07-0.53,1.74-1.58,1.95-2.87c1.51,1.1,3.26,1.73,5.05,1.73c1.12,0,2.19-0.25,3.18-0.74
		l25.33-12.48c-0.15,0.55-0.22,1.12-0.22,1.71c0,3.15,2.12,5.81,5.02,6.63l-44.48,82.74c-0.31,0.58-0.09,1.31,0.49,1.63
		c0.18,0.1,0.37,0.14,0.57,0.14c0.42,0,0.85-0.23,1.06-0.63l21.1-39.25l21.93,8.64v30.04c0,0.66,0.53,1.2,1.2,1.2
		c0.66,0,1.2-0.54,1.2-1.2v-30.23l18.92-8.39l18.4,39.13c0.2,0.44,0.64,0.69,1.09,0.69c0.17,0,0.34-0.04,0.51-0.12
		c0.6-0.28,0.85-1,0.57-1.6l-38.9-82.76c2.94-0.79,5.11-3.48,5.11-6.66c0-2.84-1.72-5.28-4.18-6.34l46.34-22.83
		c1.95-0.96,3.34-2.74,3.93-5.02l0.77,1.56c0.86,1.76,2.75,2.85,4.92,2.85c1.04,0,2.09-0.25,3.05-0.72l2.25-1.11
		c1.45-0.72,2.6-1.88,3.2-3.28c0.64-1.46,0.63-3.01-0.03-4.34l-0.29-0.58c4.17-2.72,5.76-8.21,3.51-12.78
		C195.05,92.8,193.01,91.01,190.48,90.15z M58.6,166.44c-0.35,0-0.87-0.32-1.18-0.94l-1.52-3.09c-0.36-0.72-0.22-1.47,0.14-1.65
		l0.38-0.19l2.77,5.62l-0.37,0.18C58.75,166.42,58.68,166.44,58.6,166.44z M66.36,162.33c-0.03,0.14-0.11,0.39-0.32,0.5l-4.7,2.32
		l-2.77-5.62l4.7-2.32c0.06-0.03,0.13-0.05,0.21-0.05c0.36,0,0.87,0.32,1.18,0.93l0.94,1.92l0.58,1.17
		C66.37,161.56,66.44,161.98,66.36,162.33z M82.61,158.28l-10.59,5.22c-0.12,0.06-0.25,0.09-0.4,0.09c-0.78,0-1.96-0.8-2.71-2.31
		l-1.16-2.34l-0.93-1.9c0,0,0,0-0.01-0.01l-0.57-1.14c-0.84-1.73-0.63-3.44,0.14-3.82l10.59-5.22c0.12-0.06,0.25-0.09,0.4-0.09
		c0.78,0,1.97,0.79,2.71,2.31l0.4,0.82c0,0.01,0,0.01,0.01,0.01l1.3,2.65l0.94,1.91C83.59,156.19,83.37,157.9,82.61,158.28z
		 M103.88,196.9l20.79-38.66v46.85L103.88,196.9z M127.07,204.86v-46.01l17.89,38.07L127.07,204.86z M125.87,143.29
		c2.47,0,4.49,2.02,4.49,4.49c0,2.47-2.01,4.49-4.49,4.49c-2.47,0-4.49-2.02-4.49-4.49c0-1.69,0.94-3.16,2.33-3.93l0.35-0.17
		C124.6,143.43,125.22,143.29,125.87,143.29z M176.55,112.9c-0.39,1.64-1.35,2.9-2.69,3.57l-50.81,25.02
		c-0.16,0.07-0.32,0.15-0.48,0.24L92.79,156.4c-0.66,0.32-1.37,0.49-2.12,0.49c-2.47,0-4.89-1.69-6.19-4.32l-0.92-1.86l-0.92-1.88
		c-0.85-1.73-1.09-3.63-0.67-5.34c0.4-1.63,1.36-2.9,2.7-3.56l81.07-39.93c0.65-0.32,1.37-0.49,2.11-0.49c2.47,0,4.89,1.7,6.18,4.32
		l1.84,3.73C176.73,109.28,176.97,111.19,176.55,112.9z M190.84,111.95c-0.38,0.88-1.11,1.61-2.06,2.08l-2.25,1.11
		c-0.63,0.31-1.31,0.48-1.98,0.48c-1.26,0-2.3-0.56-2.77-1.51l-9.34-18.97c-0.34-0.69-0.33-1.51,0.02-2.32
		c0.38-0.87,1.11-1.61,2.06-2.08l2.25-1.11c0.63-0.31,1.32-0.48,1.98-0.48c1.26,0,2.31,0.58,2.78,1.51l9.34,18.96
		C191.2,110.32,191.19,111.14,190.84,111.95z M191.66,105.81l-6.63-13.44c1.52-0.47,3.14-0.45,4.68,0.07
		c1.92,0.65,3.47,2.01,4.37,3.83C195.74,99.65,194.64,103.69,191.66,105.81z"/>
	<path class="st1" d="M73.47,91.99c0,0.66,0.54,1.21,1.2,1.21c0.66,0,1.2-0.54,1.2-1.21v-4.28l3.03,3.02
		c0.23,0.24,0.54,0.35,0.85,0.35c0.31,0,0.61-0.12,0.85-0.35c0.47-0.47,0.47-1.23,0-1.7l-3.02-3.03h4.28c0.66,0,1.2-0.54,1.2-1.2
		c0-0.66-0.54-1.2-1.2-1.2h-4.28l3.02-3.03c0.47-0.47,0.47-1.23,0-1.7c-0.47-0.47-1.23-0.47-1.7,0l-3.03,3.02v-4.28
		c0-0.66-0.54-1.2-1.2-1.2c-0.67,0-1.2,0.54-1.2,1.2v4.28l-3.03-3.03c-0.47-0.47-1.23-0.47-1.7,0c-0.47,0.47-0.47,1.23,0,1.7
		l3.03,3.03H67.5c-0.67,0-1.2,0.54-1.2,1.2c0,0.66,0.53,1.2,1.2,1.2h4.28l-3.03,3.03c-0.47,0.47-0.47,1.23,0,1.7
		c0.24,0.24,0.55,0.35,0.85,0.35c0.31,0,0.61-0.12,0.85-0.35l3.03-3.02V91.99z"/>
	<path class="st1" d="M118.1,80.99h4.28l-3.03,3.02c-0.47,0.47-0.47,1.23,0,1.7c0.23,0.23,0.54,0.35,0.85,0.35
		c0.31,0,0.61-0.12,0.85-0.35l3.02-3.03v4.28c0,0.66,0.54,1.2,1.2,1.2c0.66,0,1.2-0.54,1.2-1.2v-4.28l3.03,3.03
		c0.23,0.23,0.54,0.35,0.85,0.35c0.31,0,0.61-0.12,0.85-0.35c0.47-0.47,0.47-1.23,0-1.7l-3.02-3.02h4.28c0.66,0,1.2-0.54,1.2-1.21
		c0-0.66-0.54-1.2-1.2-1.2h-4.28l3.02-3.02c0.47-0.47,0.47-1.23,0-1.7c-0.47-0.47-1.23-0.47-1.7,0l-3.03,3.02v-4.28
		c0-0.67-0.54-1.2-1.2-1.2c-0.66,0-1.2,0.54-1.2,1.2v4.28l-3.02-3.02c-0.47-0.47-1.23-0.47-1.7,0c-0.47,0.47-0.47,1.23,0,1.7
		l3.03,3.02h-4.28c-0.67,0-1.21,0.54-1.21,1.2C116.89,80.45,117.43,80.99,118.1,80.99z"/>
	<path class="st1" d="M36.07,134.36h4.28l-3.03,3.02c-0.47,0.47-0.47,1.23,0,1.7c0.24,0.23,0.55,0.35,0.85,0.35
		c0.31,0,0.61-0.12,0.85-0.35l3.03-3.03v4.28c0,0.66,0.53,1.2,1.2,1.2c0.66,0,1.2-0.54,1.2-1.2v-4.28l3.02,3.03
		c0.23,0.23,0.55,0.35,0.85,0.35c0.31,0,0.61-0.12,0.85-0.35c0.47-0.47,0.47-1.23,0-1.7l-3.02-3.02h4.28c0.66,0,1.2-0.54,1.2-1.2
		s-0.54-1.2-1.2-1.2h-4.28l3.02-3.02c0.47-0.47,0.47-1.23,0-1.7c-0.47-0.47-1.23-0.47-1.7,0l-3.02,3.03v-4.28
		c0-0.66-0.54-1.2-1.2-1.2c-0.67,0-1.2,0.54-1.2,1.2v4.28l-3.03-3.03c-0.47-0.47-1.23-0.47-1.7,0c-0.47,0.47-0.47,1.23,0,1.7
		l3.03,3.02h-4.28c-0.66,0-1.2,0.54-1.2,1.2S35.4,134.36,36.07,134.36z"/>
	<path class="st1" d="M148.68,50.18h4.28l-3.02,3.02c-0.47,0.47-0.47,1.23,0,1.7c0.23,0.24,0.54,0.35,0.85,0.35
		c0.31,0,0.61-0.12,0.85-0.35l3.02-3.02v4.28c0,0.66,0.54,1.2,1.2,1.2c0.67,0,1.2-0.54,1.2-1.2v-4.28l3.03,3.02
		c0.23,0.24,0.54,0.35,0.85,0.35c0.31,0,0.61-0.12,0.85-0.35c0.46-0.47,0.46-1.23,0-1.7l-3.03-3.02h4.28c0.67,0,1.2-0.54,1.2-1.2
		c0-0.66-0.53-1.2-1.2-1.2h-4.28l3.03-3.02c0.46-0.47,0.46-1.23,0-1.7c-0.47-0.47-1.24-0.47-1.7,0l-3.03,3.03V41.8
		c0-0.66-0.54-1.2-1.2-1.2c-0.66,0-1.2,0.54-1.2,1.2v4.28l-3.02-3.03c-0.47-0.47-1.23-0.47-1.7,0c-0.47,0.47-0.47,1.23,0,1.7
		l3.02,3.02h-4.28c-0.66,0-1.2,0.54-1.2,1.2C147.47,49.64,148.01,50.18,148.68,50.18z"/>
	<path class="st1" d="M7.2,60.32h4.28l-3.02,3.03c-0.47,0.47-0.47,1.23,0,1.7C8.69,65.28,9,65.4,9.3,65.4
		c0.31,0,0.62-0.12,0.85-0.35l3.02-3.02v4.28c0,0.66,0.54,1.2,1.2,1.2c0.67,0,1.2-0.54,1.2-1.2v-4.28l3.02,3.02
		c0.24,0.23,0.55,0.35,0.85,0.35c0.31,0,0.62-0.12,0.85-0.35c0.47-0.47,0.47-1.23,0-1.7l-3.02-3.03h4.28c0.66,0,1.2-0.54,1.2-1.2
		s-0.54-1.21-1.2-1.21h-4.28l3.02-3.02c0.47-0.47,0.47-1.23,0-1.7c-0.46-0.47-1.23-0.47-1.7,0l-3.02,3.03v-4.28
		c0-0.66-0.54-1.2-1.2-1.2c-0.67,0-1.2,0.54-1.2,1.2v4.28l-3.02-3.03c-0.47-0.47-1.23-0.47-1.7,0c-0.47,0.47-0.47,1.23,0,1.7
		l3.02,3.02H7.2c-0.66,0-1.2,0.54-1.2,1.21S6.54,60.32,7.2,60.32z"/>
	<path class="st1" d="M84.26,28.79h4.28l-3.03,3.02c-0.47,0.47-0.47,1.23,0,1.7c0.24,0.23,0.54,0.35,0.85,0.35
		c0.31,0,0.61-0.12,0.85-0.35l3.03-3.03v4.28c0,0.66,0.53,1.2,1.2,1.2c0.66,0,1.2-0.54,1.2-1.2v-4.28l3.02,3.03
		c0.24,0.23,0.54,0.35,0.85,0.35c0.31,0,0.61-0.12,0.84-0.35c0.47-0.47,0.47-1.23,0-1.7l-3.02-3.02h4.28c0.66,0,1.2-0.54,1.2-1.2
		c0-0.66-0.54-1.2-1.2-1.2h-4.28l3.02-3.02c0.47-0.47,0.47-1.23,0-1.7c-0.47-0.47-1.22-0.47-1.7,0l-3.02,3.03v-4.28
		c0-0.66-0.54-1.2-1.2-1.2c-0.67,0-1.2,0.54-1.2,1.2v4.28l-3.03-3.03c-0.47-0.47-1.23-0.47-1.7,0c-0.47,0.47-0.47,1.23,0,1.7
		l3.03,3.02h-4.28c-0.66,0-1.2,0.54-1.2,1.2C83.06,28.25,83.59,28.79,84.26,28.79z"/>
	<path class="st0" d="M217.12,24.37c-14.82,0-26.88,12.06-26.88,26.88c0,14.82,12.06,26.88,26.88,26.88
		c14.82,0,26.88-12.06,26.88-26.88C244,36.42,231.94,24.37,217.12,24.37z M217.12,76.56c-13.95,0-25.31-11.35-25.31-25.31
		c0-13.96,11.36-25.31,25.31-25.31c13.95,0,25.31,11.35,25.31,25.31C242.43,65.2,231.07,76.56,217.12,76.56z"/>
	<path class="st0" d="M204.44,46.68c-4.76,0-8.65,3.88-8.65,8.65c0,4.77,3.88,8.65,8.65,8.65c4.77,0,8.65-3.88,8.65-8.65
		C213.09,50.56,209.21,46.68,204.44,46.68z M204.44,62.4c-3.9,0-7.07-3.17-7.07-7.07c0-3.9,3.17-7.07,7.07-7.07
		c3.9,0,7.08,3.17,7.08,7.07C211.52,59.23,208.34,62.4,204.44,62.4z"/>
	<path class="st0" d="M222.3,32.3c0-2.34-1.9-4.25-4.24-4.25c-2.34,0-4.25,1.91-4.25,4.25c0,2.34,1.91,4.24,4.25,4.24
		C220.4,36.54,222.3,34.64,222.3,32.3z M218.06,34.97c-1.47,0-2.67-1.2-2.67-2.67c0-1.48,1.2-2.67,2.67-2.67
		c1.47,0,2.67,1.2,2.67,2.67C220.73,33.77,219.53,34.97,218.06,34.97z"/>
	<path class="st0" d="M232.45,47.79c-2.68,0-4.87,2.18-4.87,4.87c0,2.69,2.19,4.88,4.87,4.88s4.87-2.19,4.87-4.88
		C237.32,49.98,235.14,47.79,232.45,47.79z M232.45,55.97c-1.82,0-3.3-1.48-3.3-3.3c0-1.82,1.48-3.3,3.3-3.3
		c1.82,0,3.3,1.48,3.3,3.3C235.75,54.48,234.27,55.97,232.45,55.97z"/>
	<path class="st0" d="M222.74,68.23c-1.85,0-3.34,1.5-3.34,3.34c0,1.84,1.5,3.34,3.34,3.34c1.84,0,3.34-1.5,3.34-3.34
		C226.08,69.72,224.59,68.23,222.74,68.23z M222.74,73.33c-0.98,0-1.77-0.79-1.77-1.77c0-0.97,0.79-1.77,1.77-1.77
		c0.97,0,1.77,0.8,1.77,1.77C224.51,72.54,223.72,73.33,222.74,73.33z"/>
	<path class="st0" d="M201.89,45.83c1.84,0,3.34-1.5,3.34-3.34c0-1.84-1.5-3.34-3.34-3.34c-1.84,0-3.34,1.5-3.34,3.34
		C198.55,44.33,200.05,45.83,201.89,45.83z M201.89,40.72c0.97,0,1.77,0.8,1.77,1.77c0,0.97-0.8,1.77-1.77,1.77
		c-0.98,0-1.77-0.79-1.77-1.77C200.12,41.52,200.91,40.72,201.89,40.72z"/>
</g>
</svg>
