<?xml version="1.0" encoding="utf-8"?>
<!-- Generator: Adobe Illustrator 23.0.3, SVG Export Plug-In . SVG Version: 6.00 Build 0)  -->
<svg version="1.1" id="Ebene_1" xmlns="http://www.w3.org/2000/svg" xmlns:xlink="http://www.w3.org/1999/xlink" x="0px" y="0px"
	 viewBox="0 0 250 250" style="enable-background:new 0 0 250 250;" xml:space="preserve">
<style type="text/css">
	.st0{fill:#D39F02;}
	.st1{fill:#FFFFFF;}
</style>
<g>
	<g>
		<g>
			<g>
				<g>
					<g>
						<g>
							<g>
								<g>
									<g>
										<g>
											<path class="st0" d="M98.63,228.09c-0.26,0-0.53-0.1-0.74-0.32c-0.41-0.42-0.41-1.11,0-1.53c0.92-0.95,0.92-2.51,0-3.45
												c-0.92-0.96-2.41-0.96-3.33,0c-0.41,0.42-1.07,0.42-1.48,0c-0.41-0.43-0.41-1.11,0-1.54c1.73-1.8,4.55-1.8,6.28,0
												c1.74,1.8,1.74,4.72,0,6.52C99.17,227.99,98.9,228.09,98.63,228.09z"/>
										</g>
									</g>
								</g>
							</g>
						</g>
					</g>
				</g>
			</g>
		</g>
		<g>
			<g>
				<g>
					<g>
						<g>
							<g>
								<path class="st0" d="M83.17,223.12c-0.28,0-0.56-0.11-0.77-0.32c-0.43-0.43-0.43-1.11,0-1.54c0.96-0.95,0.96-2.52,0-3.47
									c-0.95-0.95-2.52-0.95-3.47,0c-0.43,0.43-1.12,0.43-1.54,0c-0.43-0.42-0.43-1.11,0-1.54c1.81-1.81,4.74-1.81,6.55,0
									c1.8,1.81,1.8,4.75,0,6.55C83.73,223.01,83.45,223.12,83.17,223.12z"/>
							</g>
						</g>
					</g>
				</g>
			</g>
		</g>
		<g>
			<g>
				<g>
					<g>
						<g>
							<g>
								<g>
									<g>
										<g>
											<g>
												<g>
													<g>
														<g>
															<g>
																<g>
																	<path class="st1" d="M98.01,168.59L98.01,168.59H81.43c-0.28,0-0.53-0.15-0.67-0.38
																		c-0.15-0.24-0.16-0.54-0.03-0.79l8.29-17.39c0.13-0.28,0.41-0.45,0.7-0.45l0,0c0.3,0,0.57,0.17,0.7,0.45
																		l8.26,17.33c0.07,0.12,0.11,0.27,0.11,0.42C98.79,168.22,98.44,168.59,98.01,168.59z M82.69,166.95h14.04
																		l-7.02-14.72L82.69,166.95z"/>
																</g>
															</g>
														</g>
													</g>
												</g>
											</g>
										</g>
									</g>
								</g>
							</g>
						</g>
					</g>
				</g>
			</g>
			<g>
				<g>
					<g>
						<g>
							<g>
								<g>
									<g>
										<g>
											<g>
												<g>
													<g>
														<g>
															<g>
																<g>
																	<path class="st1" d="M160.94,168.66c-5.09,0-9.23-4.29-9.23-9.58c0-5.28,4.14-9.58,9.23-9.58
																		c5.09,0,9.24,4.29,9.24,9.58C170.18,164.36,166.03,168.66,160.94,168.66z M160.94,151.13
																		c-4.22,0-7.65,3.57-7.65,7.95c0,4.38,3.44,7.94,7.65,7.94c4.23,0,7.66-3.57,7.66-7.94
																		C168.6,154.7,165.16,151.13,160.94,151.13z"/>
																</g>
															</g>
														</g>
													</g>
												</g>
											</g>
										</g>
									</g>
								</g>
							</g>
						</g>
					</g>
				</g>
			</g>
			<g>
				<g>
					<g>
						<g>
							<g>
								<path class="st1" d="M117.52,58.5c-3.24,0-5.89,2.74-5.89,6.12v5.04c0,3.37,2.65,6.12,5.89,6.12c3.25,0,5.9-2.75,5.9-6.12
									v-5.04C123.42,61.24,120.77,58.5,117.52,58.5z M121.76,66.28h-8.49v-1.67c0-2.43,1.9-4.41,4.24-4.41
									c2.34,0,4.25,1.98,4.25,4.41V66.28z"/>
							</g>
						</g>
					</g>
				</g>
				<g>
					<g>
						<g>
							<g>
								<path class="st1" d="M132.75,58.5c-3.25,0-5.89,2.74-5.89,6.12v5.04c0,3.37,2.65,6.12,5.89,6.12c3.25,0,5.9-2.75,5.9-6.12
									v-5.04C138.65,61.24,136,58.5,132.75,58.5z M137,66.28h-8.5v-1.67c0-2.43,1.91-4.41,4.24-4.41c2.34,0,4.25,1.98,4.25,4.41
									V66.28z"/>
							</g>
						</g>
					</g>
				</g>
				<g>
					<g>
						<g>
							<g>
								<g>
									<g>
										<g>
											<g>
												<g>
													<path class="st1" d="M134.47,121.62c0.51,0,0.93-0.43,0.93-0.96s-0.41-0.96-0.93-0.96h-8.41v-5.28h8.41
														c0.51,0,0.93-0.43,0.93-0.96c0-0.53-0.41-0.96-0.93-0.96h-8.41v-8.45c0-0.53-0.41-0.96-0.93-0.96
														c-0.51,0-0.92,0.43-0.92,0.96v8.45h-8.41c-0.51,0-0.93,0.43-0.93,0.96c0,0.53,0.42,0.96,0.93,0.96h8.41v5.28h-8.41
														c-0.51,0-0.93,0.43-0.93,0.96s0.42,0.96,0.93,0.96h8.41v5.28h-8.41c-0.51,0-0.93,0.43-0.93,0.96
														c0,0.53,0.42,0.96,0.93,0.96h8.41v5.28h-8.41c-0.51,0-0.93,0.43-0.93,0.96c0,0.53,0.42,0.96,0.93,0.96h8.41v5.28h-8.41
														c-0.51,0-0.93,0.43-0.93,0.96c0,0.53,0.42,0.96,0.93,0.96h8.41v5.28h-8.41c-0.51,0-0.93,0.43-0.93,0.96
														c0,0.53,0.42,0.96,0.93,0.96h8.41v8.45c0,0.54,0.42,0.96,0.92,0.96c0.52,0,0.93-0.43,0.93-0.96v-8.45h8.41
														c0.51,0,0.93-0.43,0.93-0.96c0-0.53-0.41-0.96-0.93-0.96h-8.41v-5.28h8.41c0.51,0,0.93-0.43,0.93-0.96
														c0-0.53-0.41-0.96-0.93-0.96h-8.41v-5.28h8.41c0.51,0,0.93-0.43,0.93-0.96c0-0.53-0.41-0.96-0.93-0.96h-8.41v-5.28
														h8.41c0.51,0,0.93-0.43,0.93-0.96c0-0.53-0.41-0.96-0.93-0.96h-8.41v-5.28H134.47z"/>
												</g>
											</g>
										</g>
									</g>
								</g>
							</g>
						</g>
					</g>
				</g>
				<g>
					<g>
						<g>
							<g>
								<g>
									<g>
										<g>
											<g>
												<g>
													<path class="st1" d="M91.94,80.77h-2.23c-0.51,0-0.93,0.43-0.93,0.96s0.42,0.96,0.93,0.96h2.23
														c0.51,0,0.93-0.43,0.93-0.96S92.45,80.77,91.94,80.77z"/>
												</g>
											</g>
										</g>
									</g>
								</g>
							</g>
						</g>
					</g>
				</g>
				<g>
					<g>
						<g>
							<g>
								<g>
									<g>
										<g>
											<g>
												<g>
													<path class="st1" d="M91.94,93.71h-2.23c-0.51,0-0.93,0.43-0.93,0.96c0,0.53,0.42,0.96,0.93,0.96h2.23
														c0.51,0,0.93-0.43,0.93-0.96C92.86,94.14,92.45,93.71,91.94,93.71z"/>
												</g>
											</g>
										</g>
									</g>
								</g>
							</g>
						</g>
					</g>
				</g>
				<g>
					<g>
						<g>
							<g>
								<g>
									<g>
										<g>
											<g>
												<g>
													<path class="st1" d="M158.34,80.77h2.23c0.51,0,0.93,0.43,0.93,0.96s-0.41,0.96-0.93,0.96h-2.23
														c-0.51,0-0.93-0.43-0.93-0.96S157.83,80.77,158.34,80.77z"/>
												</g>
											</g>
										</g>
									</g>
								</g>
							</g>
						</g>
					</g>
				</g>
				<g>
					<g>
						<g>
							<g>
								<g>
									<g>
										<g>
											<g>
												<g>
													<path class="st1" d="M158.34,93.71h2.23c0.51,0,0.93,0.43,0.93,0.96c0,0.53-0.41,0.96-0.93,0.96h-2.23
														c-0.51,0-0.93-0.43-0.93-0.96C157.41,94.14,157.83,93.71,158.34,93.71z"/>
												</g>
											</g>
										</g>
									</g>
								</g>
							</g>
						</g>
					</g>
				</g>
				<g>
					<g>
						<g>
							<g>
								<path class="st1" d="M132.13,15.14c0.16,0.33,0.49,0.52,0.82,0.52c0.14,0,0.29-0.04,0.43-0.11
									c0.45-0.24,0.63-0.82,0.39-1.29c-0.35-0.7-0.7-1.39-1.08-2.07c-0.25-0.46-0.82-0.63-1.26-0.37
									c-0.44,0.26-0.61,0.84-0.35,1.31C131.44,13.78,131.79,14.46,132.13,15.14z"/>
							</g>
						</g>
					</g>
				</g>
				<g>
					<g>
						<g>
							<g>
								<path class="st1" d="M136.37,26.06c0.12,0.42,0.49,0.69,0.89,0.69c0.08,0,0.17-0.01,0.26-0.04c0.5-0.15,0.77-0.68,0.63-1.19
									c-0.21-0.75-0.44-1.5-0.68-2.25c-0.16-0.5-0.69-0.77-1.17-0.61c-0.49,0.17-0.75,0.71-0.59,1.21
									C135.95,24.61,136.17,25.34,136.37,26.06z"/>
							</g>
						</g>
					</g>
				</g>
				<g>
					<g>
						<g>
							<g>
								<path class="st1" d="M118.59,21.5h2.23c0.51,0,0.93-0.43,0.93-0.96c0-0.53-0.42-0.96-0.93-0.96h-2.23
									c-0.51,0-0.93,0.43-0.93,0.96C117.67,21.06,118.08,21.5,118.59,21.5z"/>
							</g>
						</g>
					</g>
				</g>
				<g>
					<g>
						<g>
							<g>
								<path class="st1" d="M130.13,21.5h2.24c0.51,0,0.92-0.43,0.92-0.96c0-0.53-0.41-0.96-0.92-0.96h-2.24
									c-0.51,0-0.93,0.43-0.93,0.96C129.21,21.06,129.62,21.5,130.13,21.5z"/>
							</g>
						</g>
					</g>
				</g>
				<g>
					<g>
						<g>
							<g>
								<path class="st1" d="M184.96,154.66l-11.92-12.21V41.08c0-14.02-8.27-22.25-8.62-22.6c-0.02-0.02-0.04-0.03-0.06-0.04
									c-0.02-0.02-0.04-0.04-0.06-0.05c-0.03-0.02-0.06-0.03-0.09-0.05c-0.03-0.01-0.05-0.03-0.07-0.04
									c-0.03-0.01-0.06-0.02-0.1-0.03c-0.03-0.01-0.05-0.01-0.08-0.02c-0.03,0-0.06-0.01-0.1-0.01c-0.03-0.01-0.06-0.01-0.09-0.01
									c-0.03,0-0.06,0-0.09,0.01c-0.03,0-0.06,0.01-0.08,0.01c-0.03,0.01-0.06,0.02-0.09,0.03c-0.03,0.01-0.05,0.01-0.08,0.03
									c-0.03,0.01-0.06,0.03-0.08,0.04c-0.03,0.02-0.05,0.03-0.08,0.05c-0.03,0.02-0.05,0.04-0.08,0.06
									c-0.02,0.01-0.03,0.03-0.05,0.04c-0.35,0.35-8.63,8.58-8.63,22.6v80.51l0,1.99l-1.92-2.24c0.01,0,0.01-0.01,0.01-0.02
									c0.01-0.23,1.4-22.84,0.21-47.98c-0.7-14.79-2.14-27.56-4.28-37.95c-1.2-5.78-2.61-10.84-4.23-15.15
									c-0.02-0.05-0.03-0.1-0.05-0.14c-2.05-5.39-4.44-9.6-7.14-12.6c-0.67-0.75-1.38-1.42-2.1-2.02
									c-0.08-0.09-0.17-0.17-0.29-0.24c-0.03-0.02-0.05-0.04-0.07-0.06c-1.95-1.55-4.05-2.57-6.28-3.05
									c-1.02-0.24-2.05-0.36-3.09-0.36c-1.15,0-2.23,0.15-3.21,0.37c-1.68,0.37-3.29,1.04-4.81,2.01
									c-1.02,0.63-1.61,1.16-1.67,1.21c-0.04,0.03-0.07,0.06-0.11,0.1c-0.73,0.61-1.44,1.29-2.12,2.05
									c-2.71,2.99-5.08,7.2-7.13,12.58c-0.02,0.04-0.04,0.09-0.05,0.14c-1.62,4.29-3.02,9.31-4.21,15.05
									c-2.13,10.34-3.56,23.03-4.25,37.73c-1.17,24.99,0.22,47.44,0.24,47.67c0,0.08,0.02,0.16,0.04,0.23
									c-0.69,0.92-1.44,1.8-2.24,2.63V41.08c0-14.02-8.28-22.25-8.63-22.6c-0.01-0.01-0.03-0.03-0.05-0.04
									c-0.02-0.02-0.05-0.04-0.08-0.06c-0.02-0.02-0.05-0.03-0.08-0.05c-0.02-0.01-0.05-0.03-0.08-0.04
									c-0.03-0.01-0.05-0.02-0.08-0.03c-0.03-0.01-0.06-0.02-0.09-0.03c-0.03,0-0.06-0.01-0.09-0.01
									c-0.04-0.01-0.06-0.01-0.09-0.01c-0.03,0-0.05,0-0.08,0.01c-0.03,0-0.06,0.01-0.1,0.01c-0.02,0.01-0.05,0.02-0.07,0.02
									c-0.04,0.01-0.07,0.02-0.1,0.03c-0.03,0.01-0.05,0.03-0.07,0.04c-0.03,0.02-0.06,0.03-0.09,0.05
									c-0.02,0.02-0.04,0.04-0.06,0.05c-0.02,0.01-0.04,0.03-0.06,0.04c-0.35,0.35-8.63,8.58-8.63,22.6v101.36l-11.92,12.22
									c-4.17,4.27-6.56,10.21-6.56,16.29v15.95c0,1.31,0.95,2.4,2.22,2.52l16.27,1.56v5.14c-0.43,0.58-0.7,1.34-0.72,2.2
									l-0.67,3.79h20.91c-0.62,0,0.53-0.7,0.55-0.57c0.32-0.06-0.41,0.06,0.07,0.2c1.29-1.51,2.97-1.96,5.11-1.96
									c0.04,0,0.08-0.01,0.11-0.01c0.16,0.01,0.31,0.02,0.47,0.04c1.5,0.18,2.89,0.88,3.98,2.01c0.53,0.55,0.55,0.88,0.88,1.55
									c0.23,0.48-0.14,0.1-0.02,0.61c0.73-0.05-0.87,0.17-0.16,0.41c0-0.03,0.29,1,0.29,0.97h7.33c4.97,0,9,0.48,9-4.29v-5.78
									l0.79,0.07l0.8-0.07v5.78c0,4.76,4.07,4.29,9.04,4.29h7.92c0.72-0.22-1.25-0.75-0.51-0.65c0.12-0.53-0.13-0.36,0.11-0.84
									c0.32-0.68,0.19-1.51,0.71-2.05c1.09-1.13,2.48-1.82,3.98-2.01c0.27-0.03,0.54-0.05,0.81-0.05c0.21,0,1.65-0.53,1.87-0.51
									c0.57,0.06,1.36,0.28,1.89,0.47c0.93,0.34,0.36,0.9,1.07,1.65c0.1,0.11,0.19,0.5,0.31,0.55l0-0.04l0.18,0.14
									c0.14,0.03,0.27,0.07,0.41,0.04c0,0,20.26,0,20.69,0c0.07-0.15-0.58-1.44-0.52-2.04c0.05-0.16,0.09,0.07,0.13-0.09
									l-0.29-1.62c-0.03-0.86-0.29-1.62-0.73-2.2v-5.14l-1.85,0.17v3.9c-0.04-0.01-0.1-0.01-0.14-0.01h-14.53
									c-0.05,0-0.1,0.01-0.15,0.01v-2.49l-1.28,0.12l15.3-1.46l18.91-1.8c1.26-0.12,2.22-1.21,2.22-2.53v-15.95
									C191.52,164.88,189.14,158.93,184.96,154.66z M155.9,198.52v-0.1c0-0.72,0.37-1.21,0.62-1.21h14.53
									c0.25,0,0.63,0.48,0.63,1.21v0.1l0.25,1.42h-16.29L155.9,198.52z M160.32,25.66h6.93c1.88,3.46,3.75,8.37,3.93,14.46h-14.79
									C156.57,34.03,158.44,29.12,160.32,25.66z M156.37,42.04h14.82v10.34h-14.82V42.04z M156.37,54.56h14.82v26.21h-1.31
									c-0.51,0-0.92,0.43-0.92,0.96s0.42,0.96,0.92,0.96h1.31v11.02h-1.31c-0.51,0-0.92,0.43-0.92,0.96
									c0,0.53,0.42,0.96,0.92,0.96h1.31v23.59h-14.82V54.56z M156.37,121.14h14.82v19.42l-14.81-15.15l-0.01-3.82V121.14z
									 M150.88,118.9c-0.73-1.14-1.37-2.34-1.94-3.61l-0.03-0.05c-0.62-1.15-1.67-3.25-1.82-3.98c-1.49-6.94-1.12-23.15-0.62-34.4
									h4.64C151.85,95.89,151.18,112.9,150.88,118.9z M99.57,73.1c0.68-14.59,2.1-27.17,4.21-37.4c1.11-5.4,2.42-10.14,3.91-14.19
									h1.6c0.51,0,0.93-0.43,0.93-0.96c0-0.53-0.42-0.96-0.93-0.96h-0.86c1.84-4.55,3.93-8.13,6.27-10.73
									c0.6-0.66,1.21-1.26,1.85-1.79h17.39c0.62,0.53,1.23,1.12,1.83,1.77c2.34,2.6,4.44,6.2,6.28,10.75h-0.36
									c-0.51,0-0.92,0.43-0.92,0.96c0,0.53,0.42,0.96,0.92,0.96h1.11c1.5,4.08,2.82,8.85,3.94,14.29
									c2.12,10.29,3.55,22.95,4.24,37.64c0.02,0.42,0.03,0.84,0.06,1.26h-4.46c0.27-5.61,0.54-9.55,0.54-9.67l0-0.06
									c0-9.45-2.52-18.65-7.28-26.67c0.2-0.18,0.33-0.46,0.31-0.76c-0.04-0.78-0.1-1.57-0.17-2.36c-0.05-0.53-0.5-0.91-1.01-0.86
									c-0.51,0.05-0.88,0.52-0.83,1.05c0.01,0.08,0.02,0.15,0.02,0.23l-2.91-4.63c-2.23-3.56-6.01-5.68-10.11-5.68
									c-3.84,0-7.41,1.88-9.68,5.06c0,0-0.01,0-0.01,0c-0.14,0.21-0.28,0.41-0.42,0.62l-3.94,6.28
									c-5.19,8.27-7.93,17.86-7.93,27.72v0.06c0.01,0.12,0.28,4.06,0.54,9.67h-4.21C99.51,74.16,99.53,73.63,99.57,73.1z
									 M141.08,44.33h-31.9c0.95-2.12,2.05-4.18,3.29-6.16l3.93-6.28c0.05-0.07,0.1-0.14,0.14-0.21h17.17
									c0.04,0.07,0.09,0.14,0.13,0.21l3.95,6.28C139.04,40.15,140.14,42.21,141.08,44.33z M99.4,76.86h4.4
									c0.49,11.25,0.87,27.46-0.62,34.4c-0.16,0.74-1.2,2.83-1.82,3.98l-0.03,0.05c-0.49,1.08-1.04,2.13-1.65,3.13
									C99.39,112.63,98.7,95.79,99.4,76.86z M83.03,25.66h6.93c1.89,3.46,3.75,8.37,3.94,14.46H79.1
									C79.28,34.03,81.15,29.12,83.03,25.66z M79.09,42.04h14.82v10.34H79.09V42.04z M79.09,95.63h1.31
									c0.51,0,0.93-0.43,0.93-0.96c0-0.53-0.41-0.96-0.93-0.96h-1.31V82.69h1.31c0.51,0,0.93-0.43,0.93-0.96s-0.41-0.96-0.93-0.96
									h-1.31V54.56h14.82v64.67H79.09V95.63z M79.09,121.14h14.82v4.22l-14.82,15.18V121.14z M78.36,199.94l0.24-1.42v-0.1
									c0-0.72,0.38-1.21,0.63-1.21h14.52c0.25,0,0.63,0.48,0.63,1.21v0.1l0.24,1.42H78.36z M79.09,195.06v-3.9l14.82,1.41v2.49
									c-0.05-0.01-0.1-0.01-0.15-0.01H79.24C79.18,195.05,79.14,195.06,79.09,195.06z M99.99,197.9
									c-1.19,0.33-2.31,0.91-3.28,1.73l-0.23-1.3c-0.02-0.86-0.29-1.62-0.72-2.2v-3.38l1.75,0.17l2.48,0.22V197.9z M122.7,197.89
									h-20.5c-0.72-0.2,0.21,0.18-0.56,0.18c-0.21,0,0.2-0.01,0,0v-12.72c0-3.82,3.3-6.93,7.37-6.93h6.31
									c4.07,0,7.37,3.11,7.37,6.93V197.89z M148.63,197.96c-0.21-0.02,0.41,0.03,0.21,0.03c-0.77,0,0.84-0.3,0.12-0.1h-21.37
									v-12.54c0-3.82,3.31-6.93,7.37-6.93h6.32c4.06,0,7.37,3.11,7.37,6.93V197.96z M154.52,196.12c-0.43,0.58-0.7,1.34-0.72,2.2
									l-0.23,1.32c-0.97-0.82-2.09-1.34-3.29-1.66v-4.84l2.49-0.22l1.75-0.17V196.12z M189.87,179.66l-39.67,3.77h-0.14
									c-0.91-3.84-4.5-6.73-8.79-6.73h-6.32c-4.97,0-9.01,3.88-9.01,8.64v8.23l-0.8,0.07l-0.79-0.07v-8.23
									c0-4.77-4.05-8.64-9.02-8.64h-6.31c-4.29,0-7.88,2.88-8.79,6.72l-39.76-3.77l-0.06-0.01v-8.69c0-5.63,2.21-11.12,6.07-15.08
									l10.77-11.03l1.85-1.9l14.82-15.19l1.45-1.48l0.03-0.03c0.12-0.11,0.25-0.23,0.37-0.34c2.97-2.78,5.35-6.09,7.05-9.86
									c0.23-0.43,1.72-3.23,1.98-4.42c2.42-11.27,0.15-44.87,0.02-46.71c0.01-6.52,1.26-12.93,3.65-18.88h33.35
									c2.4,5.95,3.65,12.35,3.65,18.88c-0.13,1.84-2.4,35.44,0.03,46.71c0.25,1.2,1.74,3.99,1.98,4.42
									c1.78,3.92,4.27,7.35,7.41,10.19c0.02,0.01,0.03,0.02,0.05,0.04l28.88,29.59c3.86,3.96,6.07,9.45,6.07,15.07V179.66z"/>
							</g>
						</g>
					</g>
				</g>
			</g>
		</g>
		<g>
			<g>
				<g>
					<g>
						<g>
							<g>
								<g>
									<g>
										<g>
											<path class="st0" d="M77.18,214c-0.27,0-0.54-0.11-0.74-0.32c-1.74-1.8-1.74-4.72,0-6.52c1.73-1.8,4.55-1.8,6.28,0
												c0.41,0.43,0.41,1.11,0,1.54c-0.41,0.43-1.07,0.43-1.48,0c-0.92-0.95-2.41-0.95-3.33,0c-0.92,0.95-0.92,2.51,0,3.46
												c0.4,0.43,0.4,1.11,0,1.53C77.72,213.89,77.44,214,77.18,214z"/>
										</g>
									</g>
								</g>
							</g>
						</g>
					</g>
				</g>
			</g>
		</g>
		<g>
			<g>
				<g>
					<g>
						<path class="st0" d="M163.35,208.19c-1.58-1.64-4.15-1.64-5.74,0c-0.76,0.79-1.19,1.85-1.19,2.98c0,0.01,0,0.03,0,0.04
							c-0.41-0.1-0.84-0.15-1.28-0.15l0,0c-1.58,0-3.07,0.64-4.19,1.8c-1.12,1.16-1.74,2.7-1.74,4.34c0,1.64,0.62,3.19,1.74,4.35
							c0.21,0.21,0.47,0.31,0.74,0.31c0.27,0,0.53-0.1,0.74-0.31c0.41-0.43,0.41-1.11,0-1.54c-0.73-0.75-1.12-1.75-1.12-2.82
							c0-1.06,0.4-2.06,1.12-2.81c0.72-0.75,1.69-1.17,2.71-1.17c1.02,0,1.99,0.42,2.72,1.17c0.41,0.42,1.06,0.42,1.47,0
							c0.41-0.43,0.41-1.11,0-1.53c-0.06-0.07-0.13-0.14-0.2-0.2c-0.02-0.02-0.02-0.03-0.04-0.05c-0.37-0.39-0.58-0.9-0.58-1.44
							c0-0.54,0.21-1.06,0.58-1.44c0.77-0.79,2.02-0.79,2.78,0c0.41,0.42,1.07,0.42,1.48,0
							C163.76,209.3,163.76,208.61,163.35,208.19z"/>
					</g>
				</g>
			</g>
		</g>
		<g>
			<g>
				<g>
					<g>
						<g>
							<g>
								<path class="st0" d="M173.39,200.3c2.76-2.86,7.24-2.86,10,0c2.28,2.37,2.67,5.96,1.17,8.75c1.37,0.35,2.63,1.07,3.65,2.13
									c1.47,1.53,2.29,3.56,2.29,5.72c0,1.25-0.29,2.48-0.81,3.59c1.69,0.31,3.24,1.15,4.48,2.44c1.61,1.67,2.49,3.88,2.49,6.23
									c0,1.66-0.44,3.24-1.25,4.61c2.94,0.87,5.11,3.68,5.11,7.01c0,4.01-3.15,7.28-7.01,7.28c-0.58,0-1.05-0.49-1.05-1.08
									c0-0.6,0.47-1.08,1.05-1.08c2.72,0,4.92-2.29,4.92-5.11c0-2.75-2.1-5-4.72-5.11c-0.09,0.03-0.18,0.05-0.28,0.05
									c-0.27,0-0.54-0.11-0.74-0.32c-0.41-0.42-0.41-1.11,0-1.53c1.21-1.26,1.88-2.93,1.88-4.7c0-1.77-0.67-3.44-1.88-4.7
									c-1.21-1.25-2.82-1.94-4.53-1.94c-1.71,0-3.32,0.69-4.53,1.94c-0.41,0.42-1.07,0.42-1.48,0c-0.41-0.42-0.41-1.11,0-1.53
									c1.4-1.46,3.21-2.34,5.15-2.54c0.72-1.01,1.1-2.21,1.1-3.49c0-1.58-0.59-3.07-1.67-4.18c-1.08-1.12-2.51-1.74-4.04-1.74l0,0
									c-0.01,0-0.02,0-0.03,0c-0.01,0-0.02,0-0.03,0c-0.26,0-0.53-0.1-0.74-0.31c-0.41-0.42-0.41-1.11,0-1.53
									c1.94-2.02,1.94-5.29,0-7.31c-1.94-2.01-5.1-2.01-7.04,0c-0.41,0.43-1.08,0.33-1.49-0.09
									C172.97,201.31,172.98,200.72,173.39,200.3z"/>
							</g>
						</g>
					</g>
				</g>
			</g>
		</g>
		<g>
			<g>
				<g>
					<g>
						<g>
							<g>
								<path class="st0" d="M131.01,244.85c-3.87-0.43-6.67-3.93-6.25-7.8c0.35-3.21,2.81-5.67,5.84-6.18
									c-0.6-1.28-0.84-2.7-0.68-4.13c0.23-2.07,1.24-3.93,2.86-5.23c0.94-0.75,2.04-1.27,3.2-1.53c-0.82-1.51-1.16-3.22-0.97-4.96
									c0.25-2.25,1.35-4.28,3.12-5.69c1.25-1,2.7-1.61,4.24-1.8c-1.19-2.82-0.43-6.2,2.07-8.21c3.01-2.42,7.43-1.93,9.85,1.09
									c0.36,0.45,0.29,1.11-0.16,1.47c-0.45,0.36-1.11,0.29-1.47-0.16c-1.7-2.12-4.8-2.46-6.92-0.77
									c-2.06,1.66-2.44,4.64-0.88,6.76c0.08,0.05,0.15,0.11,0.21,0.19c0.17,0.21,0.25,0.48,0.22,0.77
									c-0.06,0.57-0.57,0.99-1.15,0.92c-1.7-0.19-3.37,0.3-4.71,1.37c-1.33,1.07-2.16,2.59-2.35,4.29c-0.18,1.7,0.3,3.37,1.37,4.7
									c1.07,1.34,2.6,2.18,4.29,2.36c0.58,0.07,0.99,0.58,0.93,1.16c-0.06,0.57-0.57,0.99-1.15,0.92
									c-1.97-0.22-3.76-1.1-5.13-2.49c-1.21,0.05-2.35,0.47-3.31,1.24c-1.19,0.95-1.93,2.31-2.1,3.82
									c-0.17,1.52,0.26,3.01,1.22,4.2l0,0c0.01,0.01,0.01,0.02,0.02,0.02c0.01,0.01,0.01,0.01,0.02,0.02
									c0.16,0.21,0.25,0.48,0.22,0.76c-0.06,0.58-0.58,0.99-1.15,0.92c-2.73-0.3-5.18,1.67-5.49,4.4
									c-0.3,2.73,1.68,5.19,4.41,5.49c0.57,0.06,0.93,0.65,0.87,1.22C132.04,244.57,131.59,244.92,131.01,244.85z"/>
							</g>
						</g>
					</g>
				</g>
			</g>
		</g>
		<g>
			<g>
				<g>
					<g>
						<g>
							<g>
								<path class="st0" d="M119.24,244.85c3.87-0.43,6.67-3.93,6.25-7.8c-0.35-3.21-2.81-5.67-5.84-6.18
									c0.6-1.28,0.84-2.7,0.68-4.13c-0.23-2.07-1.24-3.93-2.86-5.23c-0.94-0.75-2.04-1.27-3.2-1.53c0.82-1.51,1.16-3.22,0.97-4.96
									c-0.25-2.25-1.35-4.28-3.12-5.69c-1.25-1-2.7-1.61-4.24-1.8c1.19-2.82,0.43-6.2-2.07-8.21c-3.01-2.42-7.43-1.93-9.85,1.09
									c-0.36,0.45-0.29,1.11,0.16,1.47c0.45,0.36,1.11,0.29,1.47-0.16c1.7-2.12,4.8-2.46,6.92-0.77c2.06,1.66,2.44,4.64,0.88,6.76
									c-0.08,0.05-0.15,0.11-0.21,0.19c-0.17,0.21-0.25,0.48-0.22,0.77c0.06,0.57,0.57,0.99,1.15,0.92
									c1.7-0.19,3.37,0.3,4.71,1.37c1.33,1.07,2.16,2.59,2.35,4.29c0.18,1.7-0.3,3.37-1.37,4.7c-1.07,1.34-2.6,2.18-4.29,2.36
									c-0.58,0.07-0.99,0.58-0.93,1.16c0.06,0.57,0.57,0.99,1.15,0.92c1.97-0.22,3.76-1.1,5.13-2.49
									c1.21,0.05,2.35,0.47,3.31,1.24c1.19,0.95,1.93,2.31,2.1,3.82c0.17,1.52-0.26,3.01-1.22,4.2l0,0
									c-0.01,0.01-0.01,0.02-0.02,0.02c-0.01,0.01-0.01,0.01-0.02,0.02c-0.16,0.21-0.25,0.48-0.22,0.76
									c0.06,0.58,0.58,0.99,1.15,0.92c2.73-0.3,5.18,1.67,5.49,4.4c0.3,2.73-1.68,5.19-4.41,5.49c-0.57,0.06-0.93,0.65-0.87,1.22
									C118.21,244.57,118.67,244.91,119.24,244.85z"/>
							</g>
						</g>
					</g>
				</g>
			</g>
		</g>
		<g>
			<g>
				<g>
					<g>
						<path class="st0" d="M180.98,236.13c-0.57,0-1.05,0.49-1.05,1.08c0,0.6,0.47,1.08,1.05,1.08c1.32,0,2.39,1.12,2.39,2.49
							c0,1.37-1.08,2.48-2.39,2.48c-0.57,0-1.05,0.49-1.05,1.08c0,0.6,0.47,1.08,1.05,1.08c2.47,0,4.49-2.09,4.49-4.65
							C185.47,238.22,183.45,236.13,180.98,236.13z"/>
					</g>
				</g>
			</g>
		</g>
	</g>
	<g>
		<g>
			<g>
				<g>
					<g>
						<g>
							<g>
								<g>
									<g>
										<path class="st0" d="M103.12,238.04c-0.27,0-0.54-0.11-0.74-0.32c-0.41-0.42-0.41-1.11,0-1.53
											c0.83-0.87,1.29-2.02,1.29-3.25c0-1.23-0.46-2.38-1.29-3.25c-1.01-1.04-2.45-1.52-3.85-1.28c-0.57,0.1-1.11-0.3-1.2-0.89
											c-0.09-0.59,0.29-1.15,0.86-1.25c2.07-0.36,4.19,0.36,5.67,1.89c1.23,1.28,1.91,2.97,1.91,4.78c0,1.81-0.68,3.5-1.91,4.78
											C103.65,237.93,103.39,238.04,103.12,238.04z"/>
									</g>
								</g>
							</g>
						</g>
					</g>
				</g>
			</g>
		</g>
	</g>
</g>
<g>
	<g>
		<g>
			<g>
				<g>
					<g>
						<path class="st0" d="M77.14,200.3c-2.76-2.86-7.24-2.86-10,0c-2.28,2.37-2.67,5.96-1.17,8.75c-1.37,0.35-2.63,1.07-3.65,2.13
							c-1.47,1.53-2.29,3.56-2.29,5.72c0,1.25,0.29,2.48,0.81,3.59c-1.69,0.31-3.24,1.15-4.48,2.44c-1.61,1.67-2.49,3.88-2.49,6.23
							c0,1.66,0.44,3.24,1.25,4.61c-2.94,0.87-5.11,3.68-5.11,7.01c0,4.01,3.15,7.28,7.01,7.28c0.58,0,1.05-0.49,1.05-1.08
							c0-0.6-0.47-1.08-1.05-1.08c-2.72,0-4.92-2.29-4.92-5.11c0-2.75,2.1-5,4.72-5.11c0.09,0.03,0.18,0.05,0.28,0.05
							c0.27,0,0.54-0.11,0.74-0.32c0.41-0.42,0.41-1.11,0-1.53c-1.21-1.26-1.88-2.93-1.88-4.7c0-1.77,0.67-3.44,1.88-4.7
							c1.21-1.25,2.82-1.94,4.53-1.94c1.71,0,3.32,0.69,4.53,1.94c0.41,0.42,1.07,0.42,1.48,0c0.41-0.42,0.41-1.11,0-1.53
							c-1.4-1.46-3.21-2.34-5.15-2.54c-0.72-1.01-1.1-2.21-1.1-3.49c0-1.58,0.59-3.07,1.67-4.18c1.08-1.12,2.51-1.74,4.04-1.74l0,0
							c0.01,0,0.02,0,0.03,0c0.01,0,0.02,0,0.03,0c0.26,0,0.53-0.1,0.74-0.31c0.41-0.42,0.41-1.11,0-1.53
							c-1.94-2.02-1.94-5.29,0-7.31c1.94-2.01,5.1-2.01,7.04,0c0.41,0.43,1.08,0.33,1.49-0.09
							C77.56,201.31,77.55,200.72,77.14,200.3z"/>
					</g>
				</g>
			</g>
		</g>
	</g>
</g>
</svg>
