<?xml version="1.0" encoding="utf-8"?>
<!-- Generator: Adobe Illustrator 23.0.3, SVG Export Plug-In . SVG Version: 6.00 Build 0)  -->
<svg version="1.1" id="Ebene_1" xmlns="http://www.w3.org/2000/svg" xmlns:xlink="http://www.w3.org/1999/xlink" x="0px" y="0px"
	 viewBox="0 0 250 250" style="enable-background:new 0 0 250 250;" xml:space="preserve">
<style type="text/css">
	.st0{fill:#FFFFFF;}
	.st1{fill:#D39E01;}
</style>
<g>
	<g>
		<g>
			<g>
				<g>
					<g>
						<path class="st0" d="M243.32,131.17V79.92c0-2.3-2.04-4.16-4.54-4.16h-5.62c4.01-7.25,6.15-15.43,6.15-23.94
							c0-10.42-3.2-20.39-9.24-28.83c-5.69-7.95-13.45-13.96-22.51-17.46l0.01-0.01l-1.09-0.39l-0.96-0.34l0,0.01
							c-5.09-1.71-10.4-2.58-15.8-2.58c-5.23,0-10.38,0.81-15.32,2.42l-0.01-0.01l-0.96,0.34c-0.01,0-0.01,0-0.01,0l-1.08,0.38
							l0,0.01c-19.32,7.22-32.23,25.75-32.23,46.47c0,8.51,2.13,16.7,6.14,23.94h-5.22c-2.51,0-4.55,1.87-4.55,4.16v51.25
							l-3.53,33.99l-0.01,0.11c0,1.41,1.36,2.5,3.25,2.72c-0.45,0.69-0.65,1.47-0.58,2.26c0.39,4.1,1.7,10.42,4.19,15.82
							c3.19,6.93,7.66,10.89,12.91,11.45l0.11,0.01c0.98,0,1.9-0.26,2.66-0.71v27.5c0,0.68,0.21,1.33,0.58,1.89h-0.64
							c-2.43,0-4.33,2.83-4.36,6.46l-1.21,8.39l-0.28,1.93v0.08c0,3.66,2.03,6.53,4.64,6.53h30.73c2.6,0,4.64-2.87,4.64-6.53v-0.08
							l-0.43-2.97l0,0l-1.06-7.35c-0.01-1.71-0.45-3.25-1.16-4.4c1.2-0.16,2.24-0.69,2.96-1.44c0.71,0.72,1.71,1.24,2.86,1.42
							c-0.71,1.14-1.15,2.69-1.17,4.41l-1.08,7.51l-0.4,2.81v0.08c0,3.66,2.03,6.53,4.64,6.53h30.73c2.6,0,4.64-2.87,4.64-6.53
							v-0.08l-0.43-2.97l0,0l-1.06-7.35c-0.03-3.63-1.93-6.46-4.36-6.46h-0.52c0.36-0.56,0.58-1.21,0.58-1.89v-27.5
							c0.76,0.45,1.67,0.71,2.65,0.71h0.06l0.05-0.01c11.59-1.23,16.25-18.38,17.11-27.27c0.07-0.79-0.13-1.57-0.58-2.26
							c1.9-0.22,3.25-1.32,3.25-2.72v-0.06L243.32,131.17z M238.78,77.93c1.31,0,2.37,0.89,2.37,1.99v30.37l-1.84-17.7
							c-0.05-1.54-1.74-2.7-3.97-2.7h-13.85c1.13-0.95,2.22-1.94,3.28-3c2.74-2.74,5.12-5.75,7.12-8.96H238.78z M189.7,4.38
							c5.08,0,10.07,0.8,14.85,2.37c-0.01,0.02-0.03,0.04-0.04,0.06c-0.03,0.05-0.07,0.1-0.1,0.15c-0.05,0.07-0.09,0.14-0.15,0.21
							c-0.04,0.05-0.08,0.1-0.11,0.15c-0.05,0.07-0.1,0.13-0.16,0.2c-0.04,0.05-0.08,0.1-0.12,0.15c-0.05,0.07-0.11,0.13-0.17,0.19
							c-0.04,0.05-0.08,0.1-0.13,0.14c-0.06,0.06-0.12,0.13-0.18,0.19c-0.04,0.05-0.09,0.09-0.14,0.14
							c-0.06,0.06-0.13,0.13-0.2,0.19c-0.04,0.04-0.09,0.09-0.14,0.13c-0.07,0.06-0.15,0.13-0.22,0.19
							c-0.04,0.04-0.09,0.08-0.13,0.11c-0.09,0.08-0.19,0.15-0.28,0.23c-0.03,0.02-0.06,0.05-0.09,0.07
							c-0.12,0.1-0.26,0.19-0.39,0.29c-0.04,0.03-0.09,0.06-0.13,0.09c-0.09,0.06-0.18,0.13-0.28,0.19
							c-0.05,0.04-0.11,0.07-0.17,0.11c-0.09,0.05-0.17,0.11-0.26,0.16c-0.06,0.04-0.13,0.08-0.19,0.11
							c-0.09,0.05-0.17,0.1-0.25,0.15c-0.07,0.04-0.14,0.07-0.21,0.11c-0.08,0.05-0.17,0.09-0.25,0.14
							c-0.08,0.03-0.14,0.07-0.22,0.11c-0.09,0.04-0.17,0.09-0.26,0.13c-0.07,0.03-0.14,0.07-0.21,0.1
							c-0.09,0.04-0.18,0.08-0.27,0.12c-0.07,0.03-0.15,0.06-0.22,0.1c-0.09,0.04-0.19,0.08-0.28,0.12
							c-0.07,0.03-0.15,0.06-0.22,0.09c-0.1,0.04-0.2,0.08-0.3,0.11c-0.07,0.03-0.15,0.06-0.22,0.09c-0.11,0.04-0.22,0.08-0.33,0.11
							c-0.06,0.03-0.13,0.05-0.2,0.07c-0.15,0.05-0.3,0.1-0.45,0.14c-0.03,0.01-0.07,0.02-0.1,0.03c-0.18,0.06-0.36,0.11-0.54,0.16
							c-0.07,0.02-0.13,0.03-0.19,0.05c-0.13,0.03-0.25,0.07-0.37,0.1c-0.08,0.02-0.15,0.04-0.23,0.05
							c-0.12,0.03-0.22,0.05-0.34,0.08c-0.08,0.02-0.16,0.03-0.25,0.05c-0.11,0.03-0.22,0.05-0.34,0.07
							c-0.09,0.02-0.17,0.03-0.26,0.05c-0.11,0.02-0.22,0.04-0.34,0.06c-0.09,0.01-0.17,0.03-0.27,0.04
							c-0.11,0.02-0.22,0.03-0.34,0.05c-0.09,0.01-0.18,0.02-0.27,0.03c-0.12,0.01-0.23,0.03-0.35,0.04
							c-0.09,0.01-0.17,0.02-0.26,0.03c-0.12,0.01-0.24,0.02-0.36,0.03c-0.09,0.01-0.18,0.02-0.27,0.02
							c-0.12,0.01-0.25,0.01-0.37,0.02c-0.09,0.01-0.16,0.01-0.25,0.02c-0.14,0.01-0.28,0.01-0.42,0.02c-0.07,0-0.14,0-0.21,0.01
							c-0.21,0-0.42,0.01-0.63,0.01c-0.22,0-0.44,0-0.65-0.01c-0.07,0-0.14-0.01-0.22-0.01c-0.14-0.01-0.28-0.01-0.42-0.02
							c-0.09,0-0.17-0.01-0.25-0.02c-0.13-0.01-0.26-0.02-0.38-0.02c-0.09-0.01-0.18-0.02-0.27-0.02c-0.12-0.01-0.24-0.02-0.36-0.03
							c-0.09-0.01-0.18-0.02-0.27-0.03c-0.12-0.01-0.24-0.03-0.36-0.04c-0.09-0.01-0.18-0.02-0.27-0.04
							c-0.11-0.02-0.23-0.03-0.34-0.05c-0.09-0.02-0.18-0.03-0.27-0.04c-0.12-0.02-0.23-0.04-0.34-0.06
							c-0.09-0.02-0.17-0.03-0.26-0.05c-0.11-0.02-0.23-0.05-0.34-0.07c-0.08-0.02-0.17-0.03-0.25-0.05
							c-0.12-0.03-0.23-0.05-0.35-0.08c-0.08-0.02-0.15-0.03-0.23-0.06c-0.13-0.03-0.25-0.06-0.38-0.09
							c-0.06-0.02-0.13-0.03-0.2-0.05c-0.17-0.05-0.34-0.1-0.5-0.14c-0.02-0.01-0.04-0.01-0.05-0.02c-0.19-0.05-0.37-0.11-0.55-0.18
							c-0.06-0.02-0.12-0.04-0.18-0.06c-0.12-0.04-0.24-0.08-0.35-0.12c-0.07-0.03-0.14-0.05-0.21-0.08
							c-0.1-0.04-0.21-0.08-0.32-0.12c-0.07-0.03-0.15-0.06-0.21-0.09c-0.1-0.04-0.2-0.08-0.29-0.12c-0.08-0.03-0.15-0.07-0.22-0.1
							c-0.09-0.04-0.19-0.08-0.28-0.13c-0.07-0.03-0.14-0.07-0.21-0.1c-0.09-0.04-0.18-0.09-0.27-0.13
							c-0.07-0.04-0.14-0.07-0.21-0.11c-0.09-0.05-0.17-0.09-0.26-0.14c-0.07-0.03-0.13-0.07-0.2-0.11
							c-0.08-0.05-0.17-0.1-0.25-0.15c-0.06-0.04-0.13-0.08-0.19-0.12c-0.08-0.05-0.17-0.11-0.25-0.16
							c-0.05-0.04-0.11-0.07-0.17-0.11c-0.09-0.06-0.17-0.12-0.26-0.18c-0.04-0.03-0.09-0.07-0.15-0.1
							c-0.11-0.08-0.21-0.16-0.32-0.25c-0.02-0.02-0.04-0.03-0.07-0.05c-0.13-0.1-0.25-0.2-0.37-0.3c-0.04-0.03-0.07-0.07-0.11-0.1
							c-0.08-0.07-0.16-0.14-0.24-0.22c-0.05-0.04-0.09-0.09-0.13-0.13c-0.07-0.07-0.13-0.13-0.2-0.2
							c-0.04-0.04-0.09-0.09-0.13-0.14c-0.06-0.07-0.12-0.13-0.18-0.19c-0.04-0.05-0.09-0.1-0.13-0.15
							c-0.05-0.07-0.11-0.13-0.16-0.19c-0.04-0.05-0.08-0.1-0.12-0.15c-0.05-0.07-0.1-0.13-0.15-0.2c-0.04-0.05-0.08-0.1-0.11-0.16
							c-0.04-0.07-0.09-0.14-0.14-0.2c-0.03-0.06-0.07-0.11-0.1-0.16c-0.01-0.02-0.03-0.05-0.04-0.07
							C179.93,5.13,184.78,4.38,189.7,4.38z M173.2,7.33c0.08,0.15,0.16,0.29,0.25,0.44c0.03,0.05,0.06,0.09,0.09,0.14
							c0.06,0.09,0.12,0.19,0.19,0.29c0.04,0.06,0.09,0.12,0.13,0.17c0.06,0.09,0.12,0.17,0.18,0.25c0.05,0.06,0.1,0.12,0.15,0.18
							c0.07,0.08,0.12,0.15,0.19,0.23c0.06,0.06,0.1,0.12,0.16,0.18c0.06,0.07,0.13,0.15,0.2,0.22c0.05,0.06,0.11,0.12,0.17,0.18
							c0.07,0.07,0.14,0.14,0.2,0.21c0.06,0.06,0.12,0.12,0.19,0.18c0.07,0.06,0.14,0.13,0.21,0.2c0.07,0.06,0.13,0.12,0.2,0.17
							c0.07,0.07,0.14,0.13,0.22,0.19c0.07,0.06,0.14,0.11,0.21,0.17c0.08,0.07,0.16,0.13,0.24,0.19c0.07,0.05,0.15,0.11,0.21,0.16
							c0.09,0.06,0.17,0.12,0.25,0.18c0.07,0.05,0.15,0.1,0.22,0.16c0.09,0.06,0.17,0.12,0.26,0.18c0.07,0.05,0.15,0.1,0.23,0.15
							c0.09,0.06,0.18,0.11,0.28,0.17c0.08,0.05,0.16,0.09,0.24,0.14c0.09,0.06,0.2,0.11,0.29,0.17c0.08,0.04,0.16,0.09,0.23,0.13
							c0.11,0.06,0.22,0.12,0.33,0.17c0.07,0.04,0.14,0.08,0.22,0.11c0.15,0.08,0.3,0.15,0.45,0.22c0.04,0.02,0.08,0.04,0.12,0.06
							c0.18,0.08,0.37,0.17,0.56,0.25c0.07,0.03,0.15,0.06,0.22,0.09c0.12,0.05,0.25,0.11,0.37,0.15c0.08,0.03,0.17,0.06,0.25,0.1
							c0.12,0.04,0.24,0.09,0.36,0.13c0.09,0.03,0.18,0.06,0.27,0.09c0.11,0.04,0.23,0.08,0.35,0.12c0.09,0.03,0.19,0.06,0.28,0.09
							c0.12,0.04,0.24,0.07,0.35,0.11c0.1,0.03,0.2,0.06,0.3,0.08c0.11,0.03,0.23,0.06,0.35,0.1c0.1,0.03,0.2,0.05,0.3,0.08
							c0.12,0.03,0.24,0.06,0.36,0.09c0.1,0.02,0.2,0.04,0.31,0.07c0.12,0.03,0.24,0.06,0.36,0.08c0.1,0.02,0.21,0.04,0.3,0.06
							c0.13,0.02,0.25,0.04,0.38,0.07c0.1,0.02,0.21,0.04,0.31,0.05c0.12,0.02,0.25,0.04,0.38,0.06c0.1,0.02,0.21,0.03,0.31,0.05
							c0.13,0.02,0.26,0.03,0.39,0.05c0.1,0.01,0.21,0.03,0.31,0.04c0.13,0.01,0.27,0.03,0.41,0.04c0.1,0.01,0.2,0.02,0.3,0.03
							c0.14,0.01,0.28,0.02,0.43,0.03c0.09,0.01,0.19,0.01,0.29,0.02c0.16,0.01,0.32,0.01,0.48,0.02c0.08,0,0.16,0,0.24,0.01
							c0.24,0.01,0.48,0.01,0.73,0.01c0.24,0,0.48,0,0.71-0.01c0.08,0,0.16,0,0.24-0.01c0.16-0.01,0.32-0.01,0.48-0.02
							c0.09,0,0.18-0.01,0.28-0.02c0.14-0.01,0.29-0.02,0.43-0.03c0.09-0.01,0.2-0.02,0.29-0.03c0.14-0.01,0.27-0.02,0.4-0.04
							c0.1-0.01,0.2-0.02,0.3-0.03c0.13-0.02,0.26-0.03,0.39-0.05c0.1-0.01,0.2-0.03,0.3-0.04c0.13-0.02,0.26-0.04,0.39-0.06
							c0.1-0.02,0.2-0.03,0.3-0.05c0.13-0.02,0.25-0.04,0.38-0.07c0.1-0.02,0.19-0.04,0.29-0.06c0.12-0.02,0.25-0.05,0.37-0.08
							c0.1-0.02,0.19-0.04,0.29-0.06c0.13-0.03,0.25-0.06,0.37-0.09c0.1-0.02,0.19-0.04,0.28-0.07c0.12-0.03,0.25-0.07,0.37-0.1
							c0.09-0.03,0.19-0.05,0.28-0.08c0.12-0.03,0.24-0.07,0.36-0.11c0.09-0.03,0.17-0.06,0.26-0.08c0.13-0.04,0.25-0.08,0.37-0.12
							c0.08-0.03,0.16-0.05,0.24-0.08c0.13-0.04,0.26-0.09,0.39-0.14c0.07-0.02,0.14-0.05,0.21-0.08c0.15-0.06,0.29-0.12,0.43-0.17
							c0.05-0.02,0.1-0.04,0.15-0.06c0.39-0.16,0.77-0.34,1.14-0.52c0.05-0.03,0.1-0.06,0.16-0.08c0.13-0.07,0.26-0.13,0.39-0.2
							c0.07-0.03,0.13-0.07,0.19-0.11c0.11-0.06,0.23-0.12,0.33-0.19c0.08-0.04,0.14-0.08,0.21-0.12c0.1-0.06,0.21-0.12,0.31-0.18
							c0.07-0.04,0.14-0.09,0.21-0.13c0.09-0.06,0.19-0.12,0.28-0.19c0.07-0.04,0.14-0.09,0.2-0.14c0.09-0.06,0.18-0.13,0.27-0.19
							c0.07-0.05,0.13-0.1,0.2-0.15c0.08-0.07,0.17-0.13,0.26-0.19c0.06-0.05,0.13-0.1,0.19-0.16c0.08-0.07,0.16-0.13,0.24-0.2
							c0.06-0.05,0.12-0.11,0.18-0.16c0.08-0.07,0.15-0.14,0.23-0.21c0.06-0.05,0.12-0.11,0.18-0.17c0.07-0.07,0.15-0.14,0.22-0.21
							c0.05-0.06,0.11-0.11,0.17-0.17c0.07-0.07,0.14-0.15,0.21-0.22c0.05-0.06,0.1-0.12,0.15-0.17c0.07-0.08,0.13-0.16,0.2-0.24
							c0.05-0.05,0.09-0.11,0.14-0.17c0.07-0.08,0.13-0.17,0.19-0.25c0.04-0.06,0.08-0.11,0.12-0.16c0.07-0.1,0.13-0.2,0.2-0.29
							c0.03-0.04,0.06-0.09,0.09-0.13c0.09-0.14,0.18-0.29,0.26-0.43c8.72,3.33,16.19,9.1,21.66,16.75
							c5.78,8.07,8.84,17.6,8.84,27.57c0,12.67-4.93,24.58-13.89,33.54c-8.96,8.96-20.87,13.89-33.54,13.89
							c-10.3,0-20.11-3.27-28.23-9.31v-0.06h-0.07c-1.84-1.37-3.58-2.88-5.23-4.53c-8.96-8.96-13.89-20.87-13.89-33.54
							C142.26,31.96,154.66,14.21,173.2,7.33z M219.29,92.05c-0.33,5.38-3.12,9.48-8.33,12.2c-5.02,2.62-12.11,3.95-21.08,3.95
							c-8.96,0-16.05-1.33-21.07-3.95c-5.21-2.72-8-6.82-8.33-12.2h0.21c8.39,6.08,18.45,9.36,29.01,9.36
							c10.56,0,20.62-3.28,29.01-9.36H219.29z M138.65,79.92c0-1.1,1.06-1.99,2.37-1.99h6.49c2,3.21,4.37,6.21,7.11,8.96
							c1.06,1.05,2.15,2.05,3.28,3h-13.44c-2.23,0-3.93,1.16-3.97,2.7l-1.84,17.7V79.92z M149.54,107.34
							c0.01,0.02,0.01,0.04,0.01,0.06v6.87c0,0.02,0,0.04-0.01,0.06h-9.13l0.72-6.99H149.54z M155.49,193.25
							c0,1.15-1.16,2.09-2.6,2.11c-4.48-0.5-8.23-3.93-11.11-10.19c-2.38-5.16-3.62-11.2-4-15.12c-0.04-0.48,0.2-0.87,0.41-1.1
							c0.51-0.56,1.37-0.91,2.25-0.91h5.11v11.64c0,0.6,0.49,1.08,1.08,1.08c0.6,0,1.09-0.49,1.09-1.08v-11.64h5.11
							c1.46,0,2.66,0.95,2.66,2.11V193.25z M155.49,166.57c-0.61-0.36-1.31-0.6-2.07-0.68v-0.03h-0.59h-12.4h-3.52
							c-1.08,0-1.71-0.43-1.8-0.59l1.96-18.83h18.42V166.57z M153.24,232.82v-0.08c0-2.5,1.16-4.36,2.19-4.36h28.31
							c1.03,0,2.18,1.87,2.18,4.36v0.08l0.72,5.03h-33.43c-0.12,0-0.23,0-0.35,0.01c-0.04,0-0.08,0.01-0.11,0.01
							c-0.08,0-0.15,0.01-0.23,0.02c-0.01,0-0.01,0-0.01,0L153.24,232.82z M186.96,240.02l0.45,3.12c-0.02,2.53-1.31,4.29-2.46,4.29
							h-4.36v-4.22c0-0.46-0.48-0.83-1.06-0.83c-0.59,0-1.07,0.37-1.07,0.83v4.22h-7.81v-4.23c0-0.46-0.48-0.83-1.07-0.83
							c-0.59,0-1.06,0.37-1.06,0.83v4.23h-7.81v-4.23c0-0.46-0.48-0.83-1.07-0.83c-0.59,0-1.06,0.37-1.06,0.83v4.23h-4.36
							c-1.16,0-2.44-1.76-2.47-4.29l0.42-2.94c0.01,0,0.03-0.01,0.03-0.01c0.06-0.02,0.13-0.04,0.19-0.06c0.01,0,0.02,0,0.02-0.01
							c0.08-0.02,0.16-0.03,0.23-0.05c0.02,0,0.04-0.01,0.07-0.01c0.05-0.01,0.11-0.02,0.17-0.02c0.02,0,0.05,0,0.07-0.01
							c0.08,0,0.16-0.01,0.24-0.01H186.96z M191,224.32c0-0.08-0.01-0.16-0.02-0.23v-24.56c0-0.6-0.49-1.09-1.09-1.09
							c-0.6,0-1.08,0.49-1.08,1.09v24.8c0,0.99-1.22,1.83-2.65,1.83h-25.83c-1.44,0-2.65-0.84-2.65-1.83v-19.11h18.18
							c0.6,0,1.08-0.49,1.08-1.08c0-0.6-0.48-1.09-1.08-1.09h-18.18v-5.21h14.97c0.6,0,1.08-0.49,1.08-1.08
							c0-0.6-0.48-1.08-1.08-1.08h-14.97v-5.21h11.76c0.6,0,1.08-0.49,1.08-1.08c0-0.6-0.49-1.09-1.08-1.09h-11.76v-5.21h8.55
							c0.6,0,1.08-0.49,1.08-1.09c0-0.6-0.49-1.08-1.08-1.08h-8.55V165h0.22v-2.17h-0.22v-3.33h64.47v3.33h-0.22V165h0.22v15.9
							h-8.55c-0.6,0-1.08,0.49-1.08,1.08c0,0.6,0.48,1.09,1.08,1.09h8.55v5.21h-11.76c-0.6,0-1.08,0.49-1.08,1.09
							c0,0.6,0.48,1.08,1.08,1.08h11.76v5.21h-14.97c-0.6,0-1.08,0.49-1.08,1.08c0,0.6,0.49,1.08,1.08,1.08h14.97v5.21h-18.18
							c-0.6,0-1.08,0.49-1.08,1.09c0,0.6,0.49,1.08,1.08,1.08h18.18v19.11c0,0.99-1.21,1.83-2.65,1.83h-25.83
							C192.21,226.16,191,225.31,191,224.32z M227.93,243.14c-0.02,2.53-1.31,4.29-2.46,4.29h-4.36v-4.22
							c0-0.46-0.47-0.83-1.07-0.83c-0.59,0-1.06,0.37-1.06,0.83v4.22h-7.81v-4.23c0-0.46-0.48-0.83-1.07-0.83
							c-0.59,0-1.06,0.37-1.06,0.83v4.23h-7.82v-4.23c0-0.46-0.47-0.83-1.06-0.83c-0.59,0-1.07,0.37-1.07,0.83v4.23h-4.36
							c-1.16,0-2.44-1.76-2.47-4.29l0.42-2.94c0.01,0,0.02-0.01,0.03-0.01c0.07-0.02,0.14-0.04,0.21-0.06c0,0,0.01,0,0.01,0
							c0.08-0.02,0.16-0.03,0.23-0.05c0.02,0,0.04-0.01,0.06-0.01c0.06-0.01,0.12-0.02,0.18-0.02c0.03,0,0.05,0,0.08-0.01
							c0.08,0,0.16-0.01,0.24-0.01h33.75L227.93,243.14z M224.25,228.38c1.03,0,2.19,1.87,2.19,4.36v0.08l0.72,5.03h-33.43
							c-0.12,0-0.23,0-0.35,0.01c-0.04,0-0.08,0.01-0.13,0.01c-0.07,0.01-0.14,0.01-0.21,0.02c-0.01,0-0.01,0-0.02,0l0.73-5.07
							v-0.08c0-2.5,1.15-4.36,2.19-4.36H224.25z M223.23,138.77c-0.6,0-1.09,0.48-1.09,1.08v17.47h-64.47v-17.47
							c0-0.6-0.49-1.08-1.09-1.08c-0.6,0-1.08,0.48-1.08,1.08v4.42H137.3l2.89-27.77h9.66c1.05,0,1.87-0.98,1.87-2.23v-6.87
							c0-1.25-0.82-2.23-1.87-2.23h-8.49l1.29-12.41v-0.09c0.06-0.17,0.7-0.62,1.81-0.62h13.85c0.33,6.25,3.52,11,9.49,14.13
							c5.34,2.79,12.76,4.2,22.08,4.2c9.32,0,16.75-1.42,22.09-4.2c5.98-3.13,9.16-7.87,9.49-14.13h13.88c1.1,0,1.74,0.45,1.8,0.59
							v0.06l5.36,51.57h-18.19v-4.42C224.31,139.26,223.82,138.77,223.23,138.77z M242.03,170.05c-0.37,3.93-1.62,9.96-4,15.12
							c-2.88,6.26-6.62,9.69-11.11,10.19c-1.44-0.02-2.6-0.96-2.6-2.11v-23.1c0-1.17,1.19-2.11,2.65-2.11h5.12v11.64
							c0,0.6,0.49,1.08,1.08,1.08c0.6,0,1.08-0.49,1.08-1.08v-11.64h5.11c0.88,0,1.74,0.34,2.24,0.91
							C241.82,169.18,242.08,169.56,242.03,170.05z M242.89,165.86h-3.53h-12.4h-0.59v0.03c-0.76,0.08-1.46,0.32-2.07,0.68v-20.12
							h18.42l1.95,18.82C244.59,165.45,243.95,165.86,242.89,165.86z"/>
					</g>
				</g>
			</g>
		</g>
		<g>
			<g>
				<g>
					<g>
						<path class="st0" d="M184.57,132.57c-0.18-0.37-0.56-0.61-0.97-0.61c-0.41,0-0.79,0.23-0.97,0.61l-6.09,12.31
							c-0.17,0.34-0.15,0.73,0.05,1.05c0.2,0.32,0.54,0.51,0.92,0.51h12.18h0.01c0.59,0,1.08-0.49,1.08-1.08
							c0-0.21-0.06-0.4-0.16-0.56L184.57,132.57z M179.25,144.28l4.35-8.78l4.35,8.78H179.25z"/>
					</g>
				</g>
			</g>
		</g>
		<g>
			<g>
				<g>
					<g>
						<path class="st0" d="M196.39,119.03c-4.02,0-7.29,3.27-7.29,7.29c0,4.02,3.27,7.29,7.29,7.29c4.02,0,7.29-3.27,7.29-7.29
							C203.68,122.3,200.41,119.03,196.39,119.03z M196.39,131.45c-2.82,0-5.12-2.3-5.12-5.12c0-2.83,2.3-5.12,5.12-5.12
							c2.82,0,5.12,2.3,5.12,5.12C201.51,129.15,199.21,131.45,196.39,131.45z"/>
					</g>
				</g>
			</g>
		</g>
		<g>
			<g>
				<g>
					<g>
						<path class="st0" d="M203.41,115.83h-27.18c-1.5,0-2.54,1.76-3.29,5.55c-0.61,3.08-0.94,7.17-0.94,11.5v1.86
							c0,4.33,0.33,8.41,0.94,11.5c0.75,3.79,1.79,5.55,3.29,5.55h27.18c1.5,0,2.55-1.76,3.29-5.55c0.61-3.08,0.95-7.17,0.95-11.5
							v-1.86c0-4.33-0.34-8.42-0.95-11.5C205.96,117.6,204.91,115.83,203.41,115.83z M205.48,134.74c0,9.11-1.42,14.15-2.2,14.88
							h-26.91c-0.77-0.72-2.2-5.77-2.2-14.88v-1.86c0-9.11,1.42-14.15,2.2-14.88h26.91c0.77,0.73,2.2,5.77,2.2,14.88V134.74z"/>
					</g>
				</g>
			</g>
		</g>
		<g>
			<g>
				<g>
					<g>
						<path class="st1" d="M189.7,90.82c21.55,0,43.63-14.83,43.63-36.37c0-4.03-0.78-7.56-2.18-10.64l-14.88,14.88
							c-1.04,1.04-2.69,1.08-3.69,0.08l-0.22-0.21c-0.99-0.99-0.95-2.65,0.09-3.69l15.79-15.79c-2.01-2.52-4.53-4.62-7.42-6.37
							l-23.39,23.39c-1.53,1.53-3.95,1.58-5.42,0.12l-0.31-0.31c-1.46-1.46-1.4-3.89,0.12-5.41l21.31-21.31
							c-7.08-2.44-15.3-3.46-23.44-3.46c-21.55,0-43.63,7.17-43.63,28.72C146.07,76,168.15,90.82,189.7,90.82z"/>
					</g>
				</g>
			</g>
		</g>
		<g>
			<g>
				<g>
					<g>
						<rect x="201.42" y="162.83" class="st0" width="2.56" height="2.17"/>
					</g>
				</g>
			</g>
		</g>
		<g>
			<g>
				<g>
					<g>
						<rect x="180.93" y="162.83" class="st0" width="2.56" height="2.17"/>
					</g>
				</g>
			</g>
		</g>
		<g>
			<g>
				<g>
					<g>
						<rect x="216.8" y="162.83" class="st0" width="2.56" height="2.17"/>
					</g>
				</g>
			</g>
		</g>
		<g>
			<g>
				<g>
					<g>
						<rect x="196.3" y="162.83" class="st0" width="2.56" height="2.17"/>
					</g>
				</g>
			</g>
		</g>
		<g>
			<g>
				<g>
					<g>
						<rect x="191.18" y="162.83" class="st0" width="2.57" height="2.17"/>
					</g>
				</g>
			</g>
		</g>
		<g>
			<g>
				<g>
					<g>
						<rect x="175.81" y="162.83" class="st0" width="2.57" height="2.17"/>
					</g>
				</g>
			</g>
		</g>
		<g>
			<g>
				<g>
					<g>
						<rect x="186.06" y="162.83" class="st0" width="2.57" height="2.17"/>
					</g>
				</g>
			</g>
		</g>
		<g>
			<g>
				<g>
					<g>
						<rect x="211.68" y="162.83" class="st0" width="2.56" height="2.17"/>
					</g>
				</g>
			</g>
		</g>
		<g>
			<g>
				<g>
					<g>
						<rect x="206.55" y="162.83" class="st0" width="2.57" height="2.17"/>
					</g>
				</g>
			</g>
		</g>
		<g>
			<g>
				<g>
					<g>
						<rect x="160.44" y="162.83" class="st0" width="2.56" height="2.17"/>
					</g>
				</g>
			</g>
		</g>
		<g>
			<g>
				<g>
					<g>
						<rect x="165.56" y="162.83" class="st0" width="2.56" height="2.17"/>
					</g>
				</g>
			</g>
		</g>
		<g>
			<g>
				<g>
					<g>
						<rect x="170.69" y="162.83" class="st0" width="2.56" height="2.17"/>
					</g>
				</g>
			</g>
		</g>
	</g>
	<g>
		<g>
			<g>
				<g>
					<g>
						<path class="st1" d="M57.88,74.28c-1.33,0-2.47,0.54-3.37,1.47c-0.89,0.9-1.43,2.19-1.43,3.62c0,1.36,0.54,2.65,1.43,3.55
							c0.9,0.93,2.04,1.47,3.37,1.47c1.29,0,2.48-0.54,3.37-1.47c0.9-0.9,1.44-2.19,1.44-3.55c0-1.43-0.54-2.72-1.44-3.62
							C60.36,74.82,59.17,74.28,57.88,74.28z"/>
					</g>
				</g>
			</g>
		</g>
		<g>
			<g>
				<g>
					<g>
						<path class="st1" d="M111.77,19.71H3.56c-1.45,0-2.62,1.17-2.62,2.62v108.21c0,1.44,1.17,2.62,2.62,2.62h108.21
							c1.45,0,2.62-1.17,2.62-2.62V22.33C114.39,20.89,113.22,19.71,111.77,19.71z M49.71,36.31c1.54-1.65,3.66-2.69,6.09-2.69
							c1.79,0,3.41,0.61,4.77,1.58c0.22-0.9,0.93-1.58,1.87-1.58c1.03,0,1.9,0.86,1.9,1.94v7.06v7.03c0,1.04-0.86,1.9-1.9,1.9
							c-0.94,0-1.65-0.68-1.87-1.54c-1.36,0.97-2.98,1.54-4.77,1.54c-2.43,0-4.55-1-6.09-2.62c-1.54-1.65-2.44-3.87-2.44-6.31
							C47.27,40.15,48.17,37.93,49.71,36.31z M57.02,121.26c1.3,0,2.48-0.47,3.41-1.15c0.78-0.61,1.97-0.47,2.69,0.39
							c0.57,0.79,0.43,1.94-0.4,2.66c-1.54,1.11-3.55,1.9-5.7,1.9c-4.94,0-9.1-4.02-9.1-8.93c0-4.98,4.16-8.96,9.1-9
							c2.15,0,4.16,0.79,5.7,1.97c0.83,0.64,0.97,1.86,0.4,2.65c-0.72,0.86-1.87,1-2.69,0.36c-0.94-0.68-2.08-1.15-3.41-1.15
							c-2.9,0-5.3,2.4-5.3,5.16C51.72,118.89,54.12,121.26,57.02,121.26z M57.88,88.3c-1.79,0-3.51-0.61-4.87-1.54
							c-0.18,0.86-0.93,1.54-1.9,1.54c-1.08,0-1.93-0.9-1.93-1.94v-6.99c0-0.03,0-0.03,0-0.03v-14.2c0-1.04,0.86-1.93,1.93-1.93
							c1.11,0,1.98,0.89,1.98,1.93v6.74c1.33-0.93,3.05-1.51,4.8-1.51c4.84,0,8.71,4.09,8.71,9C66.59,84.21,62.72,88.3,57.88,88.3z"
							/>
					</g>
				</g>
			</g>
		</g>
		<g>
			<g>
				<g>
					<g>
						<path class="st1" d="M55.8,47.71c1.26,0,2.48-0.5,3.33-1.4c0.86-0.93,1.4-2.22,1.4-3.69c0-1.51-0.54-2.79-1.4-3.69
							c-0.86-0.97-2.08-1.47-3.33-1.47c-1.29,0-2.51,0.5-3.33,1.47c-0.86,0.9-1.36,2.19-1.36,3.69c0,1.47,0.5,2.76,1.36,3.69
							C53.29,47.21,54.51,47.71,55.8,47.71z"/>
					</g>
				</g>
			</g>
		</g>
	</g>
</g>
</svg>
