<?xml version="1.0" encoding="utf-8"?>
<!-- Generator: Adobe Illustrator 23.0.3, SVG Export Plug-In . SVG Version: 6.00 Build 0)  -->
<svg version="1.1" id="Ebene_1" xmlns="http://www.w3.org/2000/svg" xmlns:xlink="http://www.w3.org/1999/xlink" x="0px" y="0px"
	 viewBox="0 0 250 250" style="enable-background:new 0 0 250 250;" xml:space="preserve">
<style type="text/css">
	.st0{fill:#D39E01;}
	.st1{fill:#FFFFFF;}
</style>
<g>
	<g>
		<g>
			<g>
				<g>
					<path class="st0" d="M214.46,221.23c-11.42-25.99-23.04-53.84-34.27-80.77c-11.02-26.42-22.41-53.71-33.63-79.29
						c0.01,0,0.02,0,0.04,0c-0.64-0.22-1.17-0.58-1.62-1.01c-0.13,0.01-0.26,0.04-0.39,0.04h-0.07c-0.74,0-1.43-0.18-2.06-0.48
						c-0.04,0.03-0.08,0.06-0.12,0.08c-0.93,0.54-1.96,0.71-2.99,0.62c-0.1,0-0.2-0.01-0.29-0.01c-0.59,0-1.15-0.11-1.66-0.3
						c-0.61,0.25-1.25,0.39-1.87,0.37c-0.79-0.02-1.59-0.16-2.37-0.32c-0.3-0.06-0.58-0.17-0.85-0.31
						c-0.57,0.22-1.17,0.35-1.76,0.35h-0.76c-0.57,0-1.1-0.11-1.6-0.3c-0.64,0.28-1.32,0.44-2,0.44h-0.21
						c-0.28,0-0.56-0.03-0.83-0.08c-0.27,0.03-0.53,0.06-0.8,0.06c-0.42,0-0.84-0.06-1.26-0.12c-0.89,0.16-1.78,0.13-2.66-0.11
						c-0.02,0-0.03-0.01-0.05-0.02c-0.35,0.08-0.7,0.13-1.05,0.13h-0.28c-0.08,0-0.16-0.01-0.25-0.02
						c-0.29,0.05-0.58,0.09-0.86,0.09c-0.35,0-0.71-0.03-1.06-0.08c-0.45,0.09-0.92,0.15-1.36,0.15c-0.17,0-0.32-0.02-0.48-0.04
						c-0.23,0.03-0.46,0.05-0.69,0.04c-0.51,0.06-1.01,0.06-1.52,0c-0.32,0-0.64-0.04-0.95-0.1c-0.33,0.07-0.66,0.11-0.99,0.1
						c-0.39-0.01-0.79-0.05-1.18-0.12c-0.23,0.03-0.46,0.06-0.69,0.05c-0.58-0.01-1.19-0.05-1.74-0.25
						c-0.34-0.12-0.65-0.27-0.95-0.43c-0.37,0.08-0.76,0.12-1.18,0.12c-0.04,0-0.07,0-0.11-0.01c-0.06,0.15-0.13,0.3-0.21,0.43
						c-0.18,0.3-0.35,0.6-0.52,0.91c0.01,0,0.03,0,0.04,0c-11.36,25.52-22.89,52.75-34.06,79.11
						c-11.38,26.86-23.15,54.64-34.72,80.57c-0.27,0.55-0.45,1.45,0.17,2.68c1.48,2.96,7.12,6.92,15.08,10.6
						c9.17,4.24,20.37,7.62,31.53,9.49c14.13,2.41,28.36,3.64,42.6,3.68c14.23,0.04,28.47-1.11,42.61-3.44
						c11.18-1.81,22.4-5.12,31.59-9.32c7.98-3.64,13.64-7.58,15.14-10.52C214.91,222.68,214.73,221.78,214.46,221.23z"/>
				</g>
			</g>
		</g>
	</g>
</g>
<g>
	<g>
		<g>
			<g>
				<g>
					<path class="st1" d="M112.68,16.14c-6.13,1.48-11.55,5.26-15.25,10.65c-0.34,0.5-0.21,1.17,0.28,1.51
						c0.18,0.13,0.4,0.19,0.61,0.19c0.34,0,0.68-0.16,0.9-0.47c3.4-4.95,8.35-8.41,13.97-9.77c0.59-0.14,0.94-0.73,0.8-1.31
						C113.85,16.36,113.27,16,112.68,16.14z"/>
				</g>
			</g>
		</g>
	</g>
	<g>
		<g>
			<g>
				<g>
					<path class="st1" d="M96.26,41.59c-3.15-0.02-5.75,2.45-5.79,5.52c-0.03,1.46,0.53,2.85,1.58,3.92
						c1.09,1.13,2.58,1.75,4.16,1.76c0.02,0,0.03,0,0.04,0c1.57,0.01,3.03-0.59,4.13-1.68c1.05-1.05,1.62-2.44,1.61-3.91
						C101.95,44.13,99.38,41.62,96.26,41.59z M98.83,49.57c-0.68,0.68-1.6,1.05-2.59,1.05c-0.01,0-0.01,0-0.02,0
						c-1.01-0.01-1.94-0.4-2.63-1.1c-0.64-0.65-0.98-1.49-0.97-2.37c0.03-1.88,1.64-3.39,3.59-3.38c0.01,0,0.02,0,0.02,0
						c1.96,0.02,3.56,1.56,3.57,3.46C99.82,48.1,99.47,48.94,98.83,49.57z"/>
				</g>
			</g>
		</g>
	</g>
	<g>
		<g>
			<g>
				<g>
					<path class="st1" d="M132.04,53.03c1.02,0.78,2.26,1.19,3.52,1.19c0.28,0,0.57-0.02,0.85-0.06c1.57-0.22,2.94-1.02,3.87-2.26
						c0.88-1.19,1.25-2.65,1.03-4.1c-0.47-3.02-3.37-5.14-6.47-4.72c-3.11,0.43-5.32,3.25-4.93,6.29
						C130.09,50.82,130.86,52.12,132.04,53.03z M135.13,45.23c0.17-0.03,0.35-0.04,0.52-0.04c1.73,0.01,3.25,1.24,3.52,2.94
						c0.14,0.88-0.08,1.75-0.62,2.48c-0.58,0.78-1.44,1.28-2.42,1.41l0,0c-1,0.14-1.98-0.12-2.76-0.71
						c-0.73-0.55-1.19-1.34-1.3-2.21C131.81,47.23,133.19,45.49,135.13,45.23z"/>
				</g>
			</g>
		</g>
	</g>
	<g>
		<g>
			<g>
				<g>
					<path class="st1" d="M112.01,52.7c1.07,0.95,2.43,1.46,3.87,1.46c0.13,0,0.27,0,0.41-0.01c1.58-0.1,3.01-0.8,4.02-1.98
						c0.97-1.12,1.44-2.55,1.32-4.02c-0.25-3.05-2.99-5.37-6.11-5.17c-3.14,0.2-5.55,2.86-5.37,5.92
						C110.24,50.37,110.9,51.72,112.01,52.7z M115.66,45.15c0.08-0.01,0.16-0.01,0.25-0.01c1.84,0.01,3.42,1.4,3.56,3.2
						c0.07,0.88-0.22,1.74-0.81,2.43c-0.62,0.73-1.52,1.17-2.52,1.23l0,0c-1.01,0.06-1.96-0.26-2.7-0.91
						c-0.68-0.61-1.08-1.42-1.14-2.3C112.2,46.9,113.71,45.27,115.66,45.15z"/>
				</g>
			</g>
		</g>
	</g>
	<g>
		<g>
			<g>
				<g>
					<path class="st1" d="M152.05,52c0.96,0.62,2.05,0.95,3.18,0.95c0.42,0,0.85-0.04,1.27-0.13c1.55-0.33,2.86-1.23,3.7-2.54
						c0.79-1.25,1.05-2.73,0.73-4.17c-0.69-2.98-3.74-4.88-6.8-4.24c-3.08,0.66-5.09,3.63-4.47,6.64
						C149.95,49.95,150.8,51.19,152.05,52z M154.57,44c0.26-0.05,0.52-0.08,0.77-0.08c1.63,0.01,3.1,1.09,3.47,2.69
						c0.2,0.86,0.04,1.75-0.44,2.51c-0.52,0.82-1.35,1.38-2.33,1.59l0,0c-0.98,0.21-1.98,0.03-2.81-0.51
						c-0.77-0.5-1.28-1.25-1.46-2.11C151.4,46.24,152.65,44.41,154.57,44z"/>
				</g>
			</g>
		</g>
	</g>
	<g>
		<g>
			<g>
				<g>
					<path class="st1" d="M146.56,61.17c15.13-0.87,30.22-2.71,45.08-5.5c0.44-0.08,0.78-0.42,0.86-0.86
						c0.08-0.44-0.11-0.88-0.49-1.12c-3.82-2.4-7.7-4.95-11.54-7.6c0.26-0.98,0.25-2.01-0.05-2.98c-0.91-2.93-4.09-4.6-7.1-3.73
						c-0.5,0.14-0.96,0.34-1.4,0.61c-2.46-1.83-4.84-3.63-7.07-5.39c-6.98-16.35-21.48-26.66-38.06-27.13l0.02-5.86
						c0-0.6-0.49-1.09-1.09-1.09c-0.6,0-1.08,0.48-1.08,1.08l-0.02,5.86c-8.44,0.18-16.44,2.79-23.18,7.57
						c-6.65,4.72-11.92,11.41-15.25,19.36c-2.17,1.68-4.47,3.42-6.86,5.17c-0.7-0.37-1.46-0.59-2.25-0.66
						c-3.14-0.26-5.92,2.02-6.19,5.08c-0.05,0.5-0.02,1,0.08,1.49c-4,2.73-8.05,5.37-12.04,7.85c-0.38,0.23-0.57,0.67-0.5,1.11
						c0.08,0.44,0.42,0.79,0.86,0.87c14.85,2.88,29.93,4.8,45.05,5.75C104.35,61.06,126.31,61.93,146.56,61.17z M172.59,42.16
						L172.59,42.16L172.59,42.16L172.59,42.16c0.4-0.32,0.84-0.56,1.33-0.7c1.89-0.54,3.87,0.48,4.43,2.29
						c0.24,0.76,0.18,1.58-0.15,2.32l0,0l0,0l0,0c-0.43,0.95-1.28,1.67-2.31,1.97c-0.98,0.29-2,0.17-2.86-0.31
						c-0.79-0.44-1.37-1.15-1.61-2C171.05,44.45,171.52,43.04,172.59,42.16z M102.7,16.8c6.65-4.72,14.61-7.21,23-7.18
						c8.24,0.03,16.09,2.59,22.73,7.41c5.93,4.31,10.73,10.29,13.95,17.34c-24.48,2.7-49.27,2.63-73.73-0.21
						C91.83,27.06,96.67,21.08,102.7,16.8z M73.05,44.17c0.16-1.88,1.9-3.27,3.85-3.11c0.67,0.05,1.31,0.29,1.85,0.68
						c1,0.71,1.55,1.85,1.48,3.03c-0.06,0.88-0.46,1.69-1.15,2.28c-0.73,0.64-1.69,0.94-2.69,0.86c-1.44-0.12-2.68-1.03-3.16-2.34
						l0,0C73.07,45.12,73.01,44.65,73.05,44.17z M62.42,53.7c3.13-1.98,6.28-4.05,9.4-6.18c0.97,1.43,2.59,2.4,4.4,2.54
						c1.59,0.13,3.1-0.36,4.28-1.38c1.13-0.97,1.8-2.31,1.89-3.78c0.09-1.45-0.39-2.85-1.31-3.95c2.18-1.61,4.3-3.21,6.3-4.76
						c25.29,3.02,50.94,3.08,76.25,0.21c2.1,1.65,4.33,3.34,6.64,5.05c-1.05,1.38-1.42,3.18-0.94,4.87c0.39,1.4,1.33,2.58,2.64,3.3
						c0.87,0.49,1.84,0.73,2.81,0.74c0.57,0,1.13-0.08,1.7-0.24c1.23-0.35,2.28-1.08,3.03-2.06c3,2.06,6.01,4.07,9.01,5.99
						c-14.26,2.56-28.72,4.24-43.22,5.02c-0.26-0.11-0.57-0.12-0.85,0.01c-0.03,0.01-0.05,0.03-0.07,0.04
						c-6.31,0.33-12.63,0.49-18.94,0.47c-6.3-0.02-12.61-0.21-18.92-0.57c-0.03-0.01-0.05-0.03-0.07-0.04
						c-0.29-0.12-0.59-0.11-0.86-0.01C91.12,58.1,76.66,56.34,62.42,53.7z"/>
				</g>
			</g>
		</g>
	</g>
</g>
</svg>
