<?xml version="1.0" encoding="utf-8"?>
<!-- Generator: Adobe Illustrator 23.0.3, SVG Export Plug-In . SVG Version: 6.00 Build 0)  -->
<svg version="1.1" id="Ebene_1" xmlns="http://www.w3.org/2000/svg" xmlns:xlink="http://www.w3.org/1999/xlink" x="0px" y="0px"
	 viewBox="0 0 250 250" style="enable-background:new 0 0 250 250;" xml:space="preserve">
<style type="text/css">
	.st0{fill:#FFFFFF;}
</style>
<g>
	<g>
		<g>
			<g>
				<g>
					<g>
						<g>
							<g>
								<g>
									<g>
										<path class="st0" d="M102.88,236.98c-0.27,0-0.54-0.11-0.73-0.32c-0.41-0.42-0.41-1.11,0-1.53
											c0.83-0.87,1.29-2.02,1.29-3.24c0-1.23-0.46-2.38-1.29-3.24c-1.01-1.04-2.45-1.52-3.85-1.28c-0.57,0.1-1.11-0.3-1.2-0.89
											c-0.09-0.59,0.29-1.15,0.86-1.25c2.07-0.35,4.19,0.35,5.66,1.89c1.23,1.27,1.91,2.97,1.91,4.77c0,1.81-0.68,3.5-1.91,4.77
											C103.42,236.88,103.15,236.98,102.88,236.98z"/>
									</g>
								</g>
							</g>
						</g>
					</g>
				</g>
			</g>
		</g>
	</g>
	<g>
		<g>
			<g>
				<g>
					<g>
						<g>
							<g>
								<g>
									<g>
										<g>
											<path class="st0" d="M76.97,212.97c-0.27,0-0.54-0.11-0.74-0.32c-1.73-1.8-1.73-4.72,0-6.52c1.73-1.79,4.54-1.79,6.27,0
												c0.41,0.43,0.41,1.11,0,1.53c-0.41,0.42-1.07,0.42-1.47,0c-0.92-0.95-2.41-0.95-3.32,0c-0.92,0.95-0.92,2.5,0,3.45
												c0.4,0.42,0.4,1.11,0,1.53C77.51,212.87,77.24,212.97,76.97,212.97z"/>
										</g>
									</g>
								</g>
							</g>
						</g>
					</g>
				</g>
			</g>
		</g>
		<g>
			<g>
				<g>
					<g>
						<g>
							<g>
								<g>
									<g>
										<g>
											<path class="st0" d="M98.4,227.05c-0.26,0-0.53-0.1-0.74-0.32c-0.41-0.42-0.41-1.11,0-1.53c0.92-0.95,0.92-2.5,0-3.45
												c-0.92-0.96-2.41-0.96-3.32,0c-0.41,0.42-1.07,0.42-1.48,0c-0.41-0.43-0.41-1.11,0-1.53c1.73-1.8,4.55-1.8,6.28,0
												c1.73,1.8,1.73,4.72,0,6.51C98.93,226.95,98.67,227.05,98.4,227.05z"/>
										</g>
									</g>
								</g>
							</g>
						</g>
					</g>
				</g>
			</g>
		</g>
		<g>
			<g>
				<g>
					<g>
						<path class="st0" d="M163.04,207.17c-1.57-1.64-4.15-1.64-5.73,0c-0.76,0.79-1.19,1.85-1.19,2.97c0,0.01,0,0.03,0,0.04
							c-0.41-0.1-0.84-0.15-1.28-0.15l0,0c-1.57,0-3.07,0.64-4.18,1.8c-1.12,1.16-1.74,2.7-1.74,4.34c0,1.64,0.62,3.18,1.74,4.35
							c0.21,0.21,0.47,0.31,0.74,0.31c0.27,0,0.53-0.1,0.74-0.31c0.41-0.43,0.41-1.11,0-1.53c-0.73-0.75-1.12-1.75-1.12-2.81
							c0-1.06,0.4-2.06,1.12-2.81c0.72-0.75,1.69-1.17,2.71-1.17c1.02,0,1.98,0.42,2.72,1.17c0.41,0.42,1.06,0.42,1.47,0
							c0.41-0.42,0.41-1.11,0-1.53c-0.06-0.07-0.13-0.14-0.2-0.2c-0.02-0.02-0.02-0.03-0.04-0.05c-0.37-0.39-0.58-0.9-0.58-1.44
							c0-0.54,0.21-1.06,0.58-1.44c0.77-0.79,2.02-0.79,2.78,0c0.41,0.42,1.07,0.42,1.48,0
							C163.46,208.28,163.46,207.59,163.04,207.17z"/>
					</g>
				</g>
			</g>
		</g>
		<g>
			<g>
				<g>
					<g>
						<g>
							<g>
								<path class="st0" d="M76.93,199.29c-2.76-2.85-7.23-2.85-9.99,0c-2.28,2.37-2.66,5.96-1.17,8.74
									c-1.37,0.35-2.63,1.07-3.65,2.13c-1.47,1.53-2.28,3.56-2.28,5.71c0,1.25,0.29,2.47,0.81,3.59
									c-1.69,0.31-3.24,1.15-4.47,2.44c-1.6,1.66-2.49,3.87-2.49,6.22c0,1.66,0.44,3.24,1.25,4.6c-2.94,0.86-5.1,3.68-5.1,7
									c0,4.01,3.14,7.27,7.01,7.27c0.58,0,1.05-0.48,1.05-1.08c0-0.6-0.47-1.08-1.05-1.08c-2.71,0-4.92-2.29-4.92-5.1
									c0-2.75,2.09-4.99,4.71-5.1c0.09,0.03,0.18,0.05,0.28,0.05c0.27,0,0.54-0.11,0.74-0.32c0.41-0.42,0.41-1.11,0-1.53
									c-1.21-1.25-1.88-2.92-1.88-4.7c0-1.77,0.67-3.44,1.88-4.7c1.21-1.25,2.81-1.94,4.52-1.94c1.71,0,3.32,0.69,4.52,1.94
									c0.41,0.42,1.07,0.42,1.48,0c0.41-0.42,0.41-1.11,0-1.53c-1.4-1.45-3.21-2.34-5.15-2.54c-0.72-1.01-1.1-2.21-1.1-3.49
									c0-1.58,0.59-3.06,1.66-4.18c1.08-1.12,2.51-1.74,4.03-1.74l0,0c0.01,0,0.02,0,0.03,0c0.01,0,0.02,0,0.03,0
									c0.26,0,0.53-0.1,0.73-0.31c0.41-0.42,0.41-1.11,0-1.53c-1.94-2.02-1.94-5.28,0-7.3c1.94-2.01,5.09-2.01,7.03,0
									c0.41,0.42,1.08,0.33,1.49-0.09C77.35,200.3,77.34,199.71,76.93,199.29z"/>
							</g>
						</g>
					</g>
				</g>
			</g>
		</g>
		<g>
			<g>
				<g>
					<g>
						<g>
							<g>
								<path class="st0" d="M82.95,222.08c-0.28,0-0.55-0.11-0.77-0.32c-0.42-0.42-0.42-1.11,0-1.54c0.96-0.95,0.96-2.51,0-3.47
									c-0.95-0.95-2.51-0.95-3.47,0c-0.43,0.42-1.12,0.42-1.54,0c-0.43-0.42-0.43-1.11,0-1.54c1.81-1.8,4.74-1.8,6.55,0
									c1.8,1.81,1.8,4.74,0,6.55C83.52,221.98,83.23,222.08,82.95,222.08z"/>
							</g>
						</g>
					</g>
				</g>
			</g>
		</g>
		<g>
			<g>
				<g>
					<g>
						<path class="st0" d="M180.65,235.08c-0.57,0-1.05,0.48-1.05,1.08c0,0.6,0.47,1.08,1.05,1.08c1.32,0,2.39,1.12,2.39,2.49
							c0,1.37-1.07,2.48-2.39,2.48c-0.57,0-1.05,0.49-1.05,1.08c0,0.6,0.47,1.08,1.05,1.08c2.47,0,4.48-2.09,4.48-4.65
							C185.13,237.17,183.12,235.08,180.65,235.08z"/>
					</g>
				</g>
			</g>
		</g>
		<g>
			<g>
				<g>
					<g>
						<g>
							<g>
								<g>
									<g>
										<g>
											<g>
												<g>
													<g>
														<g>
															<g>
																<g>
																	<path class="st0" d="M97.77,167.61L97.77,167.61H81.22c-0.28,0-0.53-0.15-0.67-0.38
																		c-0.15-0.24-0.16-0.54-0.03-0.79l8.28-17.37c0.13-0.28,0.41-0.45,0.7-0.45l0,0c0.3,0,0.57,0.17,0.7,0.45
																		l8.25,17.31c0.07,0.12,0.11,0.27,0.11,0.42C98.56,167.25,98.21,167.61,97.77,167.61z M82.48,165.98H96.5
																		l-7.01-14.71L82.48,165.98z"/>
																</g>
															</g>
														</g>
													</g>
												</g>
											</g>
										</g>
									</g>
								</g>
							</g>
						</g>
					</g>
				</g>
			</g>
			<g>
				<g>
					<g>
						<g>
							<g>
								<g>
									<g>
										<g>
											<g>
												<g>
													<g>
														<g>
															<g>
																<g>
																	<path class="st0" d="M160.64,167.68c-5.08,0-9.22-4.29-9.22-9.57c0-5.28,4.13-9.57,9.22-9.57
																		c5.09,0,9.23,4.29,9.23,9.57C169.86,163.39,165.72,167.68,160.64,167.68z M160.64,150.18
																		c-4.21,0-7.65,3.56-7.65,7.94c0,4.37,3.43,7.93,7.65,7.93c4.22,0,7.66-3.56,7.66-7.93
																		C168.29,153.74,164.86,150.18,160.64,150.18z"/>
																</g>
															</g>
														</g>
													</g>
												</g>
											</g>
										</g>
									</g>
								</g>
							</g>
						</g>
					</g>
				</g>
			</g>
			<g>
				<g>
					<g>
						<g>
							<g>
								<path class="st0" d="M117.26,57.65c-3.24,0-5.89,2.74-5.89,6.11v5.03c0,3.37,2.65,6.11,5.89,6.11
									c3.25,0,5.89-2.74,5.89-6.11v-5.03C123.16,60.39,120.51,57.65,117.26,57.65z M121.51,65.43h-8.48v-1.66
									c0-2.43,1.9-4.4,4.24-4.4c2.34,0,4.24,1.97,4.24,4.4V65.43z"/>
							</g>
						</g>
					</g>
				</g>
				<g>
					<g>
						<g>
							<g>
								<path class="st0" d="M132.48,57.65c-3.24,0-5.89,2.74-5.89,6.11v5.03c0,3.37,2.64,6.11,5.89,6.11
									c3.24,0,5.89-2.74,5.89-6.11v-5.03C138.37,60.39,135.73,57.65,132.48,57.65z M136.73,65.43h-8.49v-1.66
									c0-2.43,1.9-4.4,4.24-4.4c2.34,0,4.25,1.97,4.25,4.4V65.43z"/>
							</g>
						</g>
					</g>
				</g>
				<g>
					<g>
						<g>
							<g>
								<g>
									<g>
										<g>
											<g>
												<g>
													<path class="st0" d="M134.2,120.7c0.51,0,0.93-0.43,0.93-0.96s-0.41-0.96-0.93-0.96h-8.4v-5.27h8.4
														c0.51,0,0.93-0.43,0.93-0.96c0-0.53-0.41-0.96-0.93-0.96h-8.4v-8.44c0-0.53-0.41-0.96-0.93-0.96
														c-0.51,0-0.92,0.43-0.92,0.96v8.44h-8.4c-0.51,0-0.93,0.43-0.93,0.96c0,0.53,0.42,0.96,0.93,0.96h8.4v5.27h-8.4
														c-0.51,0-0.93,0.43-0.93,0.96s0.42,0.96,0.93,0.96h8.4v5.28h-8.4c-0.51,0-0.93,0.43-0.93,0.96
														c0,0.53,0.42,0.96,0.93,0.96h8.4v5.27h-8.4c-0.51,0-0.93,0.43-0.93,0.96c0,0.53,0.42,0.96,0.93,0.96h8.4v5.27h-8.4
														c-0.51,0-0.93,0.43-0.93,0.96c0,0.53,0.42,0.96,0.93,0.96h8.4v5.27h-8.4c-0.51,0-0.93,0.43-0.93,0.96
														c0,0.53,0.42,0.96,0.93,0.96h8.4v8.44c0,0.54,0.41,0.96,0.92,0.96c0.52,0,0.93-0.43,0.93-0.96v-8.44h8.4
														c0.51,0,0.93-0.43,0.93-0.96c0-0.53-0.41-0.96-0.93-0.96h-8.4v-5.27h8.4c0.51,0,0.93-0.43,0.93-0.96
														c0-0.53-0.41-0.96-0.93-0.96h-8.4v-5.27h8.4c0.51,0,0.93-0.43,0.93-0.96c0-0.53-0.41-0.96-0.93-0.96h-8.4v-5.27h8.4
														c0.51,0,0.93-0.43,0.93-0.96c0-0.53-0.41-0.96-0.93-0.96h-8.4v-5.28H134.2z"/>
												</g>
											</g>
										</g>
									</g>
								</g>
							</g>
						</g>
					</g>
				</g>
				<g>
					<g>
						<g>
							<g>
								<g>
									<g>
										<g>
											<g>
												<g>
													<path class="st0" d="M91.71,79.9h-2.23c-0.51,0-0.93,0.43-0.93,0.96c0,0.53,0.41,0.96,0.93,0.96h2.23
														c0.51,0,0.93-0.43,0.93-0.96C92.64,80.33,92.23,79.9,91.71,79.9z"/>
												</g>
											</g>
										</g>
									</g>
								</g>
							</g>
						</g>
					</g>
				</g>
				<g>
					<g>
						<g>
							<g>
								<g>
									<g>
										<g>
											<g>
												<g>
													<path class="st0" d="M91.71,92.82h-2.23c-0.51,0-0.93,0.43-0.93,0.96c0,0.53,0.41,0.96,0.93,0.96h2.23
														c0.51,0,0.93-0.43,0.93-0.96C92.64,93.25,92.23,92.82,91.71,92.82z"/>
												</g>
											</g>
										</g>
									</g>
								</g>
							</g>
						</g>
					</g>
				</g>
				<g>
					<g>
						<g>
							<g>
								<g>
									<g>
										<g>
											<g>
												<g>
													<path class="st0" d="M158.04,79.9h2.23c0.51,0,0.93,0.43,0.93,0.96c0,0.53-0.41,0.96-0.93,0.96h-2.23
														c-0.51,0-0.93-0.43-0.93-0.96C157.12,80.33,157.53,79.9,158.04,79.9z"/>
												</g>
											</g>
										</g>
									</g>
								</g>
							</g>
						</g>
					</g>
				</g>
				<g>
					<g>
						<g>
							<g>
								<g>
									<g>
										<g>
											<g>
												<g>
													<path class="st0" d="M158.04,92.82h2.23c0.51,0,0.93,0.43,0.93,0.96c0,0.53-0.41,0.96-0.93,0.96h-2.23
														c-0.51,0-0.93-0.43-0.93-0.96C157.12,93.25,157.53,92.82,158.04,92.82z"/>
												</g>
											</g>
										</g>
									</g>
								</g>
							</g>
						</g>
					</g>
				</g>
				<g>
					<g>
						<g>
							<g>
								<path class="st0" d="M131.86,14.34c0.16,0.33,0.49,0.52,0.82,0.52c0.14,0,0.29-0.04,0.43-0.11
									c0.45-0.24,0.63-0.82,0.39-1.29c-0.35-0.7-0.7-1.39-1.07-2.07c-0.25-0.46-0.81-0.63-1.26-0.37
									c-0.44,0.26-0.61,0.84-0.35,1.31C131.17,12.99,131.52,13.67,131.86,14.34z"/>
							</g>
						</g>
					</g>
				</g>
				<g>
					<g>
						<g>
							<g>
								<path class="st0" d="M136.1,25.25c0.12,0.42,0.49,0.69,0.89,0.69c0.08,0,0.17-0.01,0.26-0.04c0.49-0.15,0.77-0.68,0.63-1.19
									c-0.21-0.75-0.44-1.5-0.68-2.25c-0.16-0.5-0.69-0.77-1.17-0.61c-0.49,0.17-0.75,0.71-0.59,1.21
									C135.68,23.8,135.9,24.53,136.1,25.25z"/>
							</g>
						</g>
					</g>
				</g>
				<g>
					<g>
						<g>
							<g>
								<path class="st0" d="M118.34,20.69h2.23c0.51,0,0.92-0.43,0.92-0.96c0-0.53-0.41-0.96-0.92-0.96h-2.23
									c-0.51,0-0.93,0.43-0.93,0.96C117.41,20.26,117.83,20.69,118.34,20.69z"/>
							</g>
						</g>
					</g>
				</g>
				<g>
					<g>
						<g>
							<g>
								<path class="st0" d="M129.87,20.69h2.24c0.51,0,0.92-0.43,0.92-0.96c0-0.53-0.41-0.96-0.92-0.96h-2.24
									c-0.51,0-0.93,0.43-0.93,0.96C128.94,20.26,129.36,20.69,129.87,20.69z"/>
							</g>
						</g>
					</g>
				</g>
				<g>
					<g>
						<g>
							<g>
								<path class="st0" d="M195.06,232.73c0.82-1.37,1.25-2.95,1.25-4.6c0-2.35-0.88-4.56-2.48-6.22
									c-1.24-1.29-2.79-2.12-4.47-2.44c0.52-1.11,0.81-2.34,0.81-3.59c0-2.15-0.81-4.19-2.28-5.71c-1.02-1.06-2.28-1.79-3.65-2.13
									c1.49-2.79,1.1-6.38-1.18-8.74c-1.29-1.34-2.97-2.05-4.66-2.13c-0.06-0.01-0.12-0.02-0.18-0.02c-0.26,0-0.53,0.01-0.77,0.04
									c-0.93,0.08-1.83,0.36-2.68,0.82c-0.38,0.2-0.73,0.43-1.07,0.7l-0.24-1.38c-0.03-0.86-0.29-1.62-0.73-2.2v-5.13l-1.85,0.17
									v3.9c-0.04-0.01-0.1-0.01-0.14-0.01h-7.26h-7.26c-0.05,0-0.1,0.01-0.15,0.01v-2.49l-1.85,0.17v3.37
									c-0.43,0.58-0.7,1.34-0.72,2.2l-0.23,1.32c-0.97-0.82-2.09-1.41-3.29-1.74v-4.77l2.49-0.22l17.61-1.69l18.89-1.8
									c1.26-0.12,2.21-1.21,2.21-2.52v-15.93c0-6.07-2.39-12.01-6.55-16.27l-11.91-12.19v-20.84v-1.41v-2.05V93.78V80.86V52.63
									V40.26c0-14-8.26-22.23-8.62-22.57c-0.02-0.02-0.04-0.03-0.06-0.04c-0.02-0.02-0.04-0.04-0.06-0.05
									c-0.03-0.02-0.06-0.03-0.09-0.05c-0.03-0.01-0.05-0.03-0.07-0.04c-0.03-0.01-0.06-0.02-0.1-0.03
									c-0.03-0.01-0.05-0.01-0.08-0.02c-0.03,0-0.06-0.01-0.1-0.01c-0.03-0.01-0.06-0.01-0.09-0.01c-0.03,0-0.06,0-0.09,0.01
									c-0.03,0-0.06,0.01-0.08,0.01c-0.03,0.01-0.06,0.02-0.09,0.03c-0.03,0.01-0.05,0.01-0.08,0.03
									c-0.03,0.01-0.06,0.03-0.08,0.04c-0.03,0.02-0.05,0.03-0.08,0.05c-0.03,0.02-0.05,0.04-0.08,0.06
									c-0.02,0.01-0.03,0.03-0.05,0.04c-0.35,0.35-8.62,8.57-8.62,22.57v76.96v2.05v1.41l0,1.99l-1.92-2.23
									c0.01,0,0.01-0.01,0.01-0.02c0.01-0.23,1.4-22.81,0.21-47.93c-0.7-14.77-2.14-27.52-4.27-37.9
									c-1.19-5.78-2.61-10.83-4.23-15.14c-0.02-0.05-0.03-0.1-0.05-0.14c-2.05-5.38-4.43-9.59-7.14-12.58
									c-0.67-0.75-1.38-1.42-2.09-2.02c-0.08-0.09-0.17-0.17-0.29-0.24c-0.03-0.02-0.05-0.04-0.07-0.06
									c-1.95-1.55-4.05-2.56-6.27-3.04C127.08,1.12,126.06,1,125.02,1c-1.15,0-2.22,0.15-3.21,0.37
									c-1.68,0.37-3.29,1.04-4.81,2.01c-1.01,0.63-1.61,1.16-1.67,1.21c-0.04,0.03-0.07,0.06-0.11,0.1
									c-0.73,0.61-1.44,1.29-2.12,2.05c-2.7,2.99-5.08,7.2-7.12,12.57c-0.02,0.04-0.04,0.09-0.05,0.14
									c-1.62,4.28-3.02,9.3-4.2,15.03c-2.13,10.33-3.56,23.01-4.24,37.69c-1.17,24.96,0.22,47.39,0.24,47.62
									c0,0.08,0.02,0.16,0.04,0.23c-0.69,0.92-1.44,1.79-2.23,2.62v-3.36V40.26c0-14-8.27-22.23-8.62-22.57
									c-0.01-0.01-0.03-0.03-0.05-0.04c-0.02-0.02-0.05-0.04-0.08-0.06c-0.02-0.02-0.05-0.03-0.08-0.05
									c-0.02-0.01-0.05-0.03-0.08-0.04c-0.03-0.01-0.05-0.02-0.08-0.03c-0.03-0.01-0.06-0.02-0.09-0.03
									c-0.03,0-0.06-0.01-0.09-0.01c-0.04-0.01-0.06-0.01-0.09-0.01c-0.03,0-0.05,0-0.08,0.01c-0.03,0-0.06,0.01-0.1,0.01
									c-0.02,0.01-0.05,0.02-0.07,0.02c-0.04,0.01-0.07,0.02-0.1,0.03c-0.03,0.01-0.05,0.03-0.07,0.04
									c-0.03,0.02-0.06,0.03-0.09,0.05c-0.02,0.02-0.04,0.04-0.06,0.05c-0.02,0.01-0.04,0.03-0.06,0.04
									c-0.35,0.35-8.62,8.57-8.62,22.57v12.37v28.23v12.92v25.48v22.24l-11.91,12.2c-4.16,4.27-6.56,10.2-6.56,16.28v15.93
									c0,1.31,0.95,2.4,2.22,2.52l16.25,1.56l16.65,1.59v2.49c-0.05-0.01-0.1-0.01-0.15-0.01h-7.26h-7.25
									c-0.05,0-0.1,0.01-0.15,0.01v-3.9l-1.85-0.17v5.13c-0.43,0.58-0.7,1.34-0.72,2.2l-0.67,3.78h10.63h8.06
									c-0.83,1.38-1.31,3-1.31,4.72c0,0.6,0.48,1.09,1.08,1.09c0.6,0,1.09-0.49,1.09-1.09c0-3.89,3.16-7.05,7.04-7.05
									c0.04,0,0.08-0.01,0.11-0.01c0.16,0.01,0.31,0.02,0.47,0.04c1.5,0.18,2.89,0.88,3.97,2.01c0.53,0.54,0.95,1.17,1.28,1.84
									c0.26,0.54,0.44,1.11,0.56,1.7c0.09,0.46,0.14,0.93,0.14,1.41c0,1.7-0.58,3.3-1.64,4.57c-0.11,0.1-0.22,0.2-0.33,0.31
									c-0.16,0.17-0.26,0.38-0.29,0.6c-0.08,0.35,0.01,0.73,0.28,1.01c0.21,0.21,0.47,0.32,0.74,0.32c0.27,0,0.53-0.11,0.73-0.32
									c0.11-0.11,0.21-0.22,0.31-0.33c0.92-0.68,2.21-0.6,3.04,0.25c0.89,0.92,0.92,2.4,0.09,3.36c-1.85,0.44-3.5,1.57-4.63,3.2
									c-0.34,0.49-0.22,1.16,0.24,1.51c0.47,0.35,1.12,0.24,1.46-0.24c1.09-1.58,2.86-2.52,4.72-2.52l0,0
									c1.55,0,3.01,0.63,4.11,1.76c1.1,1.14,1.7,2.66,1.7,4.26c0,0.6,0.47,1.08,1.04,1.08c1.08,0,1.97,0.91,1.97,2.04
									c0,0.55-0.21,1.06-0.58,1.44c-0.37,0.39-0.86,0.6-1.39,0.6l0,0c-0.02,0-0.04,0-0.07,0.01c-0.09-0.01-0.18-0.01-0.27-0.01
									c-0.58,0-1.05,0.48-1.05,1.08c0,0.6,0.47,1.08,1.05,1.08c2.04,0,3.71,1.67,3.82,3.77c-0.01,0.07-0.01,0.13-0.01,0.2
									c0,0.07,0,0.14,0.01,0.21c-0.1,2.09-1.78,3.77-3.82,3.77c-0.58,0-1.05,0.48-1.05,1.08c0,0.6,0.47,1.08,1.05,1.08
									c2.01,0,3.79-1.05,4.86-2.65c1.07,1.6,2.85,2.65,4.86,2.65c0.57,0,1.04-0.48,1.04-1.08c0-0.6-0.47-1.08-1.04-1.08
									c-2.05,0-3.72-1.68-3.82-3.77c0-0.07,0.01-0.14,0.01-0.21c0-0.07-0.01-0.13-0.01-0.2c0.1-2.1,1.77-3.77,3.82-3.77
									c0.57,0,1.04-0.49,1.04-1.08c0-0.6-0.47-1.08-1.04-1.08c-0.09,0-0.18,0-0.27,0.01c-0.03-0.01-0.05-0.01-0.07-0.01
									c-0.53,0-1.02-0.21-1.39-0.6c-0.38-0.38-0.58-0.89-0.58-1.44c0-1.12,0.88-2.04,1.96-2.04c0.58,0,1.04-0.49,1.04-1.08
									c0-1.61,0.61-3.12,1.7-4.26c1.1-1.14,2.55-1.76,4.1-1.76l0,0l0,0c1.87,0,3.63,0.94,4.72,2.52c0.33,0.48,0.99,0.6,1.46,0.24
									c0.47-0.35,0.58-1.02,0.24-1.51c-1.13-1.63-2.78-2.76-4.63-3.2c-0.83-0.96-0.8-2.43,0.09-3.35
									c0.82-0.86,2.12-0.94,3.04-0.25c0.1,0.11,0.2,0.22,0.31,0.33c0.2,0.21,0.47,0.32,0.74,0.32c0.27,0,0.53-0.11,0.74-0.32
									c0.27-0.27,0.36-0.66,0.28-1.01c-0.03-0.22-0.13-0.43-0.29-0.6c-0.11-0.11-0.22-0.22-0.33-0.31
									c-1.06-1.27-1.64-2.88-1.64-4.57c0-0.48,0.05-0.95,0.14-1.41c0.12-0.6,0.31-1.16,0.57-1.7c0.32-0.67,0.75-1.3,1.27-1.84
									c1.09-1.12,2.48-1.82,3.98-2.01c0.27-0.03,0.54-0.05,0.81-0.05l0,0c0.21,0,0.42,0.01,0.63,0.03l0,0
									c0.57,0.06,1.12,0.18,1.64,0.38c0.93,0.34,1.79,0.9,2.5,1.65c0.1,0.11,0.23,0.18,0.35,0.24l-0.01,0.05h0.17
									c0.14,0.03,0.29,0.03,0.43,0h10.03h8.2c-0.54,1.02-0.84,2.17-0.84,3.39c0,0.61,0.49,1.09,1.09,1.09
									c0.6,0,1.09-0.48,1.09-1.09c0-2.82,2.27-5.12,5.08-5.18c1.26,0.01,2.52,0.51,3.48,1.5c1.94,2.02,1.94,5.28,0,7.3
									c-0.41,0.42-0.41,1.11,0,1.53c0.2,0.21,0.47,0.31,0.74,0.31c0.01,0,0.02,0,0.03,0c0.01,0,0.02,0,0.03,0
									c1.52,0,2.96,0.62,4.03,1.74c1.08,1.11,1.67,2.59,1.67,4.18c0,1.27-0.38,2.47-1.1,3.49c-1.94,0.2-3.75,1.08-5.15,2.54
									c-0.41,0.42-0.41,1.11,0,1.53c0.41,0.42,1.07,0.42,1.48,0c1.21-1.25,2.82-1.94,4.53-1.94c1.71,0,3.32,0.69,4.52,1.94
									c1.21,1.26,1.87,2.92,1.87,4.7c0,1.77-0.66,3.44-1.87,4.7c-0.41,0.42-0.41,1.11,0,1.53c0.21,0.21,0.47,0.32,0.74,0.32
									c0.1,0,0.18-0.02,0.28-0.05c2.62,0.11,4.72,2.36,4.72,5.1c0,2.81-2.21,5.1-4.92,5.1c-0.58,0-1.04,0.49-1.04,1.08
									c0,0.6,0.47,1.08,1.04,1.08c3.87,0,7.01-3.26,7.01-7.27C200.16,236.4,198,233.59,195.06,232.73z M160.02,24.85h6.92
									c1.88,3.46,3.75,8.36,3.93,14.44h-7.39h-7.38C156.27,33.22,158.14,28.31,160.02,24.85z M156.07,41.22h7.4h7.4v10.33h-14.8
									V41.22z M156.07,117.22v-63.5h14.8V79.9h-1.31c-0.51,0-0.92,0.43-0.92,0.96c0,0.53,0.42,0.96,0.92,0.96h1.31v11.01h-1.31
									c-0.51,0-0.92,0.43-0.92,0.96c0,0.53,0.42,0.96,0.92,0.96h1.31v22.47v1.09h-14.8V117.22z M156.07,120.22h14.8v0.45v18.95
									l-14.8-15.13l-0.01-3.82V120.22z M150.59,117.99c-0.73-1.14-1.37-2.34-1.94-3.6l-0.03-0.05c-0.62-1.15-1.67-3.24-1.82-3.98
									c-1.49-6.93-1.12-23.12-0.62-34.36h4.64C151.55,95,150.88,111.99,150.59,117.99z M99.33,72.23
									c0.68-14.57,2.09-27.14,4.2-37.36c1.11-5.4,2.42-10.13,3.91-14.18h1.59c0.51,0,0.93-0.43,0.93-0.96
									c0-0.53-0.41-0.96-0.93-0.96h-0.86c1.84-4.54,3.93-8.12,6.27-10.72c0.6-0.66,1.21-1.25,1.84-1.79h17.37
									c0.62,0.53,1.23,1.12,1.83,1.77c2.34,2.6,4.44,6.19,6.28,10.74h-0.36c-0.51,0-0.92,0.43-0.92,0.96
									c0,0.53,0.42,0.96,0.92,0.96h1.11c1.5,4.08,2.81,8.84,3.94,14.28c2.12,10.28,3.54,22.93,4.24,37.59
									c0.02,0.42,0.03,0.84,0.06,1.26h-4.45c0.27-5.6,0.54-9.54,0.54-9.66l0-0.06c0-9.44-2.52-18.62-7.27-26.64
									c0.2-0.18,0.33-0.46,0.31-0.76c-0.04-0.78-0.1-1.57-0.17-2.36c-0.05-0.53-0.5-0.91-1.01-0.86
									c-0.51,0.05-0.88,0.52-0.83,1.05c0.01,0.08,0.02,0.15,0.02,0.23l-2.9-4.63c-2.23-3.55-6-5.68-10.09-5.68
									c-3.84,0-7.4,1.88-9.67,5.05c0,0-0.01,0-0.01,0c-0.14,0.21-0.28,0.41-0.41,0.62l-3.94,6.28
									c-5.18,8.26-7.92,17.84-7.92,27.69v0.06c0.01,0.12,0.28,4.06,0.54,9.66h-4.2C99.28,73.29,99.3,72.77,99.33,72.23z
									 M140.8,43.5h-31.86c0.94-2.12,2.04-4.17,3.29-6.15l3.93-6.27c0.05-0.07,0.1-0.14,0.14-0.21h17.15
									c0.04,0.07,0.09,0.14,0.13,0.21l3.94,6.27C138.76,39.33,139.86,41.38,140.8,43.5z M99.17,75.99h4.39
									c0.49,11.24,0.86,27.43-0.62,34.36c-0.16,0.74-1.2,2.83-1.82,3.98l-0.03,0.05c-0.49,1.08-1.04,2.12-1.64,3.12
									C99.16,111.72,98.46,94.9,99.17,75.99z M82.82,24.85h6.92c1.89,3.46,3.75,8.36,3.93,14.44h-7.39h-7.39
									C79.07,33.22,80.94,28.31,82.82,24.85z M78.88,41.22h7.4h7.4v10.33h-14.8V41.22z M78.88,94.74h1.31
									c0.51,0,0.93-0.43,0.93-0.96c0-0.53-0.41-0.96-0.93-0.96h-1.31V81.82h1.31c0.51,0,0.93-0.43,0.93-0.96
									c0-0.53-0.41-0.96-0.93-0.96h-1.31V53.71h14.8v64.59h-14.8V94.74z M78.88,120.22h14.8v4.21l-14.8,15.17V120.22z
									 M86.28,198.94h-8.13l0.24-1.42v-0.1c0-0.72,0.38-1.2,0.63-1.2h7.25h7.26c0.25,0,0.63,0.48,0.63,1.2v0.1l0.24,1.42H86.28z
									 M99.76,196.89c-1.19,0.33-2.31,0.91-3.28,1.72l-0.23-1.3c-0.02-0.86-0.29-1.62-0.72-2.2v-3.37l1.75,0.17l2.48,0.22V196.89z
									 M104.26,196.88c-0.72-0.2-1.47-0.3-2.24-0.3c-0.21,0-0.41,0.01-0.61,0.02v-12.25c0-3.82,3.3-6.92,7.36-6.92h6.3
									c4.06,0,7.36,3.1,7.36,6.92v12.53H104.26z M136.64,210.65c-1.22,1.27-1.57,3.1-1.07,4.7c-1.85,0.16-3.58,0.99-4.91,2.37
									c-1.27,1.32-2.06,3.02-2.26,4.84c-1.75,0.46-3.06,2.11-3.06,4.07c0,1.12,0.42,2.18,1.19,2.98c0.01,0.01,0.02,0.02,0.03,0.03
									c-0.67,0.44-1.24,1.02-1.69,1.69c-0.45-0.67-1.03-1.25-1.69-1.69c0.01-0.01,0.02-0.02,0.03-0.03
									c0.76-0.8,1.19-1.85,1.19-2.98c0-1.96-1.31-3.61-3.06-4.07c-0.2-1.83-0.99-3.52-2.26-4.84c-1.34-1.38-3.06-2.21-4.92-2.37
									c0.51-1.6,0.15-3.43-1.07-4.7c-0.81-0.83-1.85-1.28-2.91-1.33c0.45-1.11,0.68-2.31,0.68-3.55c0-0.48-0.03-0.95-0.1-1.41
									h4.34c4.97,0,8.99,0.48,8.99-4.28v-5.77l0.79,0.07l0.8-0.07v5.77c0,4.76,4.06,4.28,9.03,4.28h4.27
									c-0.07,0.47-0.1,0.93-0.1,1.41c0,1.24,0.24,2.44,0.68,3.55C138.49,209.37,137.45,209.81,136.64,210.65z M148.34,196.62
									c-0.21-0.02-0.42-0.03-0.63-0.03l0,0c-0.77,0-1.52,0.1-2.24,0.3h-18.16v-12.53c0-3.82,3.3-6.92,7.36-6.92h6.31
									c4.06,0,7.36,3.1,7.36,6.92V196.62z M149.91,182.44h-0.14c-0.91-3.84-4.5-6.72-8.78-6.72h-6.31c-4.96,0-9,3.87-9,8.63v8.23
									l-0.8,0.07l-0.79-0.07v-8.23c0-4.76-4.04-8.63-9.01-8.63h-6.3c-4.28,0-7.87,2.88-8.78,6.72l-39.71-3.77l-0.06-0.01v-8.68
									c0-5.62,2.21-11.11,6.06-15.06l10.75-11.01l1.85-1.9l14.8-15.17l1.44-1.48l0.03-0.03c0.12-0.11,0.25-0.23,0.37-0.34
									c2.97-2.78,5.34-6.09,7.05-9.84c0.23-0.43,1.72-3.23,1.98-4.42c2.42-11.25,0.15-44.82,0.02-46.65
									c0.01-6.52,1.25-12.91,3.65-18.86h33.31c2.4,5.95,3.64,12.34,3.64,18.86c-0.13,1.83-2.4,35.4,0.03,46.65
									c0.25,1.2,1.74,3.99,1.97,4.42c1.77,3.92,4.27,7.34,7.4,10.18c0.02,0.01,0.03,0.02,0.05,0.04l28.85,29.56
									c3.86,3.95,6.07,9.44,6.06,15.06v8.7L149.91,182.44z M163.48,198.94h-8.13l0.25-1.42v-0.1c0-0.72,0.37-1.2,0.62-1.2h7.26
									h7.26c0.25,0,0.63,0.48,0.63,1.2v0.1l0.25,1.42H163.48z"/>
							</g>
						</g>
					</g>
				</g>
			</g>
		</g>
	</g>
</g>
</svg>
