<svg id="Ebene_1" data-name="Ebene 1" xmlns="http://www.w3.org/2000/svg" viewBox="0 0 453.54 623.62"><defs><style>.cls-1{fill:#d49f00;}.cls-2{fill:#00304f;}</style></defs><title>Zeichenfläche 1</title><path class="cls-1" d="M19.2,451.77h34V436.7H4.41v94.39H19.2V484.16H38V469.37H19.2ZM99,526.51a12.72,12.72,0,0,0,3.22-8.73V436.7H87.46V510l-13,6.32h-.21V436.7H59.5v81.08a12.67,12.67,0,0,0,3.22,8.73A12.52,12.52,0,0,0,70.65,531l.27.14h19.9l.28-.14A12.52,12.52,0,0,0,99,526.51m26.75,4.58h23.67V516.3H125.78V484.16H144.6V469.37H125.78v-17.6h23.67V437H111v94.12Zm60.63,0H201.2V437H186.41v44.65L173,437.24V437H158.18v94.12H173V489Zm38.32-79.32H248.4V437H209.94v94.12h14.79V484.16h18.83V469.37H224.73Zm76.4-1.76.13-.4V437H254.47v14.8h30.25L251.3,518.18l-.13.41v12.5h50.07V516.3H267.7Zm22.37,81.08h23.66V516.3H323.5V484.16h18.83V469.37H323.5v-17.6h23.66V437H308.72v94.12Zm72.07,0h3V437H383.74v25.91l-13.05,6.36h0V437H355.91v94.12h14.78V484h13.05v47.06h11.83Zm54.72,0V437H435.5v44.65l-13.45-44.38V437H407.26v94.12h14.79V489l13.45,42.09Z"/><path class="cls-2" d="M199.28,395.41c12-12.88,12.91-33.49,12.91-33.49V247.57l-72.05,35.37v58H75.3V284.42l136.89-66.71V69.2q0-24.9-15.72-42.58A61.58,61.58,0,0,0,157.83,4.35H58.27Q34,8.28,19,26.62,3.26,45.63,3.26,69.2V180.92l72-35.37V76.4h64.84v97L3.25,240.64V413H169.69s15.15-2.07,29.59-17.59M308.15,90.79,439.78,26.35A37.34,37.34,0,0,0,436.69,22,52.06,52.06,0,0,0,405.26,4.35H284.09A51.75,51.75,0,0,0,253.3,22a50.46,50.46,0,0,0-12.44,34.06v45.47h0v21.61Zm69.68,75.91,71.31-34.78V101.77l-71.31,34.9Zm71.31,194.56V212.54h0v-.2l-71.31,34.78v93.49l-68.14,33.23V170l-41.55,20.22v-.09l-27.28,13.31v36.39h0V361.26a50.45,50.45,0,0,0,12.44,34.06A51.6,51.6,0,0,0,284.09,413h13.64l0,.08h97.86V413h9.63a51.91,51.91,0,0,0,31.43-17.68,50.45,50.45,0,0,0,12.45-34.06"/><path class="cls-2" d="M104.45,618.79l-5.11-19.74-2,4.45v15.29H92.18V579.55h5.17v16.61h.12a7.72,7.72,0,0,1,.18-.9c.12-.52.31-1.24.58-2.14a19.85,19.85,0,0,1,.93-2.56l4.93-11h5.24l-6.62,14.68,7,24.56Z"/><path class="cls-2" d="M125.4,618.79a6.62,6.62,0,0,1-.48-1.66,14.81,14.81,0,0,1-.12-2.25v-9.33a5,5,0,0,0-.79-2.95,2.77,2.77,0,0,0-2.41-1.08h-2.88v17.27h-5.18V579.55h8.06q4.45,0,6.42,2.35a9.38,9.38,0,0,1,1.95,6.2v5.29a6.29,6.29,0,0,1-.93,3.49,6.08,6.08,0,0,1-2.32,2.17,4.57,4.57,0,0,1,2.44,2.32,8.85,8.85,0,0,1,.81,3.94v9a15.56,15.56,0,0,0,.18,2.37,9.4,9.4,0,0,0,.54,2.08Zm-.6-30.45a4.94,4.94,0,0,0-.79-3,2.78,2.78,0,0,0-2.41-1.09h-2.88v12.88h2.88A2.77,2.77,0,0,0,124,596.1a4.94,4.94,0,0,0,.79-3Z"/><path class="cls-2" d="M135.93,618.79V579.55h12.88v4.75H141.1v11.86h6.8V601h-6.8v13.18h7.71v4.63Z"/><path class="cls-2" d="M164.45,618.79l-1.26-10h-5.78l-1.26,10h-5.24l6-39.24h6.8l6,39.24Zm-3.37-26.12-.27-2.41q-.15-1.32-.24-2.49l-.21-2.74h-.12c-.08,1.08-.15,2-.21,2.8s-.14,1.61-.24,2.49-.19,1.67-.27,2.35l-1.45,11.8h4.46Z"/><path class="cls-2" d="M180.34,584.3v34.49h-5.17V584.3h-5.66v-4.75H186v4.75Z"/><path class="cls-2" d="M190,618.79V579.55h5.18v39.24Z"/><path class="cls-2" d="M211.52,618.79h-6l-6.38-39.24h5.11l3.49,24.55c.12.73.22,1.53.31,2.41s.15,1.72.21,2.5l.21,2.74h.12c.08-1.09.15-2,.21-2.8s.13-1.62.21-2.5.18-1.66.3-2.35l3.49-24.55H218Z"/><path class="cls-2" d="M231.92,618.79l-1.27-10h-5.77l-1.27,10h-5.23l6-39.24h6.8l6,39.24Zm-3.37-26.12-.27-2.41c-.1-.88-.18-1.71-.25-2.49l-.21-2.74h-.12c-.08,1.08-.15,2-.21,2.8s-.14,1.61-.24,2.49-.19,1.67-.27,2.35l-1.44,11.8H230Z"/><path class="cls-2" d="M254.24,618.79l-.78-2.23a4.8,4.8,0,0,1-2.11,2,6.91,6.91,0,0,1-3.24.75,7.2,7.2,0,0,1-5.69-2.2,9,9,0,0,1-2-6.23V587.49a8.46,8.46,0,0,1,2.17-6.22,9.46,9.46,0,0,1,12.13,0,8.57,8.57,0,0,1,2.13,6.22V592h-5.17v-4.16c0-2.68-1-4-3-4a2.77,2.77,0,0,0-2.26,1,4.71,4.71,0,0,0-.81,3.06v22.75a4.72,4.72,0,0,0,.78,3,2.72,2.72,0,0,0,2.23.94,2.8,2.8,0,0,0,2.25-.94,4.53,4.53,0,0,0,.82-3v-7.28h-3.07v-4.51h8.24v20Z"/><path class="cls-2" d="M262.67,618.79V579.55h12.88v4.75h-7.71v11.86h6.8V601h-6.8v13.18h7.71v4.63Z"/><path class="cls-2" d="M292.52,618.79l-7.95-29.49h-.12c.12,1,.24,2,.34,2.8s.18,1.72.24,2.71.09,2,.09,2.92v21.06h-4.76V579.55h5.78L294.08,609h.12c-.12-1.08-.22-2-.3-2.86s-.15-1.72-.21-2.71-.09-1.93-.09-2.86V579.55h4.76v39.24Z"/><path class="cls-2" d="M313.16,584.3v34.49H308V584.3h-5.66v-4.75h16.49v4.75Z"/><path class="cls-2" d="M336.84,617.07a9.58,9.58,0,0,1-12.22,0,8.43,8.43,0,0,1-2.19-6.23V579.55h5.17v31a4.54,4.54,0,0,0,.85,3.07,3.18,3.18,0,0,0,4.57,0,4.6,4.6,0,0,0,.84-3.07v-31H339v31.29A8.4,8.4,0,0,1,336.84,617.07Z"/><path class="cls-2" d="M357.15,618.79a6.62,6.62,0,0,1-.48-1.66,16.25,16.25,0,0,1-.12-2.25v-9.33a5,5,0,0,0-.78-2.95,2.78,2.78,0,0,0-2.41-1.08h-2.89v17.27H345.3V579.55h8.06q4.45,0,6.41,2.35a9.38,9.38,0,0,1,2,6.2v5.29a6.21,6.21,0,0,1-.94,3.49,6.05,6.05,0,0,1-2.31,2.17,4.55,4.55,0,0,1,2.43,2.32,8.71,8.71,0,0,1,.82,3.94v9a15.56,15.56,0,0,0,.18,2.37,9.4,9.4,0,0,0,.54,2.08Zm-.6-30.45a4.94,4.94,0,0,0-.78-3,2.79,2.79,0,0,0-2.41-1.09h-2.89v12.88h2.89a2.78,2.78,0,0,0,2.41-1.08,4.94,4.94,0,0,0,.78-3Z"/></svg>